<svg width="130" height="122" viewBox="0 0 130 122" fill="none" xmlns="http://www.w3.org/2000/svg">
<g filter="url(#filter0_d_1834_23727)">
<path d="M7.03311 65.9651C5.25925 62.8927 5.25925 59.1073 7.03311 56.0349L31.7999 13.1376C33.5738 10.0651 36.852 8.17245 40.3997 8.17245L89.9333 8.17245C93.481 8.17245 96.7592 10.0651 98.5331 13.1376L123.3 56.0349C125.074 59.1073 125.074 62.8927 123.3 65.9651L98.5331 108.862C96.7593 111.935 93.481 113.828 89.9333 113.828L40.3997 113.828C36.852 113.828 33.5738 111.935 31.7999 108.862L7.03311 65.9651Z" fill="white"/>
</g>
<path d="M60.3327 72.55H51.4893C43.626 72.55 41.666 70.59 41.666 62.7267V48.7267C41.666 40.8633 43.626 38.9033 51.4893 38.9033H76.0593C83.9227 38.9033 85.8827 40.8633 85.8827 48.7267" stroke="#3D5AA9" stroke-width="5" stroke-linecap="round" stroke-linejoin="round"/>
<path d="M60.333 83.0967V72.55" stroke="#3D5AA9" stroke-width="5" stroke-linecap="round" stroke-linejoin="round"/>
<path d="M41.666 63.2166H60.3327" stroke="#3D5AA9" stroke-width="5" stroke-linecap="round" stroke-linejoin="round"/>
<path d="M52.7261 83.0967H60.3327" stroke="#3D5AA9" stroke-width="5" stroke-linecap="round" stroke-linejoin="round"/>
<path d="M88.333 62.8666V76.19C88.333 81.72 86.9563 83.0966 81.4263 83.0966H73.143C67.613 83.0966 66.2363 81.72 66.2363 76.19V62.8666C66.2363 57.3366 67.613 55.96 73.143 55.96H81.4263C86.9563 55.96 88.333 57.3366 88.333 62.8666Z" stroke="#3D5AA9" stroke-width="5" stroke-linecap="round" stroke-linejoin="round"/>
<path d="M77.2369 75.5834H77.2578" stroke="#3D5AA9" stroke-width="5" stroke-linecap="round" stroke-linejoin="round"/>
<path d="M96.169 17.7056L118.571 56.5077C120.345 59.5801 120.345 63.3655 118.571 66.438L96.169 105.24C94.3952 108.313 91.1169 110.205 87.5692 110.205H42.7643C39.2166 110.205 35.9383 108.313 34.1645 105.24L11.762 66.438C9.98817 63.3655 9.98817 59.5801 11.762 56.5077L34.1645 17.7056" stroke="#231F20" stroke-width="0.472868"/>
<path d="M17.3728 56.7443L37.1745 22.4468C38.8639 19.5207 41.986 17.7181 45.3648 17.7181L84.9681 17.7181C88.3469 17.7181 91.469 19.5207 93.1584 22.4468L112.96 56.7443C114.649 59.6704 114.649 63.2755 112.96 66.2016L93.1584 100.499C91.469 103.425 88.3469 105.228 84.9681 105.228L45.3648 105.228C41.986 105.228 38.8639 103.425 37.1745 100.499L17.3728 66.2016C15.6834 63.2755 15.6834 59.6704 17.3728 56.7443Z" stroke="#3D5AA9" stroke-width="0.945736"/>
<defs>
<filter id="filter0_d_1834_23727" x="0.501086" y="2.97081" width="129.331" height="116.058" filterUnits="userSpaceOnUse" color-interpolation-filters="sRGB">
<feFlood flood-opacity="0" result="BackgroundImageFix"/>
<feColorMatrix in="SourceAlpha" type="matrix" values="0 0 0 0 0 0 0 0 0 0 0 0 0 0 0 0 0 0 127 0" result="hardAlpha"/>
<feOffset/>
<feGaussianBlur stdDeviation="2.60078"/>
<feComposite in2="hardAlpha" operator="out"/>
<feColorMatrix type="matrix" values="0 0 0 0 0 0 0 0 0 0 0 0 0 0 0 0 0 0 0.12 0"/>
<feBlend mode="normal" in2="BackgroundImageFix" result="effect1_dropShadow_1834_23727"/>
<feBlend mode="normal" in="SourceGraphic" in2="effect1_dropShadow_1834_23727" result="shape"/>
</filter>
</defs>
</svg>
