<svg width="130" height="122" viewBox="0 0 130 122" fill="none" xmlns="http://www.w3.org/2000/svg">
<g filter="url(#filter0_d_1834_23700)">
<path d="M7.19962 65.9651C5.42575 62.8927 5.42575 59.1073 7.19962 56.0349L31.9664 13.1376C33.7403 10.0651 37.0185 8.17245 40.5662 8.17245L90.0998 8.17245C93.6475 8.17245 96.9257 10.0651 98.6996 13.1376L123.466 56.0349C125.24 59.1073 125.24 62.8927 123.466 65.9651L98.6996 108.862C96.9258 111.935 93.6475 113.828 90.0998 113.828L40.5662 113.828C37.0185 113.828 33.7403 111.935 31.9664 108.862L7.19962 65.9651Z" fill="white"/>
</g>
<path d="M96.335 17.7056L118.737 56.5077C120.511 59.5801 120.511 63.3655 118.737 66.438L96.335 105.24C94.5612 108.313 91.2829 110.205 87.7352 110.205H42.9303C39.3826 110.205 36.1044 108.313 34.3305 105.24L11.9281 66.438C10.1542 63.3655 10.1542 59.5801 11.9281 56.5077L34.3305 17.7056" stroke="#231F20" stroke-width="0.472868"/>
<path d="M17.5398 56.7443L37.3415 22.4468C39.0308 19.5207 42.153 17.7181 45.5318 17.7181L85.1351 17.7181C88.5139 17.7181 91.636 19.5207 93.3254 22.4468L113.127 56.7443C114.816 59.6704 114.816 63.2755 113.127 66.2016L93.3254 100.499C91.636 103.425 88.5139 105.228 85.1351 105.228L45.5318 105.228C42.153 105.228 39.0309 103.425 37.3415 100.499L17.5398 66.2016C15.8504 63.2755 15.8504 59.6704 17.5398 56.7443Z" stroke="#3D5AA9" stroke-width="0.945736"/>
<path d="M84.0684 51.7498H79.7261L69.0721 62.3992C69.4391 63.3343 69.4728 64.3673 69.1677 65.3245C68.8625 66.2816 68.2371 67.1045 67.3967 67.6547C66.5562 68.205 65.5518 68.4491 64.5526 68.3459C63.5533 68.2427 62.62 67.7987 61.9096 67.0883C61.1993 66.3779 60.7552 65.4447 60.652 64.4454C60.5489 63.4461 60.7929 62.4418 61.3432 61.6013C61.8934 60.7608 62.7163 60.1354 63.6735 59.8303C64.6306 59.5251 65.6636 59.5589 66.5988 59.9258L77.2504 49.2742V44.9318C77.2507 44.3508 77.4814 43.7936 77.8921 43.3825L81.9288 39.3458C82.0033 39.2704 82.0971 39.2169 82.1999 39.191C82.3028 39.165 82.4107 39.1678 82.5121 39.1988C82.7198 39.2595 82.8738 39.4322 82.9158 39.6445L83.9891 45.0135L89.3558 46.0868C89.5658 46.1288 89.7384 46.2828 89.7991 46.4905C89.8297 46.5914 89.8325 46.6987 89.807 46.801C89.7815 46.9033 89.7288 46.9968 89.6544 47.0715L85.6154 51.1082C85.4124 51.3115 85.1713 51.4729 84.9058 51.583C84.6404 51.6931 84.3558 51.7498 84.0684 51.7498Z" fill="#3D5AA9"/>
<path d="M43.125 64C43.125 69.8016 45.4297 75.3656 49.532 79.468C53.6344 83.5703 59.1984 85.875 65 85.875C67.8727 85.875 70.7172 85.3092 73.3712 84.2099C76.0252 83.1106 78.4367 81.4993 80.468 79.468C82.4992 77.4367 84.1105 75.0252 85.2099 72.3712C86.3092 69.7172 86.875 66.8727 86.875 64C86.875 61.9047 86.581 59.8793 86.0327 57.9637C85.9237 57.5238 85.9895 57.0588 86.2164 56.6666C86.4433 56.2743 86.8135 55.9853 87.2491 55.8605C87.6848 55.7356 88.1518 55.7846 88.5521 55.9972C88.9523 56.2097 89.2545 56.5692 89.395 57C90.0343 59.226 90.375 61.5733 90.375 64C90.375 78.014 79.014 89.375 65 89.375C50.986 89.375 39.625 78.014 39.625 64C39.625 49.986 50.986 38.625 65 38.625C67.3683 38.6227 69.7227 38.9517 72 39.6027C72.222 39.665 72.4296 39.7705 72.6107 39.9133C72.7918 40.0561 72.9429 40.2332 73.0553 40.4346C73.1678 40.6359 73.2393 40.8575 73.2658 41.0866C73.2923 41.3157 73.2732 41.5478 73.2097 41.7695C73.1462 41.9912 73.0395 42.1982 72.8958 42.3785C72.752 42.5588 72.574 42.709 72.3721 42.8203C72.1701 42.9316 71.9481 43.0019 71.7189 43.0271C71.4896 43.0524 71.2577 43.0321 71.0363 42.9673C69.0733 42.4067 67.0415 42.1232 65 42.125C59.1984 42.125 53.6344 44.4297 49.532 48.5321C45.4297 52.6344 43.125 58.1984 43.125 64Z" fill="#3D5AA9"/>
<path d="M53.625 64C53.6316 65.5454 53.953 67.0733 54.5697 68.4904C55.1864 69.9074 56.0855 71.1839 57.212 72.2419C58.3385 73.2999 59.6688 74.1172 61.1217 74.6439C62.5746 75.1706 64.1196 75.3956 65.6624 75.3053C67.2052 75.215 68.7134 74.8111 70.0949 74.1184C71.4764 73.4258 72.7023 72.4588 73.6976 71.2765C74.6929 70.0943 75.4368 68.7216 75.8839 67.2423C76.3311 65.7629 76.472 64.208 76.298 62.6723C76.2491 62.3613 76.2851 62.0429 76.4024 61.7507C76.5196 61.4585 76.7137 61.2035 76.9641 61.0126C77.2145 60.8218 77.5119 60.7022 77.8247 60.6666C78.1375 60.631 78.4542 60.6806 78.741 60.8103C79.3267 61.0717 79.721 61.6293 79.7724 62.2687C80.1347 65.3376 79.5319 68.4431 78.0478 71.1536C76.5637 73.8641 74.272 76.045 71.4913 77.393C68.7106 78.741 65.579 79.1892 62.5318 78.6754C59.4846 78.1615 56.6732 76.7111 54.4884 74.5257C52.3041 72.3427 50.8533 69.5341 50.3372 66.4894C49.8211 63.4447 50.2652 60.3149 51.6079 57.534C52.9507 54.7531 55.1255 52.4589 57.8309 50.9697C60.5362 49.4805 63.6378 48.87 66.7057 49.223C66.9376 49.2445 67.1629 49.3121 67.3684 49.4218C67.5738 49.5316 67.7553 49.6812 67.9022 49.862C68.0491 50.0427 68.1584 50.251 68.2238 50.4746C68.2891 50.6981 68.3092 50.9325 68.2828 51.1639C68.2564 51.3953 68.184 51.6191 68.07 51.8222C67.956 52.0253 67.8025 52.2036 67.6187 52.3467C67.4349 52.4897 67.2244 52.5946 66.9995 52.6552C66.7746 52.7158 66.5399 52.7309 66.309 52.6997C64.7154 52.5154 63.1009 52.6703 61.5714 53.1541C60.0418 53.6378 58.6319 54.4396 57.4341 55.5067C56.2363 56.5739 55.2777 57.8823 54.6212 59.346C53.9648 60.8098 53.6253 62.3958 53.625 64Z" fill="#3D5AA9"/>
<defs>
<filter id="filter0_d_1834_23700" x="0.66759" y="2.97081" width="129.331" height="116.058" filterUnits="userSpaceOnUse" color-interpolation-filters="sRGB">
<feFlood flood-opacity="0" result="BackgroundImageFix"/>
<feColorMatrix in="SourceAlpha" type="matrix" values="0 0 0 0 0 0 0 0 0 0 0 0 0 0 0 0 0 0 127 0" result="hardAlpha"/>
<feOffset/>
<feGaussianBlur stdDeviation="2.60078"/>
<feComposite in2="hardAlpha" operator="out"/>
<feColorMatrix type="matrix" values="0 0 0 0 0 0 0 0 0 0 0 0 0 0 0 0 0 0 0.12 0"/>
<feBlend mode="normal" in2="BackgroundImageFix" result="effect1_dropShadow_1834_23700"/>
<feBlend mode="normal" in="SourceGraphic" in2="effect1_dropShadow_1834_23700" result="shape"/>
</filter>
</defs>
</svg>
