<svg width="130" height="122" viewBox="0 0 130 122" fill="none" xmlns="http://www.w3.org/2000/svg">
<g filter="url(#filter0_d_1834_23736)">
<path d="M7.19962 65.9651C5.42575 62.8927 5.42575 59.1073 7.19962 56.0349L31.9664 13.1376C33.7403 10.0651 37.0185 8.17245 40.5662 8.17245L90.0998 8.17245C93.6475 8.17245 96.9257 10.0651 98.6996 13.1376L123.466 56.0349C125.24 59.1073 125.24 62.8927 123.466 65.9651L98.6996 108.862C96.9258 111.935 93.6475 113.828 90.0998 113.828L40.5662 113.828C37.0185 113.828 33.7403 111.935 31.9664 108.862L7.19962 65.9651Z" fill="white"/>
</g>
<path d="M96.335 17.7056L118.737 56.5077C120.511 59.5801 120.511 63.3655 118.737 66.438L96.335 105.24C94.5612 108.313 91.2829 110.205 87.7352 110.205H42.9303C39.3826 110.205 36.1044 108.313 34.3305 105.24L11.9281 66.438C10.1542 63.3655 10.1542 59.5801 11.9281 56.5077L34.3305 17.7056" stroke="#231F20" stroke-width="0.472868"/>
<path d="M17.5398 56.7443L37.3415 22.4468C39.0308 19.5207 42.153 17.7181 45.5318 17.7181L85.1351 17.7181C88.5139 17.7181 91.636 19.5207 93.3254 22.4468L113.127 56.7443C114.816 59.6704 114.816 63.2755 113.127 66.2016L93.3254 100.499C91.636 103.425 88.5139 105.228 85.1351 105.228L45.5318 105.228C42.153 105.228 39.0309 103.425 37.3415 100.499L17.5398 66.2016C15.8504 63.2755 15.8504 59.6704 17.5398 56.7443Z" stroke="#3D5AA9" stroke-width="0.945736"/>
<path d="M59.75 41.75H49.25C48.3217 41.75 47.4315 42.1187 46.7751 42.7751C46.1187 43.4315 45.75 44.3217 45.75 45.25V55.75C45.75 56.6783 46.1187 57.5685 46.7751 58.2249C47.4315 58.8813 48.3217 59.25 49.25 59.25H59.75C60.6783 59.25 61.5685 58.8813 62.2249 58.2249C62.8813 57.5685 63.25 56.6783 63.25 55.75V45.25C63.25 44.3217 62.8813 43.4315 62.2249 42.7751C61.5685 42.1187 60.6783 41.75 59.75 41.75ZM59.75 55.75H49.25V45.25H59.75V55.75ZM59.75 62.75H49.25C48.3217 62.75 47.4315 63.1187 46.7751 63.7751C46.1187 64.4315 45.75 65.3217 45.75 66.25V76.75C45.75 77.6783 46.1187 78.5685 46.7751 79.2249C47.4315 79.8813 48.3217 80.25 49.25 80.25H59.75C60.6783 80.25 61.5685 79.8813 62.2249 79.2249C62.8813 78.5685 63.25 77.6783 63.25 76.75V66.25C63.25 65.3217 62.8813 64.4315 62.2249 63.7751C61.5685 63.1187 60.6783 62.75 59.75 62.75ZM59.75 76.75H49.25V66.25H59.75V76.75ZM80.75 41.75H70.25C69.3217 41.75 68.4315 42.1187 67.7751 42.7751C67.1187 43.4315 66.75 44.3217 66.75 45.25V55.75C66.75 56.6783 67.1187 57.5685 67.7751 58.2249C68.4315 58.8813 69.3217 59.25 70.25 59.25H80.75C81.6783 59.25 82.5685 58.8813 83.2249 58.2249C83.8813 57.5685 84.25 56.6783 84.25 55.75V45.25C84.25 44.3217 83.8813 43.4315 83.2249 42.7751C82.5685 42.1187 81.6783 41.75 80.75 41.75ZM80.75 55.75H70.25V45.25H80.75V55.75ZM66.75 71.5V64.5C66.75 64.0359 66.9344 63.5908 67.2626 63.2626C67.5908 62.9344 68.0359 62.75 68.5 62.75C68.9641 62.75 69.4092 62.9344 69.7374 63.2626C70.0656 63.5908 70.25 64.0359 70.25 64.5V71.5C70.25 71.9641 70.0656 72.4092 69.7374 72.7374C69.4092 73.0656 68.9641 73.25 68.5 73.25C68.0359 73.25 67.5908 73.0656 67.2626 72.7374C66.9344 72.4092 66.75 71.9641 66.75 71.5ZM84.25 68C84.25 68.4641 84.0656 68.9092 83.7374 69.2374C83.4092 69.5656 82.9641 69.75 82.5 69.75H77.25V78.5C77.25 78.9641 77.0656 79.4092 76.7374 79.7374C76.4092 80.0656 75.9641 80.25 75.5 80.25H68.5C68.0359 80.25 67.5908 80.0656 67.2626 79.7374C66.9344 79.4092 66.75 78.9641 66.75 78.5C66.75 78.0359 66.9344 77.5908 67.2626 77.2626C67.5908 76.9344 68.0359 76.75 68.5 76.75H73.75V64.5C73.75 64.0359 73.9344 63.5908 74.2626 63.2626C74.5908 62.9344 75.0359 62.75 75.5 62.75C75.9641 62.75 76.4092 62.9344 76.7374 63.2626C77.0656 63.5908 77.25 64.0359 77.25 64.5V66.25H82.5C82.9641 66.25 83.4092 66.4344 83.7374 66.7626C84.0656 67.0908 84.25 67.5359 84.25 68ZM84.25 75V78.5C84.25 78.9641 84.0656 79.4092 83.7374 79.7374C83.4092 80.0656 82.9641 80.25 82.5 80.25C82.0359 80.25 81.5908 80.0656 81.2626 79.7374C80.9344 79.4092 80.75 78.9641 80.75 78.5V75C80.75 74.5359 80.9344 74.0908 81.2626 73.7626C81.5908 73.4344 82.0359 73.25 82.5 73.25C82.9641 73.25 83.4092 73.4344 83.7374 73.7626C84.0656 74.0908 84.25 74.5359 84.25 75Z" fill="#3D5AA9"/>
<defs>
<filter id="filter0_d_1834_23736" x="0.66759" y="2.97081" width="129.331" height="116.058" filterUnits="userSpaceOnUse" color-interpolation-filters="sRGB">
<feFlood flood-opacity="0" result="BackgroundImageFix"/>
<feColorMatrix in="SourceAlpha" type="matrix" values="0 0 0 0 0 0 0 0 0 0 0 0 0 0 0 0 0 0 127 0" result="hardAlpha"/>
<feOffset/>
<feGaussianBlur stdDeviation="2.60078"/>
<feComposite in2="hardAlpha" operator="out"/>
<feColorMatrix type="matrix" values="0 0 0 0 0 0 0 0 0 0 0 0 0 0 0 0 0 0 0.12 0"/>
<feBlend mode="normal" in2="BackgroundImageFix" result="effect1_dropShadow_1834_23736"/>
<feBlend mode="normal" in="SourceGraphic" in2="effect1_dropShadow_1834_23736" result="shape"/>
</filter>
</defs>
</svg>
