<svg width="130" height="122" viewBox="0 0 130 122" fill="none" xmlns="http://www.w3.org/2000/svg">
<g filter="url(#filter0_d_1834_23691)">
<path d="M7.03311 65.9651C5.25925 62.8927 5.25925 59.1073 7.03311 56.0349L31.7999 13.1376C33.5738 10.0651 36.852 8.17245 40.3997 8.17245L89.9333 8.17245C93.481 8.17245 96.7592 10.0651 98.5331 13.1376L123.3 56.0349C125.074 59.1073 125.074 62.8927 123.3 65.9651L98.5331 108.862C96.7593 111.935 93.481 113.828 89.9333 113.828L40.3997 113.828C36.852 113.828 33.5738 111.935 31.7999 108.862L7.03311 65.9651Z" fill="white"/>
</g>
<path d="M96.169 17.7056L118.571 56.5077C120.345 59.5801 120.345 63.3655 118.571 66.438L96.169 105.24C94.3952 108.313 91.1169 110.205 87.5692 110.205H42.7643C39.2166 110.205 35.9383 108.313 34.1645 105.24L11.762 66.438C9.98817 63.3655 9.98817 59.5801 11.762 56.5077L34.1645 17.7056" stroke="#231F20" stroke-width="0.472868"/>
<path d="M17.3728 56.7443L37.1745 22.4468C38.8639 19.5207 41.986 17.7181 45.3648 17.7181L84.9681 17.7181C88.3469 17.7181 91.469 19.5207 93.1584 22.4468L112.96 56.7443C114.649 59.6704 114.649 63.2755 112.96 66.2016L93.1584 100.499C91.469 103.425 88.3469 105.228 84.9681 105.228L45.3648 105.228C41.986 105.228 38.8639 103.425 37.1745 100.499L17.3728 66.2016C15.6834 63.2755 15.6834 59.6704 17.3728 56.7443Z" stroke="#3D5AA9" stroke-width="0.945736"/>
<path d="M63.7538 81.9412C76.0996 81.9412 86.1077 71.9331 86.1077 59.5873C86.1077 47.2416 76.0996 37.2334 63.7538 37.2334C51.4081 37.2334 41.3999 47.2416 41.3999 59.5873C41.3999 71.9331 51.4081 81.9412 63.7538 81.9412Z" stroke="#3D5AA9" stroke-width="3.48599" stroke-linecap="round" stroke-linejoin="round"/>
<path d="M88.461 84.2942L83.7549 79.5881" stroke="#3D5AA9" stroke-width="3.48599" stroke-linecap="round" stroke-linejoin="round"/>
<defs>
<filter id="filter0_d_1834_23691" x="0.501086" y="2.97081" width="129.331" height="116.058" filterUnits="userSpaceOnUse" color-interpolation-filters="sRGB">
<feFlood flood-opacity="0" result="BackgroundImageFix"/>
<feColorMatrix in="SourceAlpha" type="matrix" values="0 0 0 0 0 0 0 0 0 0 0 0 0 0 0 0 0 0 127 0" result="hardAlpha"/>
<feOffset/>
<feGaussianBlur stdDeviation="2.60078"/>
<feComposite in2="hardAlpha" operator="out"/>
<feColorMatrix type="matrix" values="0 0 0 0 0 0 0 0 0 0 0 0 0 0 0 0 0 0 0.12 0"/>
<feBlend mode="normal" in2="BackgroundImageFix" result="effect1_dropShadow_1834_23691"/>
<feBlend mode="normal" in="SourceGraphic" in2="effect1_dropShadow_1834_23691" result="shape"/>
</filter>
</defs>
</svg>
