<svg width="100" height="100" viewBox="0 0 100 100" fill="none" xmlns="http://www.w3.org/2000/svg">
<rect x="0.613885" y="0.613885" width="98.7722" height="98.7722" fill="white"/>
<rect width="78.6135" height="78.5773" transform="translate(9.82227 9.82214)" fill="#EBEBEB"/>
<path d="M39.9209 63.8441H58.3375V67.5274H39.9209V63.8441ZM43.6042 71.2107H54.6542V74.894H43.6042V71.2107ZM49.1292 23.3276C44.2448 23.3276 39.5605 25.2679 36.1067 28.7217C32.6529 32.1755 30.7126 36.8598 30.7126 41.7442C30.5881 44.4207 31.1008 47.0886 32.2086 49.5283C33.3164 51.968 34.9876 54.1099 37.0848 55.7776C38.9264 57.4903 39.9209 58.4664 39.9209 60.1607H43.6042C43.6042 56.7721 41.56 54.8752 39.571 53.052C37.8497 51.7338 36.4779 50.0137 35.5757 48.0424C34.6735 46.071 34.2684 43.9085 34.3959 41.7442C34.3959 37.8367 35.9482 34.0892 38.7112 31.3262C41.4742 28.5632 45.2217 27.0109 49.1292 27.0109C53.0367 27.0109 56.7841 28.5632 59.5472 31.3262C62.3102 34.0892 63.8624 37.8367 63.8624 41.7442C63.9879 43.9101 63.58 46.0736 62.6745 48.0451C61.769 50.0166 60.3936 51.7358 58.669 53.052C56.6984 54.8936 54.6542 56.7353 54.6542 60.1607H58.3375C58.3375 58.4664 59.3135 57.4903 61.1736 55.7592C63.2693 54.0943 64.9398 51.9556 66.0476 49.5191C67.1553 47.0826 67.6688 44.4179 67.5457 41.7442C67.5457 39.3257 67.0694 36.9309 66.1439 34.6965C65.2183 32.4621 63.8618 30.4319 62.1517 28.7217C60.4415 27.0116 58.4113 25.655 56.1769 24.7295C53.9425 23.804 51.5477 23.3276 49.1292 23.3276Z" fill="#3D5AA9"/>
<rect x="0.613885" y="0.613885" width="98.7722" height="98.7722" stroke="#BDB7B9" stroke-width="1.22777"/>
</svg>
