<svg width="96" height="96" viewBox="0 0 96 96" fill="none" xmlns="http://www.w3.org/2000/svg">
<rect x="1.09467" y="0.594666" width="93.9923" height="93.9573" fill="white"/>
<rect width="76.1523" height="76.1173" transform="translate(10.0146 9.51465)" fill="#EBEBEB"/>
<path d="M32.1001 70.1704L44.8117 36.2744M60.6441 70.1704L47.9325 36.2744" stroke="#3D5AA9" stroke-width="4.75733" stroke-linecap="round" stroke-linejoin="round"/>
<path d="M46.3735 36.8693C49.0009 36.8693 51.1309 34.7393 51.1309 32.1119C51.1309 29.4845 49.0009 27.3546 46.3735 27.3546C43.7461 27.3546 41.6162 29.4845 41.6162 32.1119C41.6162 34.7393 43.7461 36.8693 46.3735 36.8693Z" stroke="#3D5AA9" stroke-width="4.75733" stroke-linecap="round" stroke-linejoin="round"/>
<path d="M62.5119 57.0879C57.7055 60.2014 52.0993 61.8539 46.3726 61.8453C40.4224 61.8453 34.8813 60.0969 30.2334 57.0879M46.3726 27.3546V22.5973" stroke="#3D5AA9" stroke-width="4.75733" stroke-linecap="round" stroke-linejoin="round"/>
<rect x="1.09467" y="0.594666" width="93.9923" height="93.9573" stroke="#BDB7B9" stroke-width="1.18933"/>
</svg>
