<svg width="98" height="98" viewBox="0 0 98 98" fill="none" xmlns="http://www.w3.org/2000/svg">
<rect x="0.941134" y="0.607637" width="96.0425" height="96.0067" fill="white"/>
<rect width="77.8134" height="77.7776" transform="translate(10.0557 9.72217)" fill="#EBEBEB"/>
<path d="M43.5772 60.3089H53.2994L58.3088 44.277C59.013 42.0247 59.1602 39.6353 58.7377 37.3136C58.3152 34.992 57.3356 32.8076 55.8831 30.9478L49.5879 22.8906C49.4516 22.7158 49.2771 22.5745 49.0779 22.4772C48.8787 22.38 48.66 22.3295 48.4383 22.3295C48.2166 22.3295 47.9979 22.38 47.7987 22.4772C47.5995 22.5745 47.425 22.7158 47.2886 22.8906L40.9935 30.9478C39.541 32.8076 38.5614 34.992 38.1389 37.3136C37.7164 39.6353 37.8636 42.0247 38.5678 44.277L43.5772 60.3089ZM43.5772 60.3089L36.2855 65.17C36.2855 65.17 31.4244 55.4478 39.9314 49.3714M43.5772 67.6005C43.5772 72.4616 48.4383 74.8922 48.4383 74.8922C48.4383 74.8922 53.2994 72.4616 53.2994 67.6005M57.9928 49.3714C66.4997 55.4478 61.6386 65.17 61.6386 65.17L54.347 60.3089" stroke="#3D5AA9" stroke-width="3.64582" stroke-linecap="round" stroke-linejoin="round"/>
<path d="M48.4387 45.7256C47.1495 45.7256 45.9131 45.2135 45.0014 44.3018C44.0898 43.3902 43.5776 42.1538 43.5776 40.8645C43.5776 39.5753 44.0898 38.3388 45.0014 37.4272C45.9131 36.5156 47.1495 36.0034 48.4387 36.0034C49.728 36.0034 50.9644 36.5156 51.8761 37.4272C52.7877 38.3388 53.2998 39.5753 53.2998 40.8645C53.2998 42.1538 52.7877 43.3902 51.8761 44.3018C50.9644 45.2135 49.728 45.7256 48.4387 45.7256Z" stroke="#3D5AA9" stroke-width="3.64582" stroke-linecap="round" stroke-linejoin="round"/>
<rect x="0.941134" y="0.607637" width="96.0425" height="96.0067" stroke="#BDB7B9" stroke-width="1.21527"/>
</svg>
