<svg width="99" height="98" viewBox="0 0 99 98" fill="none" xmlns="http://www.w3.org/2000/svg">
<rect x="1.27718" y="0.610188" width="96.4456" height="96.4097" fill="white"/>
<rect width="78.14" height="78.104" transform="translate(10.4297 9.76306)" fill="#EBEBEB"/>
<path d="M47.059 56.1033C47.059 56.7506 47.3161 57.3714 47.7738 57.8291C48.2316 58.2869 48.8524 58.544 49.4997 58.544C50.147 58.544 50.7679 58.2869 51.2256 57.8291C51.6833 57.3714 51.9405 56.7506 51.9405 56.1033V38.6324L59.8558 46.5477L63.307 43.0965L49.4997 29.2892L35.6924 43.0965L39.1436 46.5477L47.059 38.6373V56.1057V56.1033Z" fill="#3D5AA9"/>
<path d="M29.9736 53.6968H34.8551V63.4598H64.1442V53.6968H69.0257V63.4598C69.0257 64.7544 68.5114 65.9961 67.5959 66.9115C66.6804 67.827 65.4388 68.3413 64.1442 68.3413H34.8551C33.5605 68.3413 32.3189 67.827 31.4034 66.9115C30.4879 65.9961 29.9736 64.7544 29.9736 63.4598V53.6968Z" fill="#3D5AA9"/>
<rect x="1.27718" y="0.610188" width="96.4456" height="96.4097" stroke="#BDB7B9" stroke-width="1.22038"/>
</svg>
