<svg width="1319" height="441" viewBox="0 0 1319 441" fill="none" xmlns="http://www.w3.org/2000/svg">
<rect x="651" y="29" width="576" height="382" stroke="#3D5AA9" stroke-width="2" stroke-linecap="round" stroke-dasharray="10 10"/>
<rect x="16.4785" y="127.701" width="158.608" height="158.608" fill="#3F3A3B"/>
<rect x="1.02992" y="139.03" width="162.788" height="162.728" fill="white"/>
<rect width="131.891" height="131.83" transform="translate(16.4785 154.479)" fill="#EBEBEB"/>
<path d="M66.9751 245.112H97.8728V251.291H66.9751V245.112ZM73.1546 257.471H91.6932V263.65H73.1546V257.471ZM82.4239 177.137C74.2294 177.137 66.3704 180.392 60.576 186.187C54.7816 191.981 51.5263 199.84 51.5263 208.035C51.3174 212.525 52.1775 217.001 54.0361 221.094C55.8947 225.187 58.6985 228.781 62.2169 231.579C65.3066 234.452 66.9751 236.09 66.9751 238.932H73.1546C73.1546 233.247 69.725 230.065 66.3881 227.006C63.5002 224.794 61.1987 221.909 59.6851 218.601C58.1714 215.294 57.4918 211.666 57.7058 208.035C57.7058 201.479 60.31 195.192 64.9456 190.556C69.5811 185.921 75.8683 183.316 82.4239 183.316C88.9796 183.316 95.2667 185.921 99.9023 190.556C104.538 195.192 107.142 201.479 107.142 208.035C107.352 211.668 106.668 215.298 105.149 218.606C103.63 221.913 101.322 224.798 98.4289 227.006C95.1229 230.096 91.6932 233.185 91.6932 238.932H97.8728C97.8728 236.09 99.5103 234.452 102.631 231.548C106.147 228.754 108.949 225.166 110.808 221.079C112.667 216.991 113.528 212.52 113.322 208.035C113.322 203.977 112.522 199.959 110.97 196.211C109.417 192.462 107.141 189.056 104.272 186.187C101.403 183.318 97.9966 181.042 94.2479 179.489C90.4993 177.936 86.4815 177.137 82.4239 177.137Z" fill="#3D5AA9"/>
<rect x="1.02992" y="139.03" width="162.788" height="162.728" stroke="#BDB7B9" stroke-width="2.05984"/>
<rect x="164.848" y="218.334" width="120.94" height="4.11969" fill="#3F3A3B"/>
<rect x="302.267" y="127.701" width="158.608" height="158.608" fill="#3F3A3B"/>
<rect x="286.818" y="139.03" width="162.788" height="162.728" fill="white"/>
<rect width="131.891" height="131.83" transform="translate(302.267 154.479)" fill="#EBEBEB"/>
<path d="M340.519 259.531L362.535 200.825M389.955 259.531L367.94 200.825" stroke="#3D5AA9" stroke-width="8.23937" stroke-linecap="round" stroke-linejoin="round"/>
<path d="M365.236 201.855C369.787 201.855 373.476 198.166 373.476 193.616C373.476 189.065 369.787 185.376 365.236 185.376C360.686 185.376 356.997 189.065 356.997 193.616C356.997 198.166 360.686 201.855 365.236 201.855Z" stroke="#3D5AA9" stroke-width="8.23937" stroke-linecap="round" stroke-linejoin="round"/>
<path d="M393.188 236.872C384.864 242.265 375.154 245.127 365.236 245.112C354.93 245.112 345.334 242.084 337.284 236.872M365.236 185.376V177.137" stroke="#3D5AA9" stroke-width="8.23937" stroke-linecap="round" stroke-linejoin="round"/>
<rect x="286.818" y="139.03" width="162.788" height="162.728" stroke="#BDB7B9" stroke-width="2.05984"/>
<rect x="450.636" y="218.334" width="120.94" height="4.11969" fill="#3F3A3B"/>
<rect x="588.055" y="127.701" width="158.608" height="158.608" fill="#3F3A3B"/>
<rect x="572.606" y="139.03" width="162.788" height="162.728" fill="white"/>
<rect width="131.891" height="131.83" transform="translate(588.055 154.479)" fill="#EBEBEB"/>
<path d="M633.402 203.915L616.923 220.394L633.402 236.873M674.598 203.915L691.077 220.394L674.598 236.873M662.239 187.436L645.761 253.351" stroke="#3D5AA9" stroke-width="8.23937" stroke-linecap="round" stroke-linejoin="round"/>
<rect x="572.606" y="139.03" width="162.788" height="162.728" stroke="#BDB7B9" stroke-width="2.05984"/>
<rect x="736.424" y="218.334" width="120.94" height="4.11969" fill="#3F3A3B"/>
<rect x="873.843" y="127.701" width="158.608" height="158.608" fill="#3F3A3B"/>
<rect x="858.394" y="139.03" width="162.788" height="162.728" fill="white"/>
<rect width="131.891" height="131.83" transform="translate(873.843 154.479)" fill="#EBEBEB"/>
<path d="M930.661 240.221H947.139L955.63 213.048C956.824 209.231 957.073 205.181 956.357 201.245C955.641 197.31 953.981 193.608 951.519 190.456L940.849 176.799C940.618 176.503 940.322 176.263 939.984 176.098C939.647 175.934 939.276 175.848 938.9 175.848C938.524 175.848 938.154 175.934 937.816 176.098C937.478 176.263 937.183 176.503 936.951 176.799L926.281 190.456C923.819 193.608 922.159 197.31 921.443 201.245C920.727 205.181 920.976 209.231 922.17 213.048L930.661 240.221ZM930.661 240.221L918.302 248.461C918.302 248.461 910.062 231.982 924.481 221.683M930.661 252.581C930.661 260.82 938.9 264.94 938.9 264.94C938.9 264.94 947.139 260.82 947.139 252.581M955.095 221.683C969.513 231.982 961.274 248.461 961.274 248.461L948.915 240.221" stroke="#3D5AA9" stroke-width="6.17953" stroke-linecap="round" stroke-linejoin="round"/>
<path d="M938.901 215.503C936.716 215.503 934.621 214.635 933.075 213.09C931.53 211.545 930.662 209.449 930.662 207.264C930.662 205.079 931.53 202.983 933.075 201.438C934.621 199.893 936.716 199.025 938.901 199.025C941.087 199.025 943.182 199.893 944.728 201.438C946.273 202.983 947.141 205.079 947.141 207.264C947.141 209.449 946.273 211.545 944.728 213.09C943.182 214.635 941.087 215.503 938.901 215.503Z" stroke="#3D5AA9" stroke-width="6.17953" stroke-linecap="round" stroke-linejoin="round"/>
<rect x="858.394" y="139.03" width="162.788" height="162.728" stroke="#BDB7B9" stroke-width="2.05984"/>
<rect x="1022.21" y="218.334" width="120.94" height="4.11969" fill="#3F3A3B"/>
<rect x="1159.63" y="127.701" width="158.608" height="158.608" fill="#3F3A3B"/>
<rect x="1144.18" y="139.03" width="162.788" height="162.728" fill="white"/>
<rect width="131.891" height="131.83" transform="translate(1159.63 154.479)" fill="#EBEBEB"/>
<path d="M1221.45 232.695C1221.45 233.788 1221.89 234.836 1222.66 235.608C1223.43 236.381 1224.48 236.815 1225.57 236.815C1226.67 236.815 1227.72 236.381 1228.49 235.608C1229.26 234.836 1229.69 233.788 1229.69 232.695V203.206L1243.05 216.567L1248.88 210.741L1225.57 187.436L1202.27 210.741L1208.09 216.567L1221.45 203.215V232.699V232.695Z" fill="#3D5AA9"/>
<path d="M1192.62 228.633H1200.86V245.112H1250.29V228.633H1258.53V245.112C1258.53 247.297 1257.67 249.393 1256.12 250.938C1254.57 252.483 1252.48 253.351 1250.29 253.351H1200.86C1198.67 253.351 1196.58 252.483 1195.03 250.938C1193.49 249.393 1192.62 247.297 1192.62 245.112V228.633Z" fill="#3D5AA9"/>
<rect x="1144.18" y="139.03" width="162.788" height="162.728" stroke="#BDB7B9" stroke-width="2.05984"/>
<rect x="920" width="58" height="58" fill="white"/>
<path fill-rule="evenodd" clip-rule="evenodd" d="M953.944 13.5309C954.652 12.823 955.8 12.823 956.508 13.5309L971.177 28.2C971.885 28.9079 971.885 30.0555 971.177 30.7633L956.508 45.4325C955.8 46.1403 954.652 46.1403 953.944 45.4325C953.236 44.7246 953.236 43.577 953.944 42.8692L965.519 31.294H928.812C927.811 31.294 927 30.4826 927 29.4815C927 28.4805 927.811 27.669 928.812 27.669H965.519L953.944 16.0941C953.236 15.3863 953.236 14.2387 953.944 13.5309Z" fill="#3D5AA9"/>
<rect x="920" y="383" width="58" height="58" fill="white"/>
<path fill-rule="evenodd" clip-rule="evenodd" d="M944.409 427.951C943.701 428.658 942.554 428.658 941.846 427.951L927.177 413.281C926.469 412.574 926.469 411.426 927.177 410.718L941.846 396.049C942.554 395.341 943.701 395.341 944.409 396.049C945.117 396.757 945.117 397.904 944.409 398.612L932.834 410.187L969.541 410.187C970.542 410.187 971.354 410.999 971.354 412C971.354 413.001 970.542 413.812 969.541 413.812L932.834 413.812L944.409 425.387C945.117 426.095 945.117 427.243 944.409 427.951Z" fill="#3D5AA9"/>
</svg>
