<svg width="70" height="69" viewBox="0 0 70 69" fill="none" xmlns="http://www.w3.org/2000/svg">
<path d="M63.1301 40.1351C63.9064 44.9363 62.5551 50.0826 58.4439 53.7051C55.5976 56.3213 51.8601 57.7588 47.9789 57.7301H16.0951C2.66887 56.7526 2.64012 37.2026 16.0951 36.2251H16.2389C9.94262 18.6013 26.3014 8.25135 38.6351 12.2188" stroke="#FF9900" stroke-width="4" stroke-miterlimit="10" stroke-linecap="round" stroke-linejoin="round"/>
<path d="M21.0405 37.4036C19.5455 36.6561 17.9068 36.2536 16.2393 36.2249" stroke="#FF9900" stroke-width="4" stroke-miterlimit="10" stroke-linecap="round" stroke-linejoin="round"/>
<path d="M63.3301 24.4375C63.3301 27.6 61.8638 30.4462 59.5351 32.2862C57.8388 33.6662 55.6251 34.5 53.2676 34.5C47.7188 34.5 43.2051 29.9862 43.2051 24.4375C43.2051 21.6775 44.3263 19.1762 46.1663 17.365V17.3363C47.9776 15.4963 50.5076 14.375 53.2676 14.375C58.8163 14.375 63.3301 18.8888 63.3301 24.4375Z" stroke="#FF9900" stroke-width="4" stroke-miterlimit="10" stroke-linecap="round" stroke-linejoin="round"/>
</svg>
