<svg width="70" height="69" viewBox="0 0 70 69" fill="none" xmlns="http://www.w3.org/2000/svg">
<path d="M34.999 43.125C39.7625 43.125 43.624 39.2635 43.624 34.5C43.624 29.7365 39.7625 25.875 34.999 25.875C30.2356 25.875 26.374 29.7365 26.374 34.5C26.374 39.2635 30.2356 43.125 34.999 43.125Z" stroke="#FF9900" stroke-width="4" stroke-miterlimit="10" stroke-linecap="round" stroke-linejoin="round"/>
<path d="M6.24902 37.0299V31.9699C6.24902 28.9799 8.69277 26.5074 11.7115 26.5074C16.9153 26.5074 19.0428 22.8274 16.4265 18.3136C14.9315 15.7261 15.8228 12.3624 18.439 10.8674L23.4128 8.02113C25.684 6.66988 28.6165 7.47488 29.9678 9.74613L30.284 10.2924C32.8715 14.8061 37.1265 14.8061 39.7428 10.2924L40.059 9.74613C41.4103 7.47488 44.3428 6.66988 46.614 8.02113L51.5878 10.8674C54.204 12.3624 55.0953 15.7261 53.6003 18.3136C50.984 22.8274 53.1115 26.5074 58.3153 26.5074C61.3053 26.5074 63.7778 28.9511 63.7778 31.9699V37.0299C63.7778 40.0199 61.334 42.4924 58.3153 42.4924C53.1115 42.4924 50.984 46.1724 53.6003 50.6861C55.0953 53.3024 54.204 56.6374 51.5878 58.1324L46.614 60.9786C44.3428 62.3299 41.4103 61.5249 40.059 59.2536L39.7428 58.7074C37.1553 54.1936 32.9003 54.1936 30.284 58.7074L29.9678 59.2536C28.6165 61.5249 25.684 62.3299 23.4128 60.9786L18.439 58.1324C15.8228 56.6374 14.9315 53.2736 16.4265 50.6861C19.0428 46.1724 16.9153 42.4924 11.7115 42.4924C8.69277 42.4924 6.24902 40.0199 6.24902 37.0299Z" stroke="#FF9900" stroke-width="4" stroke-miterlimit="10" stroke-linecap="round" stroke-linejoin="round"/>
</svg>
