<svg width="70" height="69" viewBox="0 0 70 69" fill="none" xmlns="http://www.w3.org/2000/svg">
<path d="M35.334 38.8125H13.7715C12.6277 38.8125 11.5308 38.3581 10.7221 37.5494C9.91334 36.7406 9.45898 35.6437 9.45898 34.5V12.9375C9.45898 11.7938 9.91334 10.6969 10.7221 9.8881C11.5308 9.07935 12.6277 8.625 13.7715 8.625H35.334C36.4777 8.625 37.5746 9.07935 38.3834 9.8881C39.1921 10.6969 39.6465 11.7938 39.6465 12.9375V34.5C39.6465 35.6437 39.1921 36.7406 38.3834 37.5494C37.5746 38.3581 36.4777 38.8125 35.334 38.8125ZM13.7715 12.9375V34.5H35.334V12.9375H13.7715ZM56.8965 25.875V34.5H48.2715V25.875H56.8965ZM56.8965 21.5625H48.2715C47.1277 21.5625 46.0308 22.0169 45.2221 22.8256C44.4133 23.6344 43.959 24.7313 43.959 25.875V34.5C43.959 35.6437 44.4133 36.7406 45.2221 37.5494C46.0308 38.3581 47.1277 38.8125 48.2715 38.8125H56.8965C58.0402 38.8125 59.1371 38.3581 59.9459 37.5494C60.7546 36.7406 61.209 35.6437 61.209 34.5V25.875C61.209 24.7313 60.7546 23.6344 59.9459 22.8256C59.1371 22.0169 58.0402 21.5625 56.8965 21.5625ZM56.8965 47.4375V56.0625H48.2715V47.4375H56.8965ZM56.8965 43.125H48.2715C47.1277 43.125 46.0308 43.5794 45.2221 44.3881C44.4133 45.1969 43.959 46.2938 43.959 47.4375V56.0625C43.959 57.2062 44.4133 58.3031 45.2221 59.1119C46.0308 59.9206 47.1277 60.375 48.2715 60.375H56.8965C58.0402 60.375 59.1371 59.9206 59.9459 59.1119C60.7546 58.3031 61.209 57.2062 61.209 56.0625V47.4375C61.209 46.2938 60.7546 45.1969 59.9459 44.3881C59.1371 43.5794 58.0402 43.125 56.8965 43.125ZM35.334 47.4375V56.0625H26.709V47.4375H35.334ZM35.334 43.125H26.709C25.5652 43.125 24.4683 43.5794 23.6596 44.3881C22.8508 45.1969 22.3965 46.2938 22.3965 47.4375V56.0625C22.3965 57.2062 22.8508 58.3031 23.6596 59.1119C24.4683 59.9206 25.5652 60.375 26.709 60.375H35.334C36.4777 60.375 37.5746 59.9206 38.3834 59.1119C39.1921 58.3031 39.6465 57.2062 39.6465 56.0625V47.4375C39.6465 46.2938 39.1921 45.1969 38.3834 44.3881C37.5746 43.5794 36.4777 43.125 35.334 43.125Z" fill="#FF9900"/>
</svg>
