<svg width="70" height="69" viewBox="0 0 70 69" fill="none" xmlns="http://www.w3.org/2000/svg">
<path d="M34.667 18.5151V28.0889" stroke="#FF9900" stroke-width="4" stroke-miterlimit="10" stroke-linecap="round"/>
<path d="M34.7243 5.75024C24.1443 5.75024 15.5768 14.3177 15.5768 24.8977V30.9352C15.5768 32.8902 14.7718 35.8227 13.7656 37.4902L10.1143 43.5852C7.87182 47.3515 9.42432 51.549 13.5643 52.929C27.3068 57.5002 42.1706 57.5002 55.9131 52.929C59.7943 51.6352 61.4618 47.0927 59.3631 43.5852L55.7118 37.4902C54.7056 35.8227 53.9006 32.8615 53.9006 30.9352V24.8977C53.8718 14.3752 45.2468 5.75024 34.7243 5.75024Z" stroke="#FF9900" stroke-width="4" stroke-miterlimit="10" stroke-linecap="round"/>
<path d="M44.2403 54.1079C44.2403 59.3692 39.9278 63.6817 34.6665 63.6817C32.0503 63.6817 29.6353 62.5892 27.9103 60.8642C26.1853 59.1392 25.0928 56.7242 25.0928 54.1079" stroke="#FF9900" stroke-width="4" stroke-miterlimit="10"/>
</svg>
