<svg width="70" height="69" viewBox="0 0 70 69" fill="none" xmlns="http://www.w3.org/2000/svg">
<path d="M60.875 36.6562V47.4375H9.125V12.9375H30.6875V8.625H9.125C7.98125 8.625 6.88435 9.07935 6.0756 9.8881C5.26685 10.6969 4.8125 11.7938 4.8125 12.9375V47.4375C4.8125 48.5812 5.26685 49.6781 6.0756 50.4869C6.88435 51.2956 7.98125 51.75 9.125 51.75H26.375V60.375H17.75V64.6875H52.25V60.375H43.625V51.75H60.875C62.0187 51.75 63.1156 51.2956 63.9244 50.4869C64.7331 49.6781 65.1875 48.5812 65.1875 47.4375V36.6562H60.875ZM39.3125 60.375H30.6875V51.75H39.3125V60.375Z" fill="#FF9900"/>
<path d="M65.1875 21.5625V17.25H60.6572C60.3791 15.9002 59.8432 14.6168 59.0788 13.4701L62.2917 10.2573L59.2427 7.20834L56.0299 10.4212C54.8832 9.65679 53.5998 9.12087 52.25 8.84278V4.3125H47.9375V8.84278C46.5877 9.12087 45.3043 9.65679 44.1576 10.4212L40.9448 7.20834L37.8958 10.2573L41.1087 13.4701C40.3443 14.6168 39.8084 15.9002 39.5303 17.25H35V21.5625H39.5303C39.8084 22.9123 40.3443 24.1957 41.1087 25.3424L37.8958 28.5552L40.9448 31.6042L44.1576 28.3913C45.3043 29.1557 46.5877 29.6916 47.9375 29.9697V34.5H52.25V29.9697C53.5998 29.6916 54.8832 29.1557 56.0299 28.3913L59.2427 31.6042L62.2917 28.5552L59.0788 25.3424C59.8432 24.1957 60.3791 22.9123 60.6572 21.5625H65.1875ZM50.0938 25.875C48.8144 25.875 47.5637 25.4956 46.4999 24.7848C45.4361 24.074 44.607 23.0637 44.1174 21.8817C43.6278 20.6997 43.4997 19.3991 43.7493 18.1443C43.9989 16.8894 44.615 15.7368 45.5197 14.8322C46.4243 13.9275 47.5769 13.3114 48.8318 13.0618C50.0866 12.8122 51.3872 12.9403 52.5692 13.4299C53.7512 13.9195 54.7615 14.7486 55.4723 15.8124C56.1831 16.8762 56.5625 18.1269 56.5625 19.4062C56.5608 21.1213 55.8787 22.7657 54.666 23.9785C53.4532 25.1912 51.8088 25.8733 50.0938 25.875Z" fill="#FF9900"/>
</svg>
