<svg width="70" height="69" viewBox="0 0 70 69" fill="none" xmlns="http://www.w3.org/2000/svg">
<path d="M56.8965 47.4375C55.361 47.4455 53.8562 47.8679 52.5409 48.6601L44.3191 40.4362C45.4905 38.678 46.1156 36.6126 46.1156 34.5C46.1156 32.3874 45.4905 30.322 44.3191 28.5638L49.8111 23.0719C51.2003 23.7411 52.7816 23.8969 54.2748 23.5119C55.768 23.1268 57.0768 22.2256 57.9692 20.968C58.8616 19.7104 59.28 18.1775 59.1505 16.6409C59.0209 15.1043 58.3516 13.6632 57.2612 12.5728C56.1708 11.4824 54.7297 10.8131 53.1931 10.6835C51.6565 10.554 50.1236 10.9724 48.866 11.8648C47.6084 12.7572 46.7072 14.0659 46.3221 15.5591C45.9371 17.0523 46.0929 18.6337 46.7621 20.0229L41.2701 25.5149C39.512 24.3435 37.4466 23.7184 35.334 23.7184C33.2214 23.7184 31.156 24.3435 29.3978 25.5149L21.1739 17.291C21.9657 15.9763 22.3881 14.4722 22.3965 12.9375C22.3965 11.2316 21.8906 9.56408 20.9429 8.14571C19.9952 6.72734 18.6481 5.62185 17.0721 4.96904C15.4961 4.31624 13.7619 4.14543 12.0888 4.47823C10.4157 4.81103 8.87892 5.63248 7.67269 6.83871C6.46646 8.04494 5.64501 9.58176 5.31222 11.2548C4.97942 12.9279 5.15022 14.6621 5.80303 16.2381C6.45583 17.8142 7.56132 19.1612 8.97969 20.1089C10.3981 21.0567 12.0656 21.5625 13.7715 21.5625C15.307 21.5545 16.8118 21.1321 18.1271 20.3399L26.3489 28.5638C25.1775 30.322 24.5524 32.3874 24.5524 34.5C24.5524 36.6126 25.1775 38.678 26.3489 40.4362L18.125 48.6601C16.8102 47.8683 15.3062 47.446 13.7715 47.4375C12.0656 47.4375 10.3981 47.9434 8.97969 48.8911C7.56132 49.8388 6.45583 51.1858 5.80303 52.7619C5.15022 54.3379 4.97942 56.0721 5.31222 57.7452C5.64501 59.4182 6.46646 60.9551 7.67269 62.1613C8.87892 63.3675 10.4157 64.189 12.0888 64.5218C13.7619 64.8546 15.4961 64.6838 17.0721 64.031C18.6481 63.3782 19.9952 62.2727 20.9429 60.8543C21.8906 59.4359 22.3965 57.7684 22.3965 56.0625C22.3885 54.527 21.9661 53.0222 21.1739 51.7069L29.3978 43.4851C30.5446 44.2494 31.828 44.7853 33.1777 45.0635V52.1468C31.7391 52.6554 30.5265 53.6563 29.7544 54.9725C28.9823 56.2887 28.7004 57.8355 28.9584 59.3394C29.2164 60.8434 29.9979 62.2077 31.1645 63.1913C32.3312 64.1748 33.808 64.7143 35.334 64.7143C36.8599 64.7143 38.3368 64.1748 39.5034 63.1913C40.6701 62.2077 41.4515 60.8434 41.7096 59.3394C41.9676 57.8355 41.6857 56.2887 40.9136 54.9725C40.1415 53.6563 38.9289 52.6554 37.4902 52.1468V45.0635C38.84 44.7853 40.1234 44.2494 41.2701 43.4851L49.4941 51.709C48.7022 53.0237 48.2799 54.5278 48.2715 56.0625C48.2715 57.7684 48.7773 59.4359 49.7251 60.8543C50.6728 62.2727 52.0198 63.3782 53.5958 64.031C55.1719 64.6838 56.9061 64.8546 58.5791 64.5218C60.2522 64.189 61.7891 63.3675 62.9953 62.1613C64.2015 60.9551 65.023 59.4182 65.3558 57.7452C65.6886 56.0721 65.5178 54.3379 64.865 52.7619C64.2121 51.1858 63.1067 49.8388 61.6883 48.8911C60.2699 47.9434 58.6024 47.4375 56.8965 47.4375ZM35.334 28.0313C36.6134 28.0313 37.8641 28.4106 38.9278 29.1214C39.9916 29.8322 40.8207 30.8425 41.3103 32.0245C41.7999 33.2065 41.928 34.5072 41.6784 35.762C41.4288 37.0168 40.8128 38.1694 39.9081 39.0741C39.0034 39.9788 37.8508 40.5949 36.596 40.8445C35.3412 41.0941 34.0405 40.966 32.8585 40.4764C31.6765 39.9867 30.6662 39.1576 29.9554 38.0938C29.2446 37.0301 28.8652 35.7794 28.8652 34.5C28.867 32.7849 29.549 31.1406 30.7618 29.9278C31.9745 28.715 33.6189 28.033 35.334 28.0313ZM9.45899 12.9375C9.45899 12.0846 9.71191 11.2508 10.1858 10.5416C10.6596 9.83242 11.3332 9.27968 12.1212 8.95327C12.9092 8.62687 13.7763 8.54147 14.6128 8.70787C15.4494 8.87427 16.2178 9.28499 16.8209 9.88811C17.424 10.4912 17.8347 11.2596 18.0011 12.0962C18.1675 12.9327 18.0821 13.7998 17.7557 14.5878C17.4293 15.3758 16.8766 16.0494 16.1674 16.5232C15.4582 16.9971 14.6244 17.25 13.7715 17.25C12.6281 17.2489 11.5319 16.7941 10.7234 15.9856C9.91485 15.1771 9.46013 14.0809 9.45899 12.9375ZM13.7715 60.375C12.9186 60.375 12.0848 60.1221 11.3756 59.6482C10.6664 59.1744 10.1137 58.5008 9.78726 57.7128C9.46085 56.9248 9.37545 56.0577 9.54185 55.2212C9.70825 54.3846 10.119 53.6162 10.7221 53.0131C11.3252 52.41 12.0936 51.9993 12.9302 51.8329C13.7667 51.6665 14.6338 51.7519 15.4218 52.0783C16.2098 52.4047 16.8833 52.9574 17.3572 53.6666C17.8311 54.3758 18.084 55.2096 18.084 56.0625C18.0828 57.2059 17.6281 58.3021 16.8196 59.1106C16.0111 59.9191 14.9149 60.3739 13.7715 60.375ZM56.8965 60.375C56.0436 60.375 55.2098 60.1221 54.5006 59.6482C53.7914 59.1744 53.2387 58.5008 52.9123 57.7128C52.5859 56.9248 52.5005 56.0577 52.6669 55.2212C52.8333 54.3846 53.244 53.6162 53.8471 53.0131C54.4502 52.41 55.2186 51.9993 56.0552 51.8329C56.8917 51.6665 57.7588 51.7519 58.5468 52.0783C59.3348 52.4047 60.0083 52.9574 60.4822 53.6666C60.9561 54.3758 61.209 55.2096 61.209 56.0625C61.2073 57.2057 60.7524 58.3016 59.944 59.11C59.1356 59.9184 58.0397 60.3733 56.8965 60.375Z" fill="#FF9900"/>
</svg>
