<svg width="70" height="69" viewBox="0 0 70 69" fill="none" xmlns="http://www.w3.org/2000/svg">
<path d="M34.6665 18.515V28.0888" stroke="#68A703" stroke-width="4" stroke-miterlimit="10" stroke-linecap="round"/>
<path d="M34.7238 5.74988C24.1438 5.74988 15.5763 14.3174 15.5763 24.8974V30.9349C15.5763 32.8899 14.7713 35.8224 13.7651 37.4899L10.1138 43.5849C7.87133 47.3511 9.42383 51.5486 13.5638 52.9286C27.3063 57.4999 42.1701 57.4999 55.9126 52.9286C59.7938 51.6349 61.4613 47.0924 59.3626 43.5849L55.7113 37.4899C54.7051 35.8224 53.9001 32.8611 53.9001 30.9349V24.8974C53.8713 14.3749 45.2463 5.74988 34.7238 5.74988Z" stroke="#68A703" stroke-width="4" stroke-miterlimit="10" stroke-linecap="round"/>
<path d="M44.2398 54.1074C44.2398 59.3687 39.9273 63.6812 34.666 63.6812C32.0498 63.6812 29.6348 62.5887 27.9098 60.8637C26.1848 59.1387 25.0923 56.7237 25.0923 54.1074" stroke="#68A703" stroke-width="4" stroke-miterlimit="10"/>
</svg>
