<svg width="70" height="69" viewBox="0 0 70 69" fill="none" xmlns="http://www.w3.org/2000/svg">
<path d="M63.1291 40.1351C63.9054 44.9363 62.5541 50.0826 58.4429 53.7051C55.5966 56.3213 51.8591 57.7588 47.9779 57.7301H16.0941C2.66789 56.7526 2.63914 37.2026 16.0941 36.2251H16.2379C9.94164 18.6013 26.3004 8.25135 38.6341 12.2188" stroke="#68A703" stroke-width="4" stroke-miterlimit="10" stroke-linecap="round" stroke-linejoin="round"/>
<path d="M21.0386 37.4041C19.5436 36.6566 17.9048 36.2541 16.2373 36.2253" stroke="#68A703" stroke-width="4" stroke-miterlimit="10" stroke-linecap="round" stroke-linejoin="round"/>
<path d="M63.3301 24.4377C63.3301 27.6002 61.8638 30.4465 59.5351 32.2865C57.8388 33.6665 55.6251 34.5002 53.2676 34.5002C47.7188 34.5002 43.2051 29.9865 43.2051 24.4377C43.2051 21.6777 44.3263 19.1765 46.1663 17.3652V17.3365C47.9776 15.4965 50.5076 14.3752 53.2676 14.3752C58.8163 14.3752 63.3301 18.889 63.3301 24.4377Z" stroke="#68A703" stroke-width="4" stroke-miterlimit="10" stroke-linecap="round" stroke-linejoin="round"/>
</svg>
