<svg width="70" height="69" viewBox="0 0 70 69" fill="none" xmlns="http://www.w3.org/2000/svg">
<path d="M34.999 43.125C39.7625 43.125 43.624 39.2635 43.624 34.5C43.624 29.7365 39.7625 25.875 34.999 25.875C30.2356 25.875 26.374 29.7365 26.374 34.5C26.374 39.2635 30.2356 43.125 34.999 43.125Z" stroke="#68A703" stroke-width="4" stroke-miterlimit="10" stroke-linecap="round" stroke-linejoin="round"/>
<path d="M6.24902 37.0304V31.9704C6.24902 28.9804 8.69277 26.5079 11.7115 26.5079C16.9153 26.5079 19.0428 22.8279 16.4265 18.3141C14.9315 15.7266 15.8228 12.3629 18.439 10.8679L23.4128 8.02162C25.684 6.67037 28.6165 7.47537 29.9678 9.74662L30.284 10.2929C32.8715 14.8066 37.1265 14.8066 39.7428 10.2929L40.059 9.74662C41.4103 7.47537 44.3428 6.67037 46.614 8.02162L51.5878 10.8679C54.204 12.3629 55.0953 15.7266 53.6003 18.3141C50.984 22.8279 53.1115 26.5079 58.3153 26.5079C61.3053 26.5079 63.7778 28.9516 63.7778 31.9704V37.0304C63.7778 40.0204 61.334 42.4929 58.3153 42.4929C53.1115 42.4929 50.984 46.1729 53.6003 50.6866C55.0953 53.3029 54.204 56.6379 51.5878 58.1329L46.614 60.9791C44.3428 62.3304 41.4103 61.5254 40.059 59.2541L39.7428 58.7079C37.1553 54.1941 32.9003 54.1941 30.284 58.7079L29.9678 59.2541C28.6165 61.5254 25.684 62.3304 23.4128 60.9791L18.439 58.1329C15.8228 56.6379 14.9315 53.2741 16.4265 50.6866C19.0428 46.1729 16.9153 42.4929 11.7115 42.4929C8.69277 42.4929 6.24902 40.0204 6.24902 37.0304Z" stroke="#68A703" stroke-width="4" stroke-miterlimit="10" stroke-linecap="round" stroke-linejoin="round"/>
</svg>
