<svg width="130" height="122" viewBox="0 0 130 122" fill="none" xmlns="http://www.w3.org/2000/svg">
<g filter="url(#filter0_d_2517_1438)">
<path d="M7.0336 65.9651C5.25974 62.8927 5.25974 59.1073 7.0336 56.0349L31.8004 13.1376C33.5742 10.0651 36.8525 8.17245 40.4002 8.17245L89.9338 8.17245C93.4815 8.17245 96.7597 10.0651 98.5336 13.1376L123.3 56.0349C125.074 59.1073 125.074 62.8927 123.3 65.9651L98.5336 108.862C96.7597 111.935 93.4815 113.828 89.9338 113.828L40.4002 113.828C36.8525 113.828 33.5742 111.935 31.8004 108.862L7.0336 65.9651Z" fill="white"/>
</g>
<path d="M96.169 17.7056L118.571 56.5077C120.345 59.5801 120.345 63.3655 118.571 66.438L96.169 105.24C94.3952 108.313 91.1169 110.205 87.5692 110.205H42.7643C39.2166 110.205 35.9383 108.313 34.1645 105.24L11.762 66.438C9.98817 63.3655 9.98817 59.5801 11.762 56.5077L34.1645 17.7056" stroke="#231F20" stroke-width="0.472868"/>
<path d="M17.3738 56.7443L37.1754 22.4468C38.8648 19.5207 41.987 17.7181 45.3658 17.7181L84.9691 17.7181C88.3479 17.7181 91.47 19.5207 93.1594 22.4468L112.961 56.7443C114.65 59.6704 114.65 63.2755 112.961 66.2016L93.1594 100.499C91.47 103.425 88.3479 105.228 84.9691 105.228L45.3658 105.228C41.987 105.228 38.8648 103.425 37.1754 100.499L17.3738 66.2016C15.6844 63.2755 15.6844 59.6704 17.3738 56.7443Z" stroke="#3D5AA9" stroke-width="0.945736"/>
<path d="M55.5182 84.294H74.3426C83.8018 84.294 85.496 80.5056 85.9901 75.8936L87.7549 57.0693C88.3903 51.3278 86.7431 46.6453 76.6956 46.6453H53.1652C43.1177 46.6453 41.4705 51.3278 42.1059 57.0693L43.8707 75.8936C44.3648 80.5056 46.059 84.294 55.5182 84.294Z" stroke="#3D5AA9" stroke-width="3.48599" stroke-miterlimit="10" stroke-linecap="round" stroke-linejoin="round"/>
<path d="M55.5186 46.6453V44.7629C55.5186 40.598 55.5186 37.2332 63.0483 37.2332H66.8132C74.3429 37.2332 74.3429 40.598 74.3429 44.7629V46.6453" stroke="#3D5AA9" stroke-width="3.48599" stroke-miterlimit="10" stroke-linecap="round" stroke-linejoin="round"/>
<path d="M69.6368 63.1167V65.4698C69.6368 65.4933 69.6368 65.4933 69.6368 65.5168C69.6368 68.0816 69.6133 70.1758 64.9307 70.1758C60.2717 70.1758 60.2246 68.1052 60.2246 65.5404V63.1167C60.2246 60.7637 60.2246 60.7637 62.5777 60.7637H67.2837C69.6368 60.7637 69.6368 60.7637 69.6368 63.1167Z" stroke="#3D5AA9" stroke-width="3.48599" stroke-miterlimit="10" stroke-linecap="round" stroke-linejoin="round"/>
<path d="M87.6375 58.4106C82.202 62.3638 75.9899 64.7168 69.6367 65.5168" stroke="#3D5AA9" stroke-width="3.48599" stroke-miterlimit="10" stroke-linecap="round" stroke-linejoin="round"/>
<path d="M42.8594 59.0459C48.1537 62.6696 54.1305 64.8579 60.2248 65.5403" stroke="#3D5AA9" stroke-width="3.48599" stroke-miterlimit="10" stroke-linecap="round" stroke-linejoin="round"/>
<defs>
<filter id="filter0_d_2517_1438" x="0.501575" y="2.97081" width="129.331" height="116.058" filterUnits="userSpaceOnUse" color-interpolation-filters="sRGB">
<feFlood flood-opacity="0" result="BackgroundImageFix"/>
<feColorMatrix in="SourceAlpha" type="matrix" values="0 0 0 0 0 0 0 0 0 0 0 0 0 0 0 0 0 0 127 0" result="hardAlpha"/>
<feOffset/>
<feGaussianBlur stdDeviation="2.60078"/>
<feComposite in2="hardAlpha" operator="out"/>
<feColorMatrix type="matrix" values="0 0 0 0 0 0 0 0 0 0 0 0 0 0 0 0 0 0 0.12 0"/>
<feBlend mode="normal" in2="BackgroundImageFix" result="effect1_dropShadow_2517_1438"/>
<feBlend mode="normal" in="SourceGraphic" in2="effect1_dropShadow_2517_1438" result="shape"/>
</filter>
</defs>
</svg>
