<svg width="130" height="122" viewBox="0 0 130 122" fill="none" xmlns="http://www.w3.org/2000/svg">
<g filter="url(#filter0_d_2517_1447)">
<path d="M7.19962 65.9651C5.42575 62.8927 5.42575 59.1073 7.19962 56.0349L31.9664 13.1376C33.7403 10.0651 37.0185 8.17245 40.5662 8.17245L90.0998 8.17245C93.6475 8.17245 96.9257 10.0651 98.6996 13.1376L123.466 56.0349C125.24 59.1073 125.24 62.8927 123.466 65.9651L98.6996 108.862C96.9258 111.935 93.6475 113.828 90.0998 113.828L40.5662 113.828C37.0185 113.828 33.7403 111.935 31.9664 108.862L7.19962 65.9651Z" fill="white"/>
</g>
<path d="M83.6667 68.6666C86.244 68.6666 88.3333 66.5772 88.3333 63.9999C88.3333 61.4226 86.244 59.3333 83.6667 59.3333C81.0893 59.3333 79 61.4226 79 63.9999C79 66.5772 81.0893 68.6666 83.6667 68.6666Z" stroke="#3D5AA9" stroke-width="5" stroke-linecap="round" stroke-linejoin="round"/>
<path d="M83.6667 50.0001C86.244 50.0001 88.3333 47.9107 88.3333 45.3334C88.3333 42.7561 86.244 40.6667 83.6667 40.6667C81.0893 40.6667 79 42.7561 79 45.3334C79 47.9107 81.0893 50.0001 83.6667 50.0001Z" stroke="#3D5AA9" stroke-width="5" stroke-linecap="round" stroke-linejoin="round"/>
<path d="M83.6667 87.3333C86.244 87.3333 88.3333 85.244 88.3333 82.6667C88.3333 80.0893 86.244 78 83.6667 78C81.0893 78 79 80.0893 79 82.6667C79 85.244 81.0893 87.3333 83.6667 87.3333Z" stroke="#3D5AA9" stroke-width="5" stroke-linecap="round" stroke-linejoin="round"/>
<path d="M46.3337 68.6666C48.911 68.6666 51.0003 66.5772 51.0003 63.9999C51.0003 61.4226 48.911 59.3333 46.3337 59.3333C43.7563 59.3333 41.667 61.4226 41.667 63.9999C41.667 66.5772 43.7563 68.6666 46.3337 68.6666Z" stroke="#3D5AA9" stroke-width="5" stroke-linecap="round" stroke-linejoin="round"/>
<path d="M51 64H79" stroke="#3D5AA9" stroke-width="5" stroke-linecap="round" stroke-linejoin="round"/>
<path d="M79.0003 45.3333H69.667C65.0003 45.3333 62.667 47.6666 62.667 52.3333V75.6666C62.667 80.3333 65.0003 82.6666 69.667 82.6666H79.0003" stroke="#3D5AA9" stroke-width="5" stroke-linecap="round" stroke-linejoin="round"/>
<path d="M96.335 17.7056L118.737 56.5077C120.511 59.5801 120.511 63.3655 118.737 66.438L96.335 105.24C94.5612 108.313 91.2829 110.205 87.7352 110.205H42.9303C39.3826 110.205 36.1044 108.313 34.3305 105.24L11.9281 66.438C10.1542 63.3655 10.1542 59.5801 11.9281 56.5077L34.3305 17.7056" stroke="#231F20" stroke-width="0.472868"/>
<path d="M17.5398 56.7443L37.3415 22.4468C39.0308 19.5207 42.153 17.7181 45.5318 17.7181L85.1351 17.7181C88.5139 17.7181 91.636 19.5207 93.3254 22.4468L113.127 56.7443C114.816 59.6704 114.816 63.2755 113.127 66.2016L93.3254 100.499C91.636 103.425 88.5139 105.228 85.1351 105.228L45.5318 105.228C42.153 105.228 39.0309 103.425 37.3415 100.499L17.5398 66.2016C15.8504 63.2755 15.8504 59.6704 17.5398 56.7443Z" stroke="#3D5AA9" stroke-width="0.945736"/>
<defs>
<filter id="filter0_d_2517_1447" x="0.66759" y="2.97081" width="129.331" height="116.058" filterUnits="userSpaceOnUse" color-interpolation-filters="sRGB">
<feFlood flood-opacity="0" result="BackgroundImageFix"/>
<feColorMatrix in="SourceAlpha" type="matrix" values="0 0 0 0 0 0 0 0 0 0 0 0 0 0 0 0 0 0 127 0" result="hardAlpha"/>
<feOffset/>
<feGaussianBlur stdDeviation="2.60078"/>
<feComposite in2="hardAlpha" operator="out"/>
<feColorMatrix type="matrix" values="0 0 0 0 0 0 0 0 0 0 0 0 0 0 0 0 0 0 0.12 0"/>
<feBlend mode="normal" in2="BackgroundImageFix" result="effect1_dropShadow_2517_1447"/>
<feBlend mode="normal" in="SourceGraphic" in2="effect1_dropShadow_2517_1447" result="shape"/>
</filter>
</defs>
</svg>
