<svg width="130" height="122" viewBox="0 0 130 122" fill="none" xmlns="http://www.w3.org/2000/svg">
<g filter="url(#filter0_d_2517_1456)">
<path d="M6.5336 65.9651C4.75974 62.8927 4.75974 59.1073 6.5336 56.0349L31.3004 13.1376C33.0742 10.0651 36.3525 8.17245 39.9002 8.17245L89.4338 8.17245C92.9815 8.17245 96.2597 10.0651 98.0336 13.1376L122.8 56.0349C124.574 59.1073 124.574 62.8927 122.8 65.9651L98.0336 108.862C96.2597 111.935 92.9815 113.828 89.4338 113.828L39.9002 113.828C36.3525 113.828 33.0742 111.935 31.3004 108.862L6.5336 65.9651Z" fill="white"/>
</g>
<path d="M82.6667 68.6666C85.244 68.6666 87.3333 66.5772 87.3333 63.9999C87.3333 61.4226 85.244 59.3333 82.6667 59.3333C80.0893 59.3333 78 61.4226 78 63.9999C78 66.5772 80.0893 68.6666 82.6667 68.6666Z" stroke="#3D5AA9" stroke-width="5" stroke-linecap="round" stroke-linejoin="round"/>
<path d="M82.6667 50.0001C85.244 50.0001 87.3333 47.9107 87.3333 45.3334C87.3333 42.7561 85.244 40.6667 82.6667 40.6667C80.0893 40.6667 78 42.7561 78 45.3334C78 47.9107 80.0893 50.0001 82.6667 50.0001Z" stroke="#3D5AA9" stroke-width="5" stroke-linecap="round" stroke-linejoin="round"/>
<path d="M82.6667 87.3333C85.244 87.3333 87.3333 85.244 87.3333 82.6667C87.3333 80.0893 85.244 78 82.6667 78C80.0893 78 78 80.0893 78 82.6667C78 85.244 80.0893 87.3333 82.6667 87.3333Z" stroke="#3D5AA9" stroke-width="5" stroke-linecap="round" stroke-linejoin="round"/>
<path d="M45.3337 68.6666C47.911 68.6666 50.0003 66.5772 50.0003 63.9999C50.0003 61.4226 47.911 59.3333 45.3337 59.3333C42.7563 59.3333 40.667 61.4226 40.667 63.9999C40.667 66.5772 42.7563 68.6666 45.3337 68.6666Z" stroke="#3D5AA9" stroke-width="5" stroke-linecap="round" stroke-linejoin="round"/>
<path d="M50 64H78" stroke="#3D5AA9" stroke-width="5" stroke-linecap="round" stroke-linejoin="round"/>
<path d="M78.0003 45.3333H68.667C64.0003 45.3333 61.667 47.6666 61.667 52.3333V75.6666C61.667 80.3333 64.0003 82.6666 68.667 82.6666H78.0003" stroke="#3D5AA9" stroke-width="5" stroke-linecap="round" stroke-linejoin="round"/>
<path d="M95.669 17.7056L118.071 56.5077C119.845 59.5801 119.845 63.3655 118.071 66.438L95.669 105.24C93.8952 108.313 90.6169 110.205 87.0692 110.205H42.2643C38.7166 110.205 35.4383 108.313 33.6645 105.24L11.262 66.438C9.48817 63.3655 9.48817 59.5801 11.262 56.5077L33.6645 17.7056" stroke="#231F20" stroke-width="0.472868"/>
<path d="M16.8738 56.7443L36.6754 22.4468C38.3648 19.5207 41.487 17.7181 44.8658 17.7181L84.4691 17.7181C87.8479 17.7181 90.97 19.5207 92.6594 22.4468L112.461 56.7443C114.15 59.6704 114.15 63.2755 112.461 66.2016L92.6594 100.499C90.97 103.425 87.8479 105.228 84.4691 105.228L44.8658 105.228C41.487 105.228 38.3648 103.425 36.6754 100.499L16.8738 66.2016C15.1844 63.2755 15.1844 59.6704 16.8738 56.7443Z" stroke="#3D5AA9" stroke-width="0.945736"/>
<defs>
<filter id="filter0_d_2517_1456" x="0.00157452" y="2.97081" width="129.331" height="116.058" filterUnits="userSpaceOnUse" color-interpolation-filters="sRGB">
<feFlood flood-opacity="0" result="BackgroundImageFix"/>
<feColorMatrix in="SourceAlpha" type="matrix" values="0 0 0 0 0 0 0 0 0 0 0 0 0 0 0 0 0 0 127 0" result="hardAlpha"/>
<feOffset/>
<feGaussianBlur stdDeviation="2.60078"/>
<feComposite in2="hardAlpha" operator="out"/>
<feColorMatrix type="matrix" values="0 0 0 0 0 0 0 0 0 0 0 0 0 0 0 0 0 0 0.12 0"/>
<feBlend mode="normal" in2="BackgroundImageFix" result="effect1_dropShadow_2517_1456"/>
<feBlend mode="normal" in="SourceGraphic" in2="effect1_dropShadow_2517_1456" result="shape"/>
</filter>
</defs>
</svg>
