<svg width="130" height="122" viewBox="0 0 130 122" fill="none" xmlns="http://www.w3.org/2000/svg">
<g filter="url(#filter0_d_2517_1475)">
<path d="M7.19962 65.9651C5.42575 62.8927 5.42575 59.1073 7.19962 56.0349L31.9664 13.1376C33.7403 10.0651 37.0185 8.17245 40.5662 8.17245L90.0998 8.17245C93.6475 8.17245 96.9257 10.0651 98.6996 13.1376L123.466 56.0349C125.24 59.1073 125.24 62.8927 123.466 65.9651L98.6996 108.862C96.9258 111.935 93.6475 113.828 90.0998 113.828L40.5662 113.828C37.0185 113.828 33.7403 111.935 31.9664 108.862L7.19962 65.9651Z" fill="white"/>
</g>
<path d="M65 68C68.866 68 72 64.866 72 61C72 57.134 68.866 54 65 54C61.134 54 58 57.134 58 61C58 64.866 61.134 68 65 68Z" stroke="#3D5AA9" stroke-width="5" stroke-miterlimit="10" stroke-linecap="round" stroke-linejoin="round"/>
<path d="M41.667 63.0533V58.9466C41.667 56.5199 43.6503 54.5133 46.1003 54.5133C50.3237 54.5133 52.0503 51.5266 49.927 47.8633C48.7137 45.7633 49.437 43.0333 51.5603 41.8199L55.597 39.5099C57.4403 38.4133 59.8203 39.0666 60.917 40.9099L61.1737 41.3533C63.2737 45.0166 66.727 45.0166 68.8503 41.3533L69.107 40.9099C70.2037 39.0666 72.5837 38.4133 74.427 39.5099L78.4637 41.8199C80.587 43.0333 81.3103 45.7633 80.097 47.8633C77.9737 51.5266 79.7003 54.5133 83.9237 54.5133C86.3503 54.5133 88.357 56.4966 88.357 58.9466V63.0533C88.357 65.4799 86.3737 67.4866 83.9237 67.4866C79.7003 67.4866 77.9737 70.4733 80.097 74.1366C81.3103 76.2599 80.587 78.9666 78.4637 80.1799L74.427 82.4899C72.5837 83.5866 70.2037 82.9333 69.107 81.0899L68.8503 80.6466C66.7503 76.9833 63.297 76.9833 61.1737 80.6466L60.917 81.0899C59.8203 82.9333 57.4403 83.5866 55.597 82.4899L51.5603 80.1799C49.437 78.9666 48.7137 76.2366 49.927 74.1366C52.0503 70.4733 50.3237 67.4866 46.1003 67.4866C43.6503 67.4866 41.667 65.4799 41.667 63.0533Z" stroke="#3D5AA9" stroke-width="5" stroke-miterlimit="10" stroke-linecap="round" stroke-linejoin="round"/>
<path d="M96.335 17.7056L118.737 56.5077C120.511 59.5801 120.511 63.3655 118.737 66.438L96.335 105.24C94.5612 108.313 91.2829 110.205 87.7352 110.205H42.9303C39.3826 110.205 36.1044 108.313 34.3305 105.24L11.9281 66.438C10.1542 63.3655 10.1542 59.5801 11.9281 56.5077L34.3305 17.7056" stroke="#231F20" stroke-width="0.472868"/>
<path d="M17.5398 56.7443L37.3415 22.4468C39.0308 19.5207 42.153 17.7181 45.5318 17.7181L85.1351 17.7181C88.5139 17.7181 91.636 19.5207 93.3254 22.4468L113.127 56.7443C114.816 59.6704 114.816 63.2755 113.127 66.2016L93.3254 100.499C91.636 103.425 88.5139 105.228 85.1351 105.228L45.5318 105.228C42.153 105.228 39.0309 103.425 37.3415 100.499L17.5398 66.2016C15.8504 63.2755 15.8504 59.6704 17.5398 56.7443Z" stroke="#3D5AA9" stroke-width="0.945736"/>
<defs>
<filter id="filter0_d_2517_1475" x="0.66759" y="2.97081" width="129.331" height="116.058" filterUnits="userSpaceOnUse" color-interpolation-filters="sRGB">
<feFlood flood-opacity="0" result="BackgroundImageFix"/>
<feColorMatrix in="SourceAlpha" type="matrix" values="0 0 0 0 0 0 0 0 0 0 0 0 0 0 0 0 0 0 127 0" result="hardAlpha"/>
<feOffset/>
<feGaussianBlur stdDeviation="2.60078"/>
<feComposite in2="hardAlpha" operator="out"/>
<feColorMatrix type="matrix" values="0 0 0 0 0 0 0 0 0 0 0 0 0 0 0 0 0 0 0.12 0"/>
<feBlend mode="normal" in2="BackgroundImageFix" result="effect1_dropShadow_2517_1475"/>
<feBlend mode="normal" in="SourceGraphic" in2="effect1_dropShadow_2517_1475" result="shape"/>
</filter>
</defs>
</svg>
