<svg width="130" height="122" viewBox="0 0 130 122" fill="none" xmlns="http://www.w3.org/2000/svg">
<g filter="url(#filter0_d_2517_1484)">
<path d="M6.5336 65.9651C4.75974 62.8927 4.75974 59.1073 6.5336 56.0349L31.3004 13.1376C33.0742 10.0651 36.3525 8.17245 39.9002 8.17245L89.4338 8.17245C92.9815 8.17245 96.2597 10.0651 98.0336 13.1376L122.8 56.0349C124.574 59.1073 124.574 62.8927 122.8 65.9651L98.0336 108.862C96.2597 111.935 92.9815 113.828 89.4338 113.828L39.9002 113.828C36.3525 113.828 33.0742 111.935 31.3004 108.862L6.5336 65.9651Z" fill="white"/>
</g>
<path d="M44.1401 81.856C48.9685 81.5899 51.8137 79.907 53.464 78.2668C55.1576 76.5835 55.6164 74.9212 55.6459 74.8083C55.7328 74.4725 55.9493 74.185 56.2481 74.0088C56.5471 73.8324 56.9039 73.7821 57.24 73.8688C57.576 73.9556 57.8639 74.1723 58.0402 74.4713C58.2166 74.7702 58.2669 75.127 58.1801 75.4631L58.1597 75.5424L58.1514 75.5507C58.0192 76.0251 57.344 78.1114 55.2921 80.1548C53.0625 82.3751 49.2333 84.5183 42.7886 84.5183C42.4416 84.5183 42.1088 84.3805 41.8635 84.1351C41.6181 83.8897 41.4803 83.557 41.4803 83.21C41.4803 76.7662 43.6254 72.9369 45.8465 70.7069C48.0563 68.4883 50.3151 67.8786 50.5287 67.8251C50.8648 67.7388 51.2215 67.7893 51.5204 67.9657C51.8196 68.1423 52.0364 68.4305 52.1231 68.767C52.2098 69.1034 52.1593 69.4605 51.9827 69.7597C51.8062 70.0588 51.5181 70.2756 51.1818 70.3624L44.1401 81.856ZM44.1401 81.856C44.4062 77.0325 46.0895 74.1897 47.7294 72.5408C49.4107 70.8502 51.0701 70.3914 51.1815 70.3625L44.1401 81.856ZM81.8186 58.1415L81.8173 58.1428L80.3939 59.5521V74.5505V74.5513H80.0939C80.0949 74.9486 80.017 75.3421 79.8647 75.7091L81.8186 58.1415ZM81.8186 58.1415C88.3285 51.6186 88.6053 43.7586 88.4241 40.6853L88.424 40.684C88.373 39.8762 88.0291 39.1148 87.4568 38.5425C86.8845 37.9702 86.1231 37.6263 85.3154 37.5753L85.3141 37.5752C82.2384 37.3939 74.3785 37.6709 67.8558 44.1937L66.4465 45.6032H51.4474M81.8186 58.1415L79.4179 76.9018C79.4179 76.9018 79.4179 76.9019 79.4179 76.9019L70.763 85.5596C70.763 85.5596 70.763 85.5596 70.763 85.5597C70.3264 85.9967 69.7767 86.3034 69.1756 86.4455C68.5744 86.5876 67.9455 86.5594 67.3595 86.364C66.7734 86.1687 66.2534 85.8139 65.8577 85.3395C65.462 84.8651 65.2063 84.2899 65.1193 83.6783L65.1191 83.6774L63.7341 73.742L52.2562 62.2611L42.3262 60.876L42.3258 60.876C41.7137 60.7898 41.1378 60.5347 40.6628 60.1393C40.1877 59.7439 39.8322 59.224 39.6362 58.6378C39.4402 58.0516 39.4115 57.4223 39.5533 56.8207C39.6951 56.2191 40.0018 55.6689 40.439 55.232L49.0967 46.5765C49.0969 46.5763 49.097 46.5761 49.0972 46.5759C49.4051 46.2664 49.7713 46.021 50.1747 45.854C50.5782 45.687 51.0108 45.6018 51.4474 45.6032M51.4474 45.6032C51.4476 45.6032 51.4478 45.6032 51.448 45.6032L51.4469 45.9032V45.6032H51.4474ZM50.9482 48.4294L50.9489 48.4287C51.081 48.2958 51.2603 48.2207 51.4476 48.2198H63.8299L52.4067 59.641L42.6899 58.2855C42.6898 58.2855 42.6896 58.2854 42.6895 58.2854C42.5594 58.2667 42.4371 58.2122 42.3362 58.128C42.2353 58.0436 42.1598 57.9329 42.1182 57.808C42.0767 57.6832 42.0707 57.5492 42.101 57.4212C42.1313 57.2932 42.1967 57.1761 42.2897 57.0832L42.2898 57.0831L50.9482 48.4294ZM68.912 83.7087L68.9117 83.709C68.8189 83.802 68.702 83.8674 68.5741 83.8978C68.4462 83.9282 68.3124 83.9224 68.1876 83.881C68.0628 83.8397 67.952 83.7644 67.8676 83.6637C67.7833 83.5631 67.7286 83.4412 67.7096 83.3114C67.7096 83.3111 67.7095 83.3108 67.7095 83.3105L66.3541 73.5915L77.7774 62.1678V74.5513V74.5515C77.7775 74.6446 77.7592 74.7367 77.7237 74.8227C77.6881 74.9087 77.636 74.9868 77.5703 75.0526C77.5702 75.0526 77.5702 75.0526 77.5702 75.0526L68.912 83.7087ZM79.9523 56.2933L64.9701 71.2761L54.722 61.0275L69.7018 46.0422L69.7018 46.0421C75.4672 40.2715 82.4209 40.0241 85.1553 40.1857L85.1566 40.1858C85.3265 40.195 85.487 40.2667 85.6073 40.387C85.7276 40.5073 85.7993 40.6678 85.8086 40.8377L85.8086 40.8392C85.9702 43.5633 85.7203 50.5225 79.9523 56.2933C79.9523 56.2933 79.9523 56.2933 79.9523 56.2933Z" fill="#3D5AA9" stroke="#3D5AA9" stroke-width="0.6"/>
<path d="M95.669 17.7056L118.071 56.5077C119.845 59.5801 119.845 63.3655 118.071 66.438L95.669 105.24C93.8952 108.313 90.6169 110.205 87.0692 110.205H42.2643C38.7166 110.205 35.4383 108.313 33.6645 105.24L11.262 66.438C9.48817 63.3655 9.48817 59.5801 11.262 56.5077L33.6645 17.7056" stroke="#231F20" stroke-width="0.472868"/>
<path d="M16.8738 56.7443L36.6754 22.4468C38.3648 19.5207 41.487 17.7181 44.8658 17.7181L84.4691 17.7181C87.8479 17.7181 90.97 19.5207 92.6594 22.4468L112.461 56.7443C114.15 59.6704 114.15 63.2755 112.461 66.2016L92.6594 100.499C90.97 103.425 87.8479 105.228 84.4691 105.228L44.8658 105.228C41.487 105.228 38.3648 103.425 36.6754 100.499L16.8738 66.2016C15.1844 63.2755 15.1844 59.6704 16.8738 56.7443Z" stroke="#3D5AA9" stroke-width="0.945736"/>
<defs>
<filter id="filter0_d_2517_1484" x="0.00157452" y="2.97081" width="129.331" height="116.058" filterUnits="userSpaceOnUse" color-interpolation-filters="sRGB">
<feFlood flood-opacity="0" result="BackgroundImageFix"/>
<feColorMatrix in="SourceAlpha" type="matrix" values="0 0 0 0 0 0 0 0 0 0 0 0 0 0 0 0 0 0 127 0" result="hardAlpha"/>
<feOffset/>
<feGaussianBlur stdDeviation="2.60078"/>
<feComposite in2="hardAlpha" operator="out"/>
<feColorMatrix type="matrix" values="0 0 0 0 0 0 0 0 0 0 0 0 0 0 0 0 0 0 0.12 0"/>
<feBlend mode="normal" in2="BackgroundImageFix" result="effect1_dropShadow_2517_1484"/>
<feBlend mode="normal" in="SourceGraphic" in2="effect1_dropShadow_2517_1484" result="shape"/>
</filter>
</defs>
</svg>
