<svg width="70" height="69" viewBox="0 0 70 69" fill="none" xmlns="http://www.w3.org/2000/svg">
<path d="M23.5004 63.25H46.5004C58.0579 63.25 60.1279 58.6213 60.7316 52.9863L62.8879 29.9863C63.6641 22.9713 61.6516 17.25 49.3754 17.25H20.6254C8.34911 17.25 6.33661 22.9713 7.11286 29.9863L9.26911 52.9863C9.87286 58.6213 11.9429 63.25 23.5004 63.25Z" stroke="#347295" stroke-width="4" stroke-miterlimit="10" stroke-linecap="round" stroke-linejoin="round"/>
<path d="M23.501 17.2502V14.9502C23.501 9.86149 23.501 5.75024 32.701 5.75024H37.301C46.501 5.75024 46.501 9.86149 46.501 14.9502V17.2502" stroke="#347295" stroke-width="4" stroke-miterlimit="10" stroke-linecap="round" stroke-linejoin="round"/>
<path d="M40.751 37.375V40.25C40.751 40.2787 40.751 40.2788 40.751 40.3075C40.751 43.4412 40.7222 46 35.001 46C29.3085 46 29.251 43.47 29.251 40.3362V37.375C29.251 34.5 29.251 34.5 32.126 34.5H37.876C40.751 34.5 40.751 34.5 40.751 37.375Z" stroke="#347295" stroke-width="4" stroke-miterlimit="10" stroke-linecap="round" stroke-linejoin="round"/>
<path d="M62.7437 31.6255C56.1025 36.4555 48.5125 39.3305 40.75 40.308" stroke="#347295" stroke-width="4" stroke-miterlimit="10" stroke-linecap="round" stroke-linejoin="round"/>
<path d="M8.03418 32.4014C14.5029 36.8289 21.8054 39.5026 29.2517 40.3364" stroke="#347295" stroke-width="4" stroke-miterlimit="10" stroke-linecap="round" stroke-linejoin="round"/>
</svg>
