<svg width="70" height="69" viewBox="0 0 70 69" fill="none" xmlns="http://www.w3.org/2000/svg">
<path d="M27.766 57.4998H41.566C53.066 57.4998 57.666 52.8998 57.666 41.3998V27.5998C57.666 16.0998 53.066 11.4998 41.566 11.4998H27.766C16.266 11.4998 11.666 16.0998 11.666 27.5998V41.3998C11.666 52.8998 16.266 57.4998 27.766 57.4998Z" stroke="#347295" stroke-width="4" stroke-linecap="round" stroke-linejoin="round"/>
<path d="M30.3545 48.8748H38.9795C46.167 48.8748 49.042 45.9998 49.042 38.8123V30.1873C49.042 22.9998 46.167 20.1248 38.9795 20.1248H30.3545C23.167 20.1248 20.292 22.9998 20.292 30.1873V38.8123C20.292 45.9998 23.167 48.8748 30.3545 48.8748Z" stroke="#347295" stroke-width="4" stroke-linecap="round" stroke-linejoin="round"/>
<path d="M23.1963 11.5002V5.75024" stroke="#347295" stroke-width="4" stroke-linecap="round" stroke-linejoin="round"/>
<path d="M34.667 11.5002V5.75024" stroke="#347295" stroke-width="4" stroke-linecap="round" stroke-linejoin="round"/>
<path d="M46.166 11.5002V5.75024" stroke="#347295" stroke-width="4" stroke-linecap="round" stroke-linejoin="round"/>
<path d="M57.668 23.0002H63.418" stroke="#347295" stroke-width="4" stroke-linecap="round" stroke-linejoin="round"/>
<path d="M57.668 34.5H63.418" stroke="#347295" stroke-width="4" stroke-linecap="round" stroke-linejoin="round"/>
<path d="M57.668 45.9998H63.418" stroke="#347295" stroke-width="5.375" stroke-linecap="round" stroke-linejoin="round"/>
<path d="M46.166 57.5005V63.2505" stroke="#347295" stroke-width="5.375" stroke-linecap="round" stroke-linejoin="round"/>
<path d="M34.6953 57.5005V63.2505" stroke="#347295" stroke-width="5.375" stroke-linecap="round" stroke-linejoin="round"/>
<path d="M23.1963 57.5005V63.2505" stroke="#347295" stroke-width="5.375" stroke-linecap="round" stroke-linejoin="round"/>
<path d="M5.91602 23.0002H11.666" stroke="#347295" stroke-width="5.375" stroke-linecap="round" stroke-linejoin="round"/>
<path d="M5.91602 34.5H11.666" stroke="#347295" stroke-width="5.375" stroke-linecap="round" stroke-linejoin="round"/>
<path d="M5.91602 45.9998H11.666" stroke="#347295" stroke-width="5.375" stroke-linecap="round" stroke-linejoin="round"/>
<path d="M34.6683 27.8872L31.9658 32.6022C31.362 33.6372 31.8508 34.4997 33.0583 34.4997H36.2783C37.4858 34.4997 37.9745 35.3622 37.3708 36.3972L34.6683 41.1122" stroke="#347295" stroke-width="5.375" stroke-linecap="round" stroke-linejoin="round"/>
</svg>
