<svg width="70" height="69" viewBox="0 0 70 69" fill="none" xmlns="http://www.w3.org/2000/svg">
<path d="M58.332 40.2498C61.5077 40.2498 64.082 37.6754 64.082 34.4998C64.082 31.3241 61.5077 28.7498 58.332 28.7498C55.1564 28.7498 52.582 31.3241 52.582 34.4998C52.582 37.6754 55.1564 40.2498 58.332 40.2498Z" stroke="#347295" stroke-width="4" stroke-linecap="round" stroke-linejoin="round"/>
<path d="M58.332 17.2502C61.5077 17.2502 64.082 14.6759 64.082 11.5002C64.082 8.32461 61.5077 5.75024 58.332 5.75024C55.1564 5.75024 52.582 8.32461 52.582 11.5002C52.582 14.6759 55.1564 17.2502 58.332 17.2502Z" stroke="#347295" stroke-width="4" stroke-linecap="round" stroke-linejoin="round"/>
<path d="M58.332 63.25C61.5077 63.25 64.082 60.6756 64.082 57.5C64.082 54.3244 61.5077 51.75 58.332 51.75C55.1564 51.75 52.582 54.3244 52.582 57.5C52.582 60.6756 55.1564 63.25 58.332 63.25Z" stroke="#347295" stroke-width="4" stroke-linecap="round" stroke-linejoin="round"/>
<path d="M12.333 40.2498C15.5086 40.2498 18.083 37.6754 18.083 34.4998C18.083 31.3241 15.5086 28.7498 12.333 28.7498C9.15737 28.7498 6.58301 31.3241 6.58301 34.4998C6.58301 37.6754 9.15737 40.2498 12.333 40.2498Z" stroke="#347295" stroke-width="4" stroke-linecap="round" stroke-linejoin="round"/>
<path d="M18.082 34.5H52.582" stroke="#347295" stroke-width="4" stroke-linecap="round" stroke-linejoin="round"/>
<path d="M52.583 11.4998H41.083C35.333 11.4998 32.458 14.3748 32.458 20.1248V48.8748C32.458 54.6248 35.333 57.4998 41.083 57.4998H52.583" stroke="#347295" stroke-width="4" stroke-linecap="round" stroke-linejoin="round"/>
</svg>
