<svg width="1138" height="373" viewBox="0 0 1138 373" fill="none" xmlns="http://www.w3.org/2000/svg">
<g filter="url(#filter0_d_1830_23742)">
<path d="M14.0622 139.5C10.3109 133.003 10.3109 124.997 14.0622 118.5L66.4378 27.7827C70.1891 21.2853 77.1218 17.2827 84.6243 17.2827L189.376 17.2827C196.878 17.2827 203.811 21.2853 207.562 27.7827L259.938 118.5C263.689 124.997 263.689 133.003 259.938 139.5L207.562 230.217C203.811 236.715 196.878 240.717 189.376 240.717L84.6244 240.717C77.1218 240.717 70.1891 236.715 66.4378 230.217L14.0622 139.5Z" fill="white"/>
</g>
<path d="M202.562 37.4429L249.938 119.5C253.689 125.997 253.689 134.002 249.938 140.5L202.562 222.557C198.811 229.054 191.879 233.057 184.376 233.057H89.6247C82.1221 233.057 75.1894 229.054 71.4381 222.557L24.0625 140.5C20.3112 134.002 20.3112 125.997 24.0625 119.5L71.4381 37.4429" stroke="#231F20"/>
<path d="M35.9282 120L77.8038 47.4693C81.3765 41.2812 87.979 37.4693 95.1244 37.4693L178.876 37.4693C186.021 37.4693 192.623 41.2812 196.196 47.4693L238.072 120C241.644 126.188 241.644 133.812 238.072 140L196.196 212.531C192.624 218.719 186.021 222.531 178.876 222.531L95.1244 222.531C87.979 222.531 81.3765 218.719 77.8039 212.531L35.9282 140C32.3555 133.812 32.3555 126.188 35.9282 120Z" stroke="#3D5AA9" stroke-width="2"/>
<path d="M123 162.25H150C163.567 162.25 165.997 156.816 166.706 150.201L169.237 123.201C170.149 114.966 167.786 108.25 153.375 108.25H119.625C105.214 108.25 102.851 114.966 103.762 123.201L106.294 150.201C107.002 156.816 109.432 162.25 123 162.25Z" stroke="#3D5AA9" stroke-width="5" stroke-miterlimit="10" stroke-linecap="round" stroke-linejoin="round"/>
<path d="M123 108.25V105.55C123 99.5762 123 94.75 133.8 94.75H139.2C150 94.75 150 99.5762 150 105.55V108.25" stroke="#3D5AA9" stroke-width="5" stroke-miterlimit="10" stroke-linecap="round" stroke-linejoin="round"/>
<path d="M143.25 131.875V135.25C143.25 135.284 143.25 135.284 143.25 135.318C143.25 138.996 143.216 142 136.5 142C129.817 142 129.75 139.03 129.75 135.351V131.875C129.75 128.5 129.75 128.5 133.125 128.5H139.875C143.25 128.5 143.25 128.5 143.25 131.875Z" stroke="#3D5AA9" stroke-width="5" stroke-miterlimit="10" stroke-linecap="round" stroke-linejoin="round"/>
<path d="M169.069 125.125C161.272 130.795 152.363 134.17 143.25 135.318" stroke="#3D5AA9" stroke-width="5" stroke-miterlimit="10" stroke-linecap="round" stroke-linejoin="round"/>
<path d="M104.842 126.036C112.436 131.234 121.009 134.373 129.75 135.351" stroke="#3D5AA9" stroke-width="5" stroke-miterlimit="10" stroke-linecap="round" stroke-linejoin="round"/>
<g filter="url(#filter1_d_1830_23742)">
<path d="M446.062 139.5C442.311 133.003 442.311 124.997 446.062 118.5L498.438 27.7827C502.189 21.2853 509.122 17.2827 516.624 17.2827L621.376 17.2827C628.878 17.2827 635.811 21.2853 639.562 27.7827L691.938 118.5C695.689 124.997 695.689 133.003 691.938 139.5L639.562 230.217C635.811 236.715 628.878 240.717 621.376 240.717L516.624 240.717C509.122 240.717 502.189 236.715 498.438 230.217L446.062 139.5Z" fill="white"/>
</g>
<path d="M634.562 37.4429L681.938 119.5C685.689 125.997 685.689 134.002 681.938 140.5L634.562 222.557C630.811 229.054 623.879 233.057 616.376 233.057H521.625C514.122 233.057 507.189 229.054 503.438 222.557L456.062 140.5C452.311 134.002 452.311 125.997 456.062 119.5L503.438 37.4429" stroke="#231F20"/>
<path d="M467.928 120L509.804 47.4693C513.376 41.2812 519.979 37.4693 527.124 37.4693L610.876 37.4693C618.021 37.4693 624.623 41.2812 628.196 47.4693L670.072 120C673.644 126.188 673.644 133.812 670.072 140L628.196 212.531C624.624 218.719 618.021 222.531 610.876 222.531L527.124 222.531C519.979 222.531 513.377 218.719 509.804 212.531L467.928 140C464.356 133.812 464.356 126.188 467.928 120Z" stroke="#3D5AA9" stroke-width="2"/>
<path d="M561.75 145.206H548.959C537.585 145.206 534.75 142.371 534.75 130.997V110.747C534.75 99.3737 537.585 96.5387 548.959 96.5387H584.497C595.871 96.5387 598.706 99.3737 598.706 110.747" stroke="#3D5AA9" stroke-width="5" stroke-linecap="round" stroke-linejoin="round"/>
<path d="M561.75 160.461V145.206" stroke="#3D5AA9" stroke-width="5" stroke-linecap="round" stroke-linejoin="round"/>
<path d="M534.75 131.706H561.75" stroke="#3D5AA9" stroke-width="5" stroke-linecap="round" stroke-linejoin="round"/>
<path d="M550.748 160.461H561.75" stroke="#3D5AA9" stroke-width="5" stroke-linecap="round" stroke-linejoin="round"/>
<path d="M602.25 131.2V150.471C602.25 158.47 600.259 160.461 592.26 160.461H580.279C572.28 160.461 570.289 158.47 570.289 150.471V131.2C570.289 123.201 572.28 121.21 580.279 121.21H592.26C600.259 121.21 602.25 123.201 602.25 131.2Z" stroke="#3D5AA9" stroke-width="5" stroke-linecap="round" stroke-linejoin="round"/>
<path d="M586.2 149.594H586.231" stroke="#3D5AA9" stroke-width="5" stroke-linecap="round" stroke-linejoin="round"/>
<g filter="url(#filter2_d_1830_23742)">
<path d="M878.062 139.5C874.311 133.003 874.311 124.997 878.062 118.5L930.438 27.7827C934.189 21.2853 941.122 17.2827 948.624 17.2827L1053.38 17.2827C1060.88 17.2827 1067.81 21.2853 1071.56 27.7827L1123.94 118.5C1127.69 124.997 1127.69 133.003 1123.94 139.5L1071.56 230.217C1067.81 236.715 1060.88 240.717 1053.38 240.717L948.624 240.717C941.122 240.717 934.189 236.715 930.438 230.217L878.062 139.5Z" fill="white"/>
</g>
<path d="M987.101 148.507C987.217 148.055 987.508 147.668 987.91 147.431C988.312 147.194 988.792 147.127 989.243 147.243C989.695 147.36 990.082 147.651 990.319 148.053C990.556 148.455 990.624 148.935 990.507 149.386L990.487 149.466L990.475 149.477C990.313 150.073 989.365 153.123 986.365 156.111C983.167 159.296 977.663 162.383 968.374 162.383C967.908 162.383 967.46 162.198 967.131 161.868C966.801 161.539 966.616 161.091 966.616 160.625C966.616 151.338 969.706 145.833 972.892 142.635C976.067 139.447 979.311 138.575 979.603 138.502M987.101 148.507C987.101 148.507 987.101 148.507 987.101 148.506L987.391 148.582L987.1 148.507C987.101 148.507 987.101 148.507 987.101 148.507ZM987.101 148.507C987.053 148.687 986.38 151.115 983.91 153.57C981.481 155.984 977.292 158.448 970.187 158.808M970.187 158.808C970.547 151.71 973.012 147.525 975.425 145.098C977.882 142.628 980.309 141.957 980.481 141.912M970.187 158.808C970.087 158.813 969.987 158.818 969.886 158.822C970.607 144.353 980 141.727 980.405 141.622M970.187 158.808C970.182 158.908 970.177 159.008 970.173 159.109L980.405 141.622M980.481 141.912C980.933 141.796 981.32 141.504 981.557 141.102C981.795 140.7 981.862 140.22 981.746 139.768C981.629 139.315 981.338 138.928 980.936 138.691C980.534 138.453 980.054 138.386 979.603 138.502M980.481 141.912L980.405 141.622M980.481 141.912C980.48 141.912 980.48 141.912 980.48 141.912L980.405 141.622M979.603 138.502C979.602 138.502 979.602 138.502 979.601 138.502L979.676 138.792L979.603 138.501C979.603 138.501 979.603 138.502 979.603 138.502ZM1024.73 124.271L1024.73 124.272L1022.63 126.35V148.1V148.101H1022.33C1022.33 148.676 1022.22 149.245 1022 149.776C1021.78 150.306 1021.46 150.788 1021.05 151.193L1024.73 124.271ZM1024.73 124.271C1034.11 114.875 1034.51 103.552 1034.25 99.1239L1034.25 99.1227C1034.18 97.9868 1033.69 96.9162 1032.89 96.1114C1032.08 95.3066 1031.01 94.823 1029.88 94.7513L1029.88 94.7512C1025.44 94.4901 1014.12 94.8897 1004.73 104.286L1002.65 106.363L980.899 106.363L980.898 106.663V106.363H980.898C980.284 106.361 979.676 106.481 979.109 106.716C978.541 106.951 978.026 107.296 977.593 107.731C977.593 107.731 977.593 107.732 977.593 107.732L965.07 120.252C965.07 120.252 965.07 120.252 965.07 120.252C964.455 120.866 964.024 121.64 963.825 122.486C963.625 123.332 963.666 124.216 963.941 125.041C964.217 125.865 964.717 126.596 965.385 127.152C966.053 127.708 966.863 128.067 967.723 128.188L967.724 128.188L982.131 130.198L998.797 146.867L1000.81 161.283L1000.81 161.283C1000.93 162.143 1001.29 162.952 1001.84 163.619C1002.4 164.287 1003.13 164.785 1003.96 165.06C1004.78 165.335 1005.66 165.374 1006.51 165.175C1007.36 164.975 1008.13 164.544 1008.74 163.929C1008.74 163.929 1008.74 163.929 1008.74 163.929L1021.26 151.406C1021.26 151.406 1021.26 151.405 1021.26 151.405L1024.73 124.271ZM980.082 110.223L980.082 110.222C980.298 110.005 980.592 109.882 980.898 109.88H999.132L982.333 126.676L968.212 124.706C968.212 124.706 968.212 124.706 968.211 124.706C967.999 124.675 967.799 124.586 967.634 124.448C967.469 124.311 967.345 124.129 967.277 123.925C967.209 123.721 967.199 123.502 967.249 123.293C967.299 123.083 967.405 122.892 967.558 122.74L967.558 122.74L980.082 110.223ZM1006.25 161.441L1006.25 161.441C1006.1 161.594 1005.91 161.7 1005.7 161.75C1005.49 161.8 1005.27 161.79 1005.07 161.723C1004.87 161.655 1004.68 161.532 1004.55 161.367C1004.41 161.203 1004.32 161.003 1004.29 160.791C1004.29 160.79 1004.29 160.79 1004.29 160.79L1002.32 146.665L1019.12 129.866V148.101V148.101C1019.12 148.253 1019.09 148.404 1019.03 148.545C1018.97 148.685 1018.89 148.813 1018.78 148.921C1018.78 148.921 1018.78 148.921 1018.78 148.921L1006.25 161.441ZM1022.22 121.787L1022.22 121.787L1019.63 124.379L1019.63 124.379L1000.46 143.553L985.445 128.54L1004.61 109.362L1004.61 109.362L1007.21 106.77L1007.21 106.77C1015.59 98.3839 1025.69 98.025 1029.66 98.2598L1029.66 98.2598C1029.94 98.275 1030.21 98.3926 1030.4 98.59C1030.6 98.7873 1030.72 99.0506 1030.73 99.3293L1030.73 99.3307C1030.97 103.288 1030.61 113.401 1022.22 121.787Z" fill="#3D5AA9" stroke="#3D5AA9" stroke-width="0.6"/>
<path d="M1066.56 37.4429L1113.94 119.5C1117.69 125.997 1117.69 134.002 1113.94 140.5L1066.56 222.557C1062.81 229.054 1055.88 233.057 1048.38 233.057H953.625C946.122 233.057 939.189 229.054 935.438 222.557L888.062 140.5C884.311 134.002 884.311 125.997 888.062 119.5L935.438 37.4429" stroke="#231F20"/>
<path d="M899.928 120L941.804 47.4693C945.376 41.2812 951.979 37.4693 959.124 37.4693L1042.88 37.4693C1050.02 37.4693 1056.62 41.2812 1060.2 47.4693L1102.07 120C1105.64 126.188 1105.64 133.812 1102.07 140L1060.2 212.531C1056.62 218.719 1050.02 222.531 1042.88 222.531L959.124 222.531C951.979 222.531 945.377 218.719 941.804 212.531L899.928 140C896.356 133.812 896.356 126.188 899.928 120Z" stroke="#3D5AA9" stroke-width="2"/>
<g filter="url(#filter3_d_1830_23742)">
<path d="M230.062 254.5C226.311 248.003 226.311 239.997 230.062 233.5L282.438 142.783C286.189 136.285 293.122 132.283 300.624 132.283L405.376 132.283C412.878 132.283 419.811 136.285 423.562 142.783L475.938 233.5C479.689 239.997 479.689 248.003 475.938 254.5L423.562 345.217C419.811 351.715 412.878 355.717 405.376 355.717L300.624 355.717C293.122 355.717 286.189 351.715 282.438 345.217L230.062 254.5Z" fill="white"/>
</g>
<path d="M418.562 152.443L465.938 234.5C469.689 240.997 469.689 249.002 465.938 255.5L418.562 337.557C414.811 344.054 407.879 348.057 400.376 348.057H305.625C298.122 348.057 291.189 344.054 287.438 337.557L240.062 255.5C236.311 249.002 236.311 240.997 240.062 234.5L287.438 152.443" stroke="#231F20"/>
<path d="M251.928 235L293.804 162.469C297.376 156.281 303.979 152.469 311.124 152.469L394.876 152.469C402.021 152.469 408.623 156.281 412.196 162.469L454.072 235C457.644 241.188 457.644 248.812 454.072 255L412.196 327.531C408.624 333.719 402.021 337.531 394.876 337.531L311.124 337.531C303.979 337.531 297.377 333.719 293.804 327.531L251.928 255C248.356 248.812 248.356 241.188 251.928 235Z" stroke="#3D5AA9" stroke-width="2"/>
<path d="M379.5 250.25C383.228 250.25 386.25 247.228 386.25 243.5C386.25 239.772 383.228 236.75 379.5 236.75C375.772 236.75 372.75 239.772 372.75 243.5C372.75 247.228 375.772 250.25 379.5 250.25Z" stroke="#3D5AA9" stroke-width="5" stroke-linecap="round" stroke-linejoin="round"/>
<path d="M379.5 223.25C383.228 223.25 386.25 220.228 386.25 216.5C386.25 212.772 383.228 209.75 379.5 209.75C375.772 209.75 372.75 212.772 372.75 216.5C372.75 220.228 375.772 223.25 379.5 223.25Z" stroke="#3D5AA9" stroke-width="5" stroke-linecap="round" stroke-linejoin="round"/>
<path d="M379.5 277.25C383.228 277.25 386.25 274.228 386.25 270.5C386.25 266.772 383.228 263.75 379.5 263.75C375.772 263.75 372.75 266.772 372.75 270.5C372.75 274.228 375.772 277.25 379.5 277.25Z" stroke="#3D5AA9" stroke-width="5" stroke-linecap="round" stroke-linejoin="round"/>
<path d="M325.5 250.25C329.228 250.25 332.25 247.228 332.25 243.5C332.25 239.772 329.228 236.75 325.5 236.75C321.772 236.75 318.75 239.772 318.75 243.5C318.75 247.228 321.772 250.25 325.5 250.25Z" stroke="#3D5AA9" stroke-width="5" stroke-linecap="round" stroke-linejoin="round"/>
<path d="M332.25 243.5H372.75" stroke="#3D5AA9" stroke-width="5" stroke-linecap="round" stroke-linejoin="round"/>
<path d="M372.75 216.5H359.25C352.5 216.5 349.125 219.875 349.125 226.625V260.375C349.125 267.125 352.5 270.5 359.25 270.5H372.75" stroke="#3D5AA9" stroke-width="5" stroke-linecap="round" stroke-linejoin="round"/>
<g filter="url(#filter4_d_1830_23742)">
<path d="M662.062 254.5C658.311 248.003 658.311 239.997 662.062 233.5L714.438 142.783C718.189 136.285 725.122 132.283 732.624 132.283L837.376 132.283C844.878 132.283 851.811 136.285 855.562 142.783L907.938 233.5C911.689 239.997 911.689 248.003 907.938 254.5L855.562 345.217C851.811 351.715 844.878 355.717 837.376 355.717L732.624 355.717C725.122 355.717 718.189 351.715 714.438 345.217L662.062 254.5Z" fill="white"/>
</g>
<path d="M850.562 152.443L897.938 234.5C901.689 240.997 901.689 249.002 897.938 255.5L850.562 337.557C846.811 344.054 839.879 348.057 832.376 348.057H737.625C730.122 348.057 723.189 344.054 719.438 337.557L672.062 255.5C668.311 249.002 668.311 240.997 672.062 234.5L719.438 152.443" stroke="#231F20"/>
<path d="M683.928 235L725.804 162.469C729.376 156.281 735.979 152.469 743.124 152.469L826.876 152.469C834.021 152.469 840.623 156.281 844.196 162.469L886.072 235C889.644 241.188 889.644 248.812 886.072 255L844.196 327.531C840.624 333.719 834.021 337.531 826.876 337.531L743.124 337.531C735.979 337.531 729.377 333.719 725.804 327.531L683.928 255C680.356 248.812 680.356 241.188 683.928 235Z" stroke="#3D5AA9" stroke-width="2"/>
<path d="M784.5 253.625C790.092 253.625 794.625 249.092 794.625 243.5C794.625 237.908 790.092 233.375 784.5 233.375C778.908 233.375 774.375 237.908 774.375 243.5C774.375 249.092 778.908 253.625 784.5 253.625Z" stroke="#3D5AA9" stroke-width="5" stroke-miterlimit="10" stroke-linecap="round" stroke-linejoin="round"/>
<path d="M750.75 246.47V240.53C750.75 237.02 753.619 234.117 757.163 234.117C763.271 234.117 765.769 229.797 762.697 224.499C760.942 221.461 761.989 217.512 765.06 215.757L770.899 212.416C773.565 210.83 777.008 211.775 778.594 214.441L778.965 215.082C782.002 220.381 786.997 220.381 790.069 215.082L790.44 214.441C792.026 211.775 795.469 210.83 798.135 212.416L803.974 215.757C807.045 217.512 808.091 221.461 806.336 224.499C803.265 229.797 805.763 234.117 811.871 234.117C815.381 234.117 818.284 236.986 818.284 240.53V246.47C818.284 249.98 815.415 252.882 811.871 252.882C805.763 252.882 803.265 257.202 806.336 262.501C808.091 265.572 807.045 269.487 803.974 271.242L798.135 274.584C795.469 276.17 792.026 275.225 790.44 272.559L790.069 271.917C787.031 266.619 782.036 266.619 778.965 271.917L778.594 272.559C777.008 275.225 773.565 276.17 770.899 274.584L765.06 271.242C761.989 269.487 760.942 265.539 762.697 262.501C765.769 257.202 763.271 252.882 757.163 252.882C753.619 252.882 750.75 249.98 750.75 246.47Z" stroke="#3D5AA9" stroke-width="5" stroke-miterlimit="10" stroke-linecap="round" stroke-linejoin="round"/>
<path d="M104.784 271V259.364H108.852C109.663 259.364 110.331 259.504 110.858 259.784C111.384 260.061 111.777 260.434 112.034 260.903C112.292 261.369 112.42 261.886 112.42 262.455C112.42 262.955 112.331 263.367 112.153 263.693C111.979 264.019 111.748 264.277 111.46 264.466C111.176 264.655 110.867 264.795 110.534 264.886V265C110.89 265.023 111.248 265.148 111.608 265.375C111.968 265.602 112.269 265.928 112.511 266.352C112.754 266.777 112.875 267.295 112.875 267.909C112.875 268.492 112.742 269.017 112.477 269.483C112.212 269.949 111.794 270.318 111.222 270.591C110.65 270.864 109.905 271 108.989 271H104.784ZM106.193 269.75H108.989C109.909 269.75 110.563 269.572 110.949 269.216C111.339 268.856 111.534 268.42 111.534 267.909C111.534 267.515 111.434 267.152 111.233 266.818C111.032 266.481 110.746 266.212 110.375 266.011C110.004 265.807 109.564 265.705 109.057 265.705H106.193V269.75ZM106.193 264.477H108.807C109.231 264.477 109.614 264.394 109.955 264.227C110.299 264.061 110.572 263.826 110.773 263.523C110.977 263.22 111.08 262.864 111.08 262.455C111.08 261.943 110.902 261.509 110.545 261.153C110.189 260.794 109.625 260.614 108.852 260.614H106.193V264.477ZM120.509 267.432V262.273H121.849V271H120.509V269.523H120.418C120.213 269.966 119.895 270.343 119.463 270.653C119.031 270.96 118.486 271.114 117.827 271.114C117.281 271.114 116.796 270.994 116.372 270.756C115.948 270.513 115.615 270.15 115.372 269.665C115.13 269.176 115.009 268.561 115.009 267.818V262.273H116.349V267.727C116.349 268.364 116.527 268.871 116.884 269.25C117.243 269.629 117.702 269.818 118.259 269.818C118.592 269.818 118.931 269.733 119.276 269.562C119.624 269.392 119.916 269.131 120.151 268.778C120.389 268.426 120.509 267.977 120.509 267.432ZM130.487 264.227L129.283 264.568C129.207 264.367 129.095 264.172 128.947 263.983C128.804 263.79 128.607 263.631 128.357 263.506C128.107 263.381 127.786 263.318 127.396 263.318C126.862 263.318 126.417 263.441 126.061 263.688C125.709 263.93 125.533 264.239 125.533 264.614C125.533 264.947 125.654 265.21 125.896 265.403C126.139 265.597 126.518 265.758 127.033 265.886L128.328 266.205C129.108 266.394 129.69 266.684 130.072 267.074C130.455 267.46 130.646 267.958 130.646 268.568C130.646 269.068 130.502 269.515 130.214 269.909C129.93 270.303 129.533 270.614 129.021 270.841C128.51 271.068 127.915 271.182 127.237 271.182C126.347 271.182 125.61 270.989 125.027 270.602C124.444 270.216 124.074 269.652 123.919 268.909L125.192 268.591C125.313 269.061 125.542 269.413 125.879 269.648C126.22 269.883 126.665 270 127.214 270C127.839 270 128.336 269.867 128.703 269.602C129.074 269.333 129.26 269.011 129.26 268.636C129.26 268.333 129.154 268.08 128.942 267.875C128.73 267.667 128.404 267.511 127.964 267.409L126.51 267.068C125.711 266.879 125.124 266.585 124.749 266.188C124.377 265.786 124.192 265.284 124.192 264.682C124.192 264.189 124.33 263.754 124.607 263.375C124.887 262.996 125.268 262.699 125.749 262.483C126.233 262.267 126.783 262.159 127.396 262.159C128.26 262.159 128.938 262.348 129.43 262.727C129.927 263.106 130.279 263.606 130.487 264.227ZM132.665 271V262.273H134.006V271H132.665ZM133.347 260.818C133.085 260.818 132.86 260.729 132.67 260.551C132.485 260.373 132.392 260.159 132.392 259.909C132.392 259.659 132.485 259.445 132.67 259.267C132.86 259.089 133.085 259 133.347 259C133.608 259 133.831 259.089 134.017 259.267C134.206 259.445 134.301 259.659 134.301 259.909C134.301 260.159 134.206 260.373 134.017 260.551C133.831 260.729 133.608 260.818 133.347 260.818ZM137.803 265.75V271H136.462V262.273H137.757V263.636H137.871C138.075 263.193 138.386 262.837 138.803 262.568C139.219 262.295 139.757 262.159 140.416 262.159C141.007 262.159 141.524 262.28 141.967 262.523C142.411 262.761 142.755 263.125 143.001 263.614C143.248 264.098 143.371 264.712 143.371 265.455V271H142.03V265.545C142.03 264.86 141.852 264.326 141.496 263.943C141.14 263.557 140.651 263.364 140.03 263.364C139.602 263.364 139.219 263.456 138.882 263.642C138.549 263.828 138.286 264.098 138.092 264.455C137.899 264.811 137.803 265.242 137.803 265.75ZM149.48 271.182C148.639 271.182 147.914 270.996 147.304 270.625C146.698 270.25 146.23 269.727 145.901 269.057C145.575 268.383 145.412 267.598 145.412 266.705C145.412 265.811 145.575 265.023 145.901 264.341C146.23 263.655 146.688 263.121 147.276 262.739C147.866 262.352 148.556 262.159 149.344 262.159C149.798 262.159 150.247 262.235 150.69 262.386C151.134 262.538 151.537 262.784 151.901 263.125C152.264 263.462 152.554 263.909 152.77 264.466C152.986 265.023 153.094 265.708 153.094 266.523V267.091H146.366V265.932H151.73C151.73 265.439 151.632 265 151.435 264.614C151.241 264.227 150.965 263.922 150.605 263.699C150.249 263.475 149.829 263.364 149.344 263.364C148.81 263.364 148.348 263.496 147.957 263.761C147.571 264.023 147.274 264.364 147.065 264.784C146.857 265.205 146.753 265.655 146.753 266.136V266.909C146.753 267.568 146.866 268.127 147.094 268.585C147.325 269.04 147.645 269.386 148.054 269.625C148.463 269.86 148.938 269.977 149.48 269.977C149.832 269.977 150.151 269.928 150.435 269.83C150.723 269.727 150.971 269.576 151.179 269.375C151.387 269.17 151.548 268.917 151.662 268.614L152.957 268.977C152.821 269.417 152.592 269.803 152.27 270.136C151.948 270.466 151.55 270.723 151.077 270.909C150.603 271.091 150.071 271.182 149.48 271.182ZM161.315 264.227L160.111 264.568C160.035 264.367 159.923 264.172 159.776 263.983C159.632 263.79 159.435 263.631 159.185 263.506C158.935 263.381 158.615 263.318 158.224 263.318C157.69 263.318 157.245 263.441 156.889 263.688C156.537 263.93 156.361 264.239 156.361 264.614C156.361 264.947 156.482 265.21 156.724 265.403C156.967 265.597 157.346 265.758 157.861 265.886L159.156 266.205C159.937 266.394 160.518 266.684 160.901 267.074C161.283 267.46 161.474 267.958 161.474 268.568C161.474 269.068 161.33 269.515 161.043 269.909C160.759 270.303 160.361 270.614 159.849 270.841C159.338 271.068 158.743 271.182 158.065 271.182C157.175 271.182 156.438 270.989 155.855 270.602C155.272 270.216 154.902 269.652 154.747 268.909L156.02 268.591C156.141 269.061 156.37 269.413 156.707 269.648C157.048 269.883 157.493 270 158.043 270C158.668 270 159.164 269.867 159.531 269.602C159.902 269.333 160.088 269.011 160.088 268.636C160.088 268.333 159.982 268.08 159.77 267.875C159.558 267.667 159.232 267.511 158.793 267.409L157.338 267.068C156.539 266.879 155.952 266.585 155.577 266.188C155.205 265.786 155.02 265.284 155.02 264.682C155.02 264.189 155.158 263.754 155.435 263.375C155.715 262.996 156.096 262.699 156.577 262.483C157.062 262.267 157.611 262.159 158.224 262.159C159.088 262.159 159.766 262.348 160.259 262.727C160.755 263.106 161.107 263.606 161.315 264.227ZM169.675 264.227L168.47 264.568C168.394 264.367 168.283 264.172 168.135 263.983C167.991 263.79 167.794 263.631 167.544 263.506C167.294 263.381 166.974 263.318 166.584 263.318C166.05 263.318 165.605 263.441 165.249 263.688C164.896 263.93 164.72 264.239 164.72 264.614C164.72 264.947 164.841 265.21 165.084 265.403C165.326 265.597 165.705 265.758 166.22 265.886L167.516 266.205C168.296 266.394 168.877 266.684 169.26 267.074C169.643 267.46 169.834 267.958 169.834 268.568C169.834 269.068 169.69 269.515 169.402 269.909C169.118 270.303 168.72 270.614 168.209 270.841C167.697 271.068 167.103 271.182 166.425 271.182C165.535 271.182 164.798 270.989 164.214 270.602C163.631 270.216 163.262 269.652 163.107 268.909L164.379 268.591C164.5 269.061 164.73 269.413 165.067 269.648C165.408 269.883 165.853 270 166.402 270C167.027 270 167.523 269.867 167.891 269.602C168.262 269.333 168.447 269.011 168.447 268.636C168.447 268.333 168.341 268.08 168.129 267.875C167.917 267.667 167.591 267.511 167.152 267.409L165.697 267.068C164.898 266.879 164.311 266.585 163.936 266.188C163.565 265.786 163.379 265.284 163.379 264.682C163.379 264.189 163.518 263.754 163.794 263.375C164.074 262.996 164.455 262.699 164.936 262.483C165.421 262.267 165.97 262.159 166.584 262.159C167.447 262.159 168.125 262.348 168.618 262.727C169.114 263.106 169.466 263.606 169.675 264.227ZM90.1392 282.364H91.5483V290.068C91.5483 290.864 91.3608 291.574 90.9858 292.199C90.6146 292.82 90.09 293.311 89.4119 293.67C88.7339 294.027 87.9384 294.205 87.0256 294.205C86.1127 294.205 85.3172 294.027 84.6392 293.67C83.9612 293.311 83.4347 292.82 83.0597 292.199C82.6884 291.574 82.5028 290.864 82.5028 290.068V282.364H83.9119V289.955C83.9119 290.523 84.0369 291.028 84.2869 291.472C84.5369 291.911 84.893 292.258 85.3551 292.511C85.821 292.761 86.3778 292.886 87.0256 292.886C87.6733 292.886 88.2301 292.761 88.696 292.511C89.1619 292.258 89.518 291.911 89.7642 291.472C90.0142 291.028 90.1392 290.523 90.1392 289.955V282.364ZM95.5213 288.75V294H94.1804V285.273H95.4759V286.636H95.5895C95.794 286.193 96.1046 285.837 96.5213 285.568C96.938 285.295 97.4759 285.159 98.1349 285.159C98.7259 285.159 99.2429 285.28 99.6861 285.523C100.129 285.761 100.474 286.125 100.72 286.614C100.966 287.098 101.089 287.712 101.089 288.455V294H99.7486V288.545C99.7486 287.86 99.5705 287.326 99.2145 286.943C98.8584 286.557 98.3698 286.364 97.7486 286.364C97.3205 286.364 96.938 286.456 96.6009 286.642C96.2675 286.828 96.0043 287.098 95.8111 287.455C95.6179 287.811 95.5213 288.242 95.5213 288.75ZM106.835 294.182C106.108 294.182 105.466 293.998 104.909 293.631C104.352 293.259 103.917 292.737 103.602 292.062C103.288 291.384 103.131 290.583 103.131 289.659C103.131 288.742 103.288 287.947 103.602 287.273C103.917 286.598 104.354 286.078 104.915 285.71C105.475 285.343 106.123 285.159 106.858 285.159C107.426 285.159 107.875 285.254 108.205 285.443C108.538 285.629 108.792 285.841 108.966 286.08C109.144 286.314 109.282 286.508 109.381 286.659H109.494V282.364H110.835V294H109.54V292.659H109.381C109.282 292.818 109.142 293.019 108.96 293.261C108.778 293.5 108.519 293.714 108.182 293.903C107.845 294.089 107.396 294.182 106.835 294.182ZM107.017 292.977C107.555 292.977 108.009 292.837 108.381 292.557C108.752 292.273 109.034 291.881 109.227 291.381C109.42 290.877 109.517 290.295 109.517 289.636C109.517 288.985 109.422 288.415 109.233 287.926C109.044 287.434 108.763 287.051 108.392 286.778C108.021 286.502 107.563 286.364 107.017 286.364C106.449 286.364 105.975 286.509 105.597 286.801C105.222 287.089 104.939 287.481 104.75 287.977C104.564 288.47 104.472 289.023 104.472 289.636C104.472 290.258 104.566 290.822 104.756 291.33C104.949 291.833 105.233 292.235 105.608 292.534C105.987 292.83 106.456 292.977 107.017 292.977ZM117.136 294.182C116.295 294.182 115.57 293.996 114.96 293.625C114.354 293.25 113.886 292.727 113.557 292.057C113.231 291.383 113.068 290.598 113.068 289.705C113.068 288.811 113.231 288.023 113.557 287.341C113.886 286.655 114.345 286.121 114.932 285.739C115.523 285.352 116.212 285.159 117 285.159C117.455 285.159 117.903 285.235 118.347 285.386C118.79 285.538 119.193 285.784 119.557 286.125C119.92 286.462 120.21 286.909 120.426 287.466C120.642 288.023 120.75 288.708 120.75 289.523V290.091H114.023V288.932H119.386C119.386 288.439 119.288 288 119.091 287.614C118.898 287.227 118.621 286.922 118.261 286.699C117.905 286.475 117.485 286.364 117 286.364C116.466 286.364 116.004 286.496 115.614 286.761C115.227 287.023 114.93 287.364 114.722 287.784C114.513 288.205 114.409 288.655 114.409 289.136V289.909C114.409 290.568 114.523 291.127 114.75 291.585C114.981 292.04 115.301 292.386 115.71 292.625C116.119 292.86 116.595 292.977 117.136 292.977C117.489 292.977 117.807 292.928 118.091 292.83C118.379 292.727 118.627 292.576 118.835 292.375C119.044 292.17 119.205 291.917 119.318 291.614L120.614 291.977C120.477 292.417 120.248 292.803 119.926 293.136C119.604 293.466 119.206 293.723 118.733 293.909C118.259 294.091 117.727 294.182 117.136 294.182ZM122.79 294V285.273H124.085V286.591H124.176C124.335 286.159 124.623 285.809 125.04 285.54C125.456 285.271 125.926 285.136 126.449 285.136C126.547 285.136 126.67 285.138 126.818 285.142C126.966 285.146 127.078 285.152 127.153 285.159V286.523C127.108 286.511 127.004 286.494 126.841 286.472C126.682 286.445 126.513 286.432 126.335 286.432C125.911 286.432 125.532 286.521 125.199 286.699C124.869 286.873 124.608 287.116 124.415 287.426C124.225 287.733 124.131 288.083 124.131 288.477V294H122.79ZM134.925 287.227L133.72 287.568C133.644 287.367 133.533 287.172 133.385 286.983C133.241 286.79 133.044 286.631 132.794 286.506C132.544 286.381 132.224 286.318 131.834 286.318C131.3 286.318 130.855 286.441 130.499 286.688C130.146 286.93 129.97 287.239 129.97 287.614C129.97 287.947 130.091 288.21 130.334 288.403C130.576 288.597 130.955 288.758 131.47 288.886L132.766 289.205C133.546 289.394 134.127 289.684 134.51 290.074C134.893 290.46 135.084 290.958 135.084 291.568C135.084 292.068 134.94 292.515 134.652 292.909C134.368 293.303 133.97 293.614 133.459 293.841C132.947 294.068 132.353 294.182 131.675 294.182C130.785 294.182 130.048 293.989 129.464 293.602C128.881 293.216 128.512 292.652 128.357 291.909L129.629 291.591C129.75 292.061 129.98 292.413 130.317 292.648C130.658 292.883 131.103 293 131.652 293C132.277 293 132.773 292.867 133.141 292.602C133.512 292.333 133.697 292.011 133.697 291.636C133.697 291.333 133.591 291.08 133.379 290.875C133.167 290.667 132.841 290.511 132.402 290.409L130.947 290.068C130.148 289.879 129.561 289.585 129.186 289.188C128.815 288.786 128.629 288.284 128.629 287.682C128.629 287.189 128.768 286.754 129.044 286.375C129.324 285.996 129.705 285.699 130.186 285.483C130.671 285.267 131.22 285.159 131.834 285.159C132.697 285.159 133.375 285.348 133.868 285.727C134.364 286.106 134.716 286.606 134.925 287.227ZM140.898 285.273V286.409H136.375V285.273H140.898ZM137.693 283.182H139.034V291.5C139.034 291.879 139.089 292.163 139.199 292.352C139.313 292.538 139.456 292.663 139.631 292.727C139.809 292.788 139.996 292.818 140.193 292.818C140.341 292.818 140.462 292.811 140.557 292.795C140.652 292.777 140.727 292.761 140.784 292.75L141.057 293.955C140.966 293.989 140.839 294.023 140.676 294.057C140.513 294.095 140.307 294.114 140.057 294.114C139.678 294.114 139.307 294.032 138.943 293.869C138.583 293.706 138.284 293.458 138.045 293.125C137.811 292.792 137.693 292.371 137.693 291.864V283.182ZM145.483 294.205C144.93 294.205 144.428 294.1 143.977 293.892C143.527 293.68 143.169 293.375 142.903 292.977C142.638 292.576 142.506 292.091 142.506 291.523C142.506 291.023 142.604 290.617 142.801 290.307C142.998 289.992 143.261 289.746 143.591 289.568C143.92 289.39 144.284 289.258 144.682 289.17C145.083 289.08 145.487 289.008 145.892 288.955C146.422 288.886 146.852 288.835 147.182 288.801C147.515 288.763 147.758 288.701 147.909 288.614C148.064 288.527 148.142 288.375 148.142 288.159V288.114C148.142 287.553 147.989 287.117 147.682 286.807C147.379 286.496 146.919 286.341 146.301 286.341C145.661 286.341 145.159 286.481 144.795 286.761C144.432 287.042 144.176 287.341 144.028 287.659L142.756 287.205C142.983 286.674 143.286 286.261 143.665 285.966C144.047 285.667 144.464 285.458 144.915 285.341C145.369 285.22 145.816 285.159 146.256 285.159C146.536 285.159 146.858 285.193 147.222 285.261C147.589 285.326 147.943 285.46 148.284 285.665C148.629 285.869 148.915 286.178 149.142 286.591C149.369 287.004 149.483 287.557 149.483 288.25V294H148.142V292.818H148.074C147.983 293.008 147.831 293.21 147.619 293.426C147.407 293.642 147.125 293.826 146.773 293.977C146.42 294.129 145.991 294.205 145.483 294.205ZM145.688 293C146.218 293 146.665 292.896 147.028 292.688C147.396 292.479 147.672 292.21 147.858 291.881C148.047 291.551 148.142 291.205 148.142 290.841V289.614C148.085 289.682 147.96 289.744 147.767 289.801C147.578 289.854 147.358 289.902 147.108 289.943C146.862 289.981 146.621 290.015 146.386 290.045C146.155 290.072 145.968 290.095 145.824 290.114C145.475 290.159 145.15 290.233 144.847 290.335C144.547 290.434 144.305 290.583 144.119 290.784C143.938 290.981 143.847 291.25 143.847 291.591C143.847 292.057 144.019 292.409 144.364 292.648C144.712 292.883 145.153 293 145.688 293ZM153.271 288.75V294H151.93V285.273H153.226V286.636H153.339C153.544 286.193 153.855 285.837 154.271 285.568C154.688 285.295 155.226 285.159 155.885 285.159C156.476 285.159 156.993 285.28 157.436 285.523C157.879 285.761 158.224 286.125 158.47 286.614C158.716 287.098 158.839 287.712 158.839 288.455V294H157.499V288.545C157.499 287.86 157.321 287.326 156.964 286.943C156.608 286.557 156.12 286.364 155.499 286.364C155.071 286.364 154.688 286.456 154.351 286.642C154.018 286.828 153.754 287.098 153.561 287.455C153.368 287.811 153.271 288.242 153.271 288.75ZM164.585 294.182C163.858 294.182 163.216 293.998 162.659 293.631C162.102 293.259 161.667 292.737 161.352 292.062C161.038 291.384 160.881 290.583 160.881 289.659C160.881 288.742 161.038 287.947 161.352 287.273C161.667 286.598 162.104 286.078 162.665 285.71C163.225 285.343 163.873 285.159 164.608 285.159C165.176 285.159 165.625 285.254 165.955 285.443C166.288 285.629 166.542 285.841 166.716 286.08C166.894 286.314 167.032 286.508 167.131 286.659H167.244V282.364H168.585V294H167.29V292.659H167.131C167.032 292.818 166.892 293.019 166.71 293.261C166.528 293.5 166.269 293.714 165.932 293.903C165.595 294.089 165.146 294.182 164.585 294.182ZM164.767 292.977C165.305 292.977 165.759 292.837 166.131 292.557C166.502 292.273 166.784 291.881 166.977 291.381C167.17 290.877 167.267 290.295 167.267 289.636C167.267 288.985 167.172 288.415 166.983 287.926C166.794 287.434 166.513 287.051 166.142 286.778C165.771 286.502 165.313 286.364 164.767 286.364C164.199 286.364 163.725 286.509 163.347 286.801C162.972 287.089 162.689 287.481 162.5 287.977C162.314 288.47 162.222 289.023 162.222 289.636C162.222 290.258 162.316 290.822 162.506 291.33C162.699 291.833 162.983 292.235 163.358 292.534C163.737 292.83 164.206 292.977 164.767 292.977ZM171.227 294V285.273H172.568V294H171.227ZM171.909 283.818C171.648 283.818 171.422 283.729 171.233 283.551C171.047 283.373 170.955 283.159 170.955 282.909C170.955 282.659 171.047 282.445 171.233 282.267C171.422 282.089 171.648 282 171.909 282C172.17 282 172.394 282.089 172.58 282.267C172.769 282.445 172.864 282.659 172.864 282.909C172.864 283.159 172.769 283.373 172.58 283.551C172.394 283.729 172.17 283.818 171.909 283.818ZM176.365 288.75V294H175.024V285.273H176.32V286.636H176.433C176.638 286.193 176.948 285.837 177.365 285.568C177.782 285.295 178.32 285.159 178.979 285.159C179.57 285.159 180.087 285.28 180.53 285.523C180.973 285.761 181.318 286.125 181.564 286.614C181.81 287.098 181.933 287.712 181.933 288.455V294H180.592V288.545C180.592 287.86 180.414 287.326 180.058 286.943C179.702 286.557 179.214 286.364 178.592 286.364C178.164 286.364 177.782 286.456 177.445 286.642C177.111 286.828 176.848 287.098 176.655 287.455C176.462 287.811 176.365 288.242 176.365 288.75ZM187.906 297.455C187.259 297.455 186.702 297.371 186.236 297.205C185.77 297.042 185.382 296.826 185.071 296.557C184.764 296.292 184.52 296.008 184.338 295.705L185.406 294.955C185.527 295.114 185.681 295.295 185.866 295.5C186.052 295.708 186.306 295.888 186.628 296.04C186.954 296.195 187.38 296.273 187.906 296.273C188.611 296.273 189.192 296.102 189.651 295.761C190.109 295.42 190.338 294.886 190.338 294.159V292.386H190.224C190.126 292.545 189.986 292.742 189.804 292.977C189.626 293.208 189.368 293.415 189.031 293.597C188.698 293.775 188.247 293.864 187.679 293.864C186.974 293.864 186.342 293.697 185.781 293.364C185.224 293.03 184.783 292.545 184.457 291.909C184.135 291.273 183.974 290.5 183.974 289.591C183.974 288.697 184.132 287.919 184.446 287.256C184.76 286.589 185.198 286.074 185.759 285.71C186.319 285.343 186.967 285.159 187.702 285.159C188.27 285.159 188.721 285.254 189.054 285.443C189.391 285.629 189.649 285.841 189.827 286.08C190.009 286.314 190.149 286.508 190.247 286.659H190.384V285.273H191.679V294.25C191.679 295 191.509 295.61 191.168 296.08C190.83 296.553 190.376 296.9 189.804 297.119C189.236 297.343 188.603 297.455 187.906 297.455ZM187.861 292.659C188.399 292.659 188.853 292.536 189.224 292.29C189.596 292.044 189.878 291.689 190.071 291.227C190.264 290.765 190.361 290.212 190.361 289.568C190.361 288.939 190.266 288.384 190.077 287.903C189.887 287.422 189.607 287.045 189.236 286.773C188.865 286.5 188.406 286.364 187.861 286.364C187.293 286.364 186.819 286.508 186.44 286.795C186.065 287.083 185.783 287.47 185.594 287.955C185.408 288.439 185.315 288.977 185.315 289.568C185.315 290.174 185.41 290.71 185.599 291.176C185.793 291.638 186.077 292.002 186.452 292.267C186.83 292.528 187.3 292.659 187.861 292.659Z" fill="#FAFAFA"/>
<path d="M282.172 85H278.581V73.3636H282.331C283.46 73.3636 284.426 73.5966 285.229 74.0625C286.032 74.5246 286.647 75.1894 287.075 76.0568C287.503 76.9205 287.717 77.9545 287.717 79.1591C287.717 80.3712 287.501 81.4148 287.07 82.2898C286.638 83.161 286.009 83.8314 285.183 84.3011C284.357 84.767 283.354 85 282.172 85ZM279.99 83.75H282.081C283.043 83.75 283.84 83.5644 284.473 83.1932C285.106 82.822 285.577 82.2936 285.888 81.608C286.198 80.9223 286.354 80.1061 286.354 79.1591C286.354 78.2197 286.2 77.411 285.893 76.733C285.587 76.0511 285.128 75.5284 284.518 75.1648C283.909 74.7973 283.149 74.6136 282.24 74.6136H279.99V83.75ZM292.467 85.2045C291.914 85.2045 291.412 85.1004 290.962 84.892C290.511 84.6799 290.153 84.375 289.888 83.9773C289.623 83.5758 289.49 83.0909 289.49 82.5227C289.49 82.0227 289.589 81.6174 289.786 81.3068C289.982 80.9924 290.246 80.7462 290.575 80.5682C290.905 80.3902 291.268 80.2576 291.666 80.1705C292.068 80.0795 292.471 80.0076 292.876 79.9545C293.407 79.8864 293.837 79.8352 294.166 79.8011C294.5 79.7633 294.742 79.7008 294.893 79.6136C295.049 79.5265 295.126 79.375 295.126 79.1591V79.1136C295.126 78.553 294.973 78.1174 294.666 77.8068C294.363 77.4962 293.903 77.3409 293.286 77.3409C292.645 77.3409 292.143 77.4811 291.78 77.7614C291.416 78.0417 291.161 78.3409 291.013 78.6591L289.74 78.2045C289.967 77.6742 290.27 77.2614 290.649 76.9659C291.032 76.6667 291.448 76.4583 291.899 76.3409C292.354 76.2197 292.801 76.1591 293.24 76.1591C293.52 76.1591 293.842 76.1932 294.206 76.2614C294.573 76.3258 294.928 76.4602 295.268 76.6648C295.613 76.8693 295.899 77.178 296.126 77.5909C296.354 78.0038 296.467 78.5568 296.467 79.25V85H295.126V83.8182H295.058C294.967 84.0076 294.816 84.2102 294.604 84.4261C294.392 84.642 294.109 84.8258 293.757 84.9773C293.405 85.1288 292.975 85.2045 292.467 85.2045ZM292.672 84C293.202 84 293.649 83.8958 294.013 83.6875C294.38 83.4792 294.657 83.2102 294.842 82.8807C295.032 82.5511 295.126 82.2045 295.126 81.8409V80.6136C295.07 80.6818 294.945 80.7443 294.751 80.8011C294.562 80.8542 294.342 80.9015 294.092 80.9432C293.846 80.9811 293.606 81.0152 293.371 81.0455C293.14 81.072 292.952 81.0947 292.808 81.1136C292.46 81.1591 292.134 81.233 291.831 81.3352C291.532 81.4337 291.289 81.5833 291.104 81.7841C290.922 81.9811 290.831 82.25 290.831 82.5909C290.831 83.0568 291.003 83.4091 291.348 83.6477C291.696 83.8826 292.138 84 292.672 84ZM302.71 76.2727V77.4091H298.188V76.2727H302.71ZM299.506 74.1818H300.847V82.5C300.847 82.8788 300.902 83.1629 301.011 83.3523C301.125 83.5379 301.269 83.6629 301.443 83.7273C301.621 83.7879 301.809 83.8182 302.006 83.8182C302.153 83.8182 302.275 83.8106 302.369 83.7955C302.464 83.7765 302.54 83.7614 302.597 83.75L302.869 84.9545C302.778 84.9886 302.652 85.0227 302.489 85.0568C302.326 85.0947 302.119 85.1136 301.869 85.1136C301.491 85.1136 301.119 85.0322 300.756 84.8693C300.396 84.7064 300.097 84.4583 299.858 84.125C299.623 83.7917 299.506 83.3712 299.506 82.8636V74.1818ZM307.295 85.2045C306.742 85.2045 306.241 85.1004 305.79 84.892C305.339 84.6799 304.981 84.375 304.716 83.9773C304.451 83.5758 304.318 83.0909 304.318 82.5227C304.318 82.0227 304.417 81.6174 304.614 81.3068C304.811 80.9924 305.074 80.7462 305.403 80.5682C305.733 80.3902 306.097 80.2576 306.494 80.1705C306.896 80.0795 307.299 80.0076 307.705 79.9545C308.235 79.8864 308.665 79.8352 308.994 79.8011C309.328 79.7633 309.57 79.7008 309.722 79.6136C309.877 79.5265 309.955 79.375 309.955 79.1591V79.1136C309.955 78.553 309.801 78.1174 309.494 77.8068C309.191 77.4962 308.731 77.3409 308.114 77.3409C307.473 77.3409 306.972 77.4811 306.608 77.7614C306.244 78.0417 305.989 78.3409 305.841 78.6591L304.568 78.2045C304.795 77.6742 305.098 77.2614 305.477 76.9659C305.86 76.6667 306.277 76.4583 306.727 76.3409C307.182 76.2197 307.629 76.1591 308.068 76.1591C308.348 76.1591 308.67 76.1932 309.034 76.2614C309.402 76.3258 309.756 76.4602 310.097 76.6648C310.441 76.8693 310.727 77.178 310.955 77.5909C311.182 78.0038 311.295 78.5568 311.295 79.25V85H309.955V83.8182H309.886C309.795 84.0076 309.644 84.2102 309.432 84.4261C309.22 84.642 308.938 84.8258 308.585 84.9773C308.233 85.1288 307.803 85.2045 307.295 85.2045ZM307.5 84C308.03 84 308.477 83.8958 308.841 83.6875C309.208 83.4792 309.485 83.2102 309.67 82.8807C309.86 82.5511 309.955 82.2045 309.955 81.8409V80.6136C309.898 80.6818 309.773 80.7443 309.58 80.8011C309.39 80.8542 309.17 80.9015 308.92 80.9432C308.674 80.9811 308.434 81.0152 308.199 81.0455C307.968 81.072 307.78 81.0947 307.636 81.1136C307.288 81.1591 306.962 81.233 306.659 81.3352C306.36 81.4337 306.117 81.5833 305.932 81.7841C305.75 81.9811 305.659 82.25 305.659 82.5909C305.659 83.0568 305.831 83.4091 306.176 83.6477C306.525 83.8826 306.966 84 307.5 84ZM326.061 73.3636H327.47V81.0682C327.47 81.8636 327.283 82.5739 326.908 83.1989C326.536 83.8201 326.012 84.3106 325.334 84.6705C324.656 85.0265 323.86 85.2045 322.947 85.2045C322.035 85.2045 321.239 85.0265 320.561 84.6705C319.883 84.3106 319.357 83.8201 318.982 83.1989C318.61 82.5739 318.425 81.8636 318.425 81.0682V73.3636H319.834V80.9545C319.834 81.5227 319.959 82.0284 320.209 82.4716C320.459 82.911 320.815 83.2576 321.277 83.5114C321.743 83.7614 322.3 83.8864 322.947 83.8864C323.595 83.8864 324.152 83.7614 324.618 83.5114C325.084 83.2576 325.44 82.911 325.686 82.4716C325.936 82.0284 326.061 81.5227 326.061 80.9545V73.3636ZM331.443 79.75V85H330.102V76.2727H331.398V77.6364H331.511C331.716 77.1932 332.027 76.8371 332.443 76.5682C332.86 76.2955 333.398 76.1591 334.057 76.1591C334.648 76.1591 335.165 76.2803 335.608 76.5227C336.051 76.7614 336.396 77.125 336.642 77.6136C336.888 78.0985 337.011 78.7121 337.011 79.4545V85H335.67V79.5455C335.67 78.8598 335.492 78.3258 335.136 77.9432C334.78 77.5568 334.292 77.3636 333.67 77.3636C333.242 77.3636 332.86 77.4564 332.523 77.642C332.189 77.8277 331.926 78.0985 331.733 78.4545C331.54 78.8106 331.443 79.2424 331.443 79.75ZM342.757 85.1818C342.03 85.1818 341.388 84.9981 340.831 84.6307C340.274 84.2595 339.839 83.7367 339.524 83.0625C339.21 82.3845 339.053 81.5833 339.053 80.6591C339.053 79.7424 339.21 78.947 339.524 78.2727C339.839 77.5985 340.276 77.0777 340.837 76.7102C341.397 76.3428 342.045 76.1591 342.78 76.1591C343.348 76.1591 343.797 76.2538 344.126 76.4432C344.46 76.6288 344.714 76.8409 344.888 77.0795C345.066 77.3144 345.204 77.5076 345.303 77.6591H345.416V73.3636H346.757V85H345.462V83.6591H345.303C345.204 83.8182 345.064 84.0189 344.882 84.2614C344.7 84.5 344.441 84.714 344.104 84.9034C343.767 85.089 343.318 85.1818 342.757 85.1818ZM342.939 83.9773C343.477 83.9773 343.931 83.8371 344.303 83.5568C344.674 83.2727 344.956 82.8807 345.149 82.3807C345.342 81.8769 345.439 81.2955 345.439 80.6364C345.439 79.9848 345.344 79.4148 345.155 78.9261C344.965 78.4337 344.685 78.0511 344.314 77.7784C343.943 77.5019 343.484 77.3636 342.939 77.3636C342.371 77.3636 341.897 77.5095 341.518 77.8011C341.143 78.089 340.861 78.4811 340.672 78.9773C340.486 79.4697 340.393 80.0227 340.393 80.6364C340.393 81.2576 340.488 81.822 340.678 82.3295C340.871 82.8333 341.155 83.2348 341.53 83.5341C341.909 83.8295 342.378 83.9773 342.939 83.9773ZM353.058 85.1818C352.217 85.1818 351.492 84.9962 350.882 84.625C350.276 84.25 349.808 83.7273 349.479 83.0568C349.153 82.3826 348.99 81.5985 348.99 80.7045C348.99 79.8106 349.153 79.0227 349.479 78.3409C349.808 77.6553 350.267 77.1212 350.854 76.7386C351.445 76.3523 352.134 76.1591 352.922 76.1591C353.376 76.1591 353.825 76.2348 354.268 76.3864C354.712 76.5379 355.115 76.7841 355.479 77.125C355.842 77.4621 356.132 77.9091 356.348 78.4659C356.564 79.0227 356.672 79.7083 356.672 80.5227V81.0909H349.945V79.9318H355.308C355.308 79.4394 355.21 79 355.013 78.6136C354.82 78.2273 354.543 77.9223 354.183 77.6989C353.827 77.4754 353.407 77.3636 352.922 77.3636C352.388 77.3636 351.926 77.4962 351.536 77.7614C351.149 78.0227 350.852 78.3636 350.643 78.7841C350.435 79.2045 350.331 79.6553 350.331 80.1364V80.9091C350.331 81.5682 350.445 82.1269 350.672 82.5852C350.903 83.0398 351.223 83.3864 351.632 83.625C352.041 83.8598 352.517 83.9773 353.058 83.9773C353.411 83.9773 353.729 83.928 354.013 83.8295C354.301 83.7273 354.549 83.5758 354.757 83.375C354.965 83.1705 355.126 82.9167 355.24 82.6136L356.536 82.9773C356.399 83.4167 356.17 83.803 355.848 84.1364C355.526 84.4659 355.128 84.7235 354.655 84.9091C354.181 85.0909 353.649 85.1818 353.058 85.1818ZM358.712 85V76.2727H360.007V77.5909H360.098C360.257 77.1591 360.545 76.8087 360.962 76.5398C361.378 76.2708 361.848 76.1364 362.371 76.1364C362.469 76.1364 362.592 76.1383 362.74 76.142C362.888 76.1458 363 76.1515 363.075 76.1591V77.5227C363.03 77.5114 362.926 77.4943 362.763 77.4716C362.604 77.4451 362.435 77.4318 362.257 77.4318C361.833 77.4318 361.454 77.5208 361.121 77.6989C360.791 77.8731 360.53 78.1155 360.337 78.4261C360.147 78.733 360.053 79.0833 360.053 79.4773V85H358.712ZM370.847 78.2273L369.642 78.5682C369.566 78.3674 369.455 78.1723 369.307 77.983C369.163 77.7898 368.966 77.6307 368.716 77.5057C368.466 77.3807 368.146 77.3182 367.756 77.3182C367.222 77.3182 366.777 77.4413 366.42 77.6875C366.068 77.9299 365.892 78.2386 365.892 78.6136C365.892 78.947 366.013 79.2102 366.256 79.4034C366.498 79.5966 366.877 79.7576 367.392 79.8864L368.688 80.2045C369.468 80.3939 370.049 80.6837 370.432 81.0739C370.814 81.4602 371.006 81.9583 371.006 82.5682C371.006 83.0682 370.862 83.5152 370.574 83.9091C370.29 84.303 369.892 84.6136 369.381 84.8409C368.869 85.0682 368.275 85.1818 367.597 85.1818C366.706 85.1818 365.97 84.9886 365.386 84.6023C364.803 84.2159 364.434 83.6515 364.278 82.9091L365.551 82.5909C365.672 83.0606 365.902 83.4129 366.239 83.6477C366.58 83.8826 367.025 84 367.574 84C368.199 84 368.695 83.8674 369.062 83.6023C369.434 83.3333 369.619 83.0114 369.619 82.6364C369.619 82.3333 369.513 82.0795 369.301 81.875C369.089 81.6667 368.763 81.5114 368.324 81.4091L366.869 81.0682C366.07 80.8788 365.483 80.5852 365.108 80.1875C364.737 79.786 364.551 79.2841 364.551 78.6818C364.551 78.1894 364.689 77.7538 364.966 77.375C365.246 76.9962 365.627 76.6989 366.108 76.483C366.593 76.267 367.142 76.1591 367.756 76.1591C368.619 76.1591 369.297 76.3485 369.79 76.7273C370.286 77.1061 370.638 77.6061 370.847 78.2273ZM376.82 76.2727V77.4091H372.297V76.2727H376.82ZM373.615 74.1818H374.956V82.5C374.956 82.8788 375.011 83.1629 375.121 83.3523C375.234 83.5379 375.378 83.6629 375.553 83.7273C375.731 83.7879 375.918 83.8182 376.115 83.8182C376.263 83.8182 376.384 83.8106 376.479 83.7955C376.573 83.7765 376.649 83.7614 376.706 83.75L376.979 84.9545C376.888 84.9886 376.761 85.0227 376.598 85.0568C376.435 85.0947 376.229 85.1136 375.979 85.1136C375.6 85.1136 375.229 85.0322 374.865 84.8693C374.505 84.7064 374.206 84.4583 373.967 84.125C373.732 83.7917 373.615 83.3712 373.615 82.8636V74.1818ZM381.405 85.2045C380.852 85.2045 380.35 85.1004 379.899 84.892C379.448 84.6799 379.09 84.375 378.825 83.9773C378.56 83.5758 378.428 83.0909 378.428 82.5227C378.428 82.0227 378.526 81.6174 378.723 81.3068C378.92 80.9924 379.183 80.7462 379.513 80.5682C379.842 80.3902 380.206 80.2576 380.604 80.1705C381.005 80.0795 381.409 80.0076 381.814 79.9545C382.344 79.8864 382.774 79.8352 383.104 79.8011C383.437 79.7633 383.679 79.7008 383.831 79.6136C383.986 79.5265 384.064 79.375 384.064 79.1591V79.1136C384.064 78.553 383.911 78.1174 383.604 77.8068C383.301 77.4962 382.84 77.3409 382.223 77.3409C381.583 77.3409 381.081 77.4811 380.717 77.7614C380.354 78.0417 380.098 78.3409 379.95 78.6591L378.678 78.2045C378.905 77.6742 379.208 77.2614 379.587 76.9659C379.969 76.6667 380.386 76.4583 380.837 76.3409C381.291 76.2197 381.738 76.1591 382.178 76.1591C382.458 76.1591 382.78 76.1932 383.143 76.2614C383.511 76.3258 383.865 76.4602 384.206 76.6648C384.551 76.8693 384.837 77.178 385.064 77.5909C385.291 78.0038 385.405 78.5568 385.405 79.25V85H384.064V83.8182H383.996C383.905 84.0076 383.753 84.2102 383.541 84.4261C383.329 84.642 383.047 84.8258 382.695 84.9773C382.342 85.1288 381.912 85.2045 381.405 85.2045ZM381.609 84C382.14 84 382.587 83.8958 382.95 83.6875C383.318 83.4792 383.594 83.2102 383.78 82.8807C383.969 82.5511 384.064 82.2045 384.064 81.8409V80.6136C384.007 80.6818 383.882 80.7443 383.689 80.8011C383.5 80.8542 383.28 80.9015 383.03 80.9432C382.784 80.9811 382.543 81.0152 382.308 81.0455C382.077 81.072 381.89 81.0947 381.746 81.1136C381.397 81.1591 381.071 81.233 380.768 81.3352C380.469 81.4337 380.227 81.5833 380.041 81.7841C379.859 81.9811 379.768 82.25 379.768 82.5909C379.768 83.0568 379.941 83.4091 380.286 83.6477C380.634 83.8826 381.075 84 381.609 84ZM389.193 79.75V85H387.852V76.2727H389.148V77.6364H389.261C389.466 77.1932 389.777 76.8371 390.193 76.5682C390.61 76.2955 391.148 76.1591 391.807 76.1591C392.398 76.1591 392.915 76.2803 393.358 76.5227C393.801 76.7614 394.146 77.125 394.392 77.6136C394.638 78.0985 394.761 78.7121 394.761 79.4545V85H393.42V79.5455C393.42 78.8598 393.242 78.3258 392.886 77.9432C392.53 77.5568 392.042 77.3636 391.42 77.3636C390.992 77.3636 390.61 77.4564 390.273 77.642C389.939 77.8277 389.676 78.0985 389.483 78.4545C389.29 78.8106 389.193 79.2424 389.193 79.75ZM400.507 85.1818C399.78 85.1818 399.138 84.9981 398.581 84.6307C398.024 84.2595 397.589 83.7367 397.274 83.0625C396.96 82.3845 396.803 81.5833 396.803 80.6591C396.803 79.7424 396.96 78.947 397.274 78.2727C397.589 77.5985 398.026 77.0777 398.587 76.7102C399.147 76.3428 399.795 76.1591 400.53 76.1591C401.098 76.1591 401.547 76.2538 401.876 76.4432C402.21 76.6288 402.464 76.8409 402.638 77.0795C402.816 77.3144 402.954 77.5076 403.053 77.6591H403.166V73.3636H404.507V85H403.212V83.6591H403.053C402.954 83.8182 402.814 84.0189 402.632 84.2614C402.45 84.5 402.191 84.714 401.854 84.9034C401.517 85.089 401.068 85.1818 400.507 85.1818ZM400.689 83.9773C401.227 83.9773 401.681 83.8371 402.053 83.5568C402.424 83.2727 402.706 82.8807 402.899 82.3807C403.092 81.8769 403.189 81.2955 403.189 80.6364C403.189 79.9848 403.094 79.4148 402.905 78.9261C402.715 78.4337 402.435 78.0511 402.064 77.7784C401.693 77.5019 401.234 77.3636 400.689 77.3636C400.121 77.3636 399.647 77.5095 399.268 77.8011C398.893 78.089 398.611 78.4811 398.422 78.9773C398.236 79.4697 398.143 80.0227 398.143 80.6364C398.143 81.2576 398.238 81.822 398.428 82.3295C398.621 82.8333 398.905 83.2348 399.28 83.5341C399.659 83.8295 400.128 83.9773 400.689 83.9773ZM407.149 85V76.2727H408.49V85H407.149ZM407.831 74.8182C407.57 74.8182 407.344 74.7292 407.155 74.5511C406.969 74.3731 406.876 74.1591 406.876 73.9091C406.876 73.6591 406.969 73.4451 407.155 73.267C407.344 73.089 407.57 73 407.831 73C408.092 73 408.316 73.089 408.501 73.267C408.691 73.4451 408.786 73.6591 408.786 73.9091C408.786 74.1591 408.691 74.3731 408.501 74.5511C408.316 74.7292 408.092 74.8182 407.831 74.8182ZM412.287 79.75V85H410.946V76.2727H412.241V77.6364H412.355C412.56 77.1932 412.87 76.8371 413.287 76.5682C413.704 76.2955 414.241 76.1591 414.901 76.1591C415.491 76.1591 416.009 76.2803 416.452 76.5227C416.895 76.7614 417.24 77.125 417.486 77.6136C417.732 78.0985 417.855 78.7121 417.855 79.4545V85H416.514V79.5455C416.514 78.8598 416.336 78.3258 415.98 77.9432C415.624 77.5568 415.135 77.3636 414.514 77.3636C414.086 77.3636 413.704 77.4564 413.366 77.642C413.033 77.8277 412.77 78.0985 412.577 78.4545C412.384 78.8106 412.287 79.2424 412.287 79.75ZM423.828 88.4545C423.18 88.4545 422.624 88.3712 422.158 88.2045C421.692 88.0417 421.304 87.8258 420.993 87.5568C420.686 87.2917 420.442 87.0076 420.26 86.7045L421.328 85.9545C421.449 86.1136 421.603 86.2955 421.788 86.5C421.974 86.7083 422.228 86.8883 422.55 87.0398C422.875 87.1951 423.302 87.2727 423.828 87.2727C424.533 87.2727 425.114 87.1023 425.572 86.7614C426.031 86.4205 426.26 85.8864 426.26 85.1591V83.3864H426.146C426.048 83.5455 425.908 83.7424 425.726 83.9773C425.548 84.2083 425.29 84.4148 424.953 84.5966C424.62 84.7746 424.169 84.8636 423.601 84.8636C422.896 84.8636 422.264 84.697 421.703 84.3636C421.146 84.0303 420.705 83.5455 420.379 82.9091C420.057 82.2727 419.896 81.5 419.896 80.5909C419.896 79.697 420.054 78.9186 420.368 78.2557C420.682 77.589 421.12 77.0739 421.68 76.7102C422.241 76.3428 422.889 76.1591 423.624 76.1591C424.192 76.1591 424.643 76.2538 424.976 76.4432C425.313 76.6288 425.571 76.8409 425.749 77.0795C425.93 77.3144 426.071 77.5076 426.169 77.6591H426.305V76.2727H427.601V85.25C427.601 86 427.43 86.6098 427.089 87.0795C426.752 87.553 426.298 87.8996 425.726 88.1193C425.158 88.3428 424.525 88.4545 423.828 88.4545ZM423.783 83.6591C424.321 83.6591 424.775 83.536 425.146 83.2898C425.518 83.0436 425.8 82.6894 425.993 82.2273C426.186 81.7652 426.283 81.2121 426.283 80.5682C426.283 79.9394 426.188 79.3845 425.999 78.9034C425.809 78.4223 425.529 78.0455 425.158 77.7727C424.786 77.5 424.328 77.3636 423.783 77.3636C423.214 77.3636 422.741 77.5076 422.362 77.7955C421.987 78.0833 421.705 78.4697 421.516 78.9545C421.33 79.4394 421.237 79.9773 421.237 80.5682C421.237 81.1742 421.332 81.7102 421.521 82.1761C421.714 82.6383 421.999 83.0019 422.374 83.267C422.752 83.5284 423.222 83.6591 423.783 83.6591ZM306.452 108.159C305.687 108.159 305.028 108.019 304.475 107.739C303.922 107.458 303.496 107.074 303.197 106.585C302.897 106.097 302.748 105.538 302.748 104.909C302.748 104.424 302.85 103.994 303.055 103.619C303.263 103.241 303.549 102.89 303.913 102.568C304.28 102.242 304.702 101.917 305.18 101.591L306.862 100.341C307.191 100.125 307.454 99.8939 307.651 99.6477C307.852 99.4015 307.952 99.0795 307.952 98.6818C307.952 98.3864 307.822 98.1004 307.56 97.8239C307.303 97.5473 306.964 97.4091 306.543 97.4091C306.248 97.4091 305.987 97.4848 305.759 97.6364C305.536 97.7841 305.36 97.9735 305.231 98.2045C305.106 98.4318 305.043 98.6667 305.043 98.9091C305.043 99.1818 305.117 99.4583 305.265 99.7386C305.416 100.015 305.608 100.299 305.839 100.591C306.074 100.879 306.316 101.174 306.566 101.477L311.907 108H310.293L305.884 102.682C305.475 102.189 305.104 101.742 304.771 101.341C304.437 100.939 304.172 100.544 303.975 100.153C303.778 99.7633 303.68 99.3409 303.68 98.8864C303.68 98.3636 303.795 97.9053 304.026 97.5114C304.261 97.1136 304.589 96.8049 305.009 96.5852C305.433 96.3617 305.93 96.25 306.498 96.25C307.081 96.25 307.583 96.3636 308.004 96.5909C308.424 96.8144 308.748 97.1117 308.975 97.483C309.202 97.8504 309.316 98.25 309.316 98.6818C309.316 99.2386 309.178 99.7216 308.901 100.131C308.625 100.54 308.248 100.92 307.771 101.273L305.452 103C304.93 103.386 304.576 103.761 304.39 104.125C304.204 104.489 304.112 104.75 304.112 104.909C304.112 105.273 304.206 105.612 304.396 105.926C304.585 106.241 304.852 106.494 305.197 106.688C305.541 106.881 305.945 106.977 306.407 106.977C306.846 106.977 307.274 106.884 307.691 106.699C308.108 106.509 308.485 106.237 308.822 105.881C309.163 105.525 309.432 105.097 309.629 104.597C309.829 104.097 309.93 103.534 309.93 102.909H311.225C311.225 103.682 311.136 104.312 310.958 104.801C310.78 105.29 310.579 105.672 310.356 105.949C310.132 106.225 309.952 106.432 309.816 106.568C309.771 106.625 309.729 106.682 309.691 106.739C309.653 106.795 309.612 106.852 309.566 106.909C309.191 107.33 308.718 107.644 308.146 107.852C307.574 108.057 307.009 108.159 306.452 108.159ZM318.073 108V96.3636H322.005C322.918 96.3636 323.664 96.5284 324.244 96.858C324.827 97.1837 325.259 97.625 325.539 98.1818C325.819 98.7386 325.96 99.3598 325.96 100.045C325.96 100.731 325.819 101.354 325.539 101.915C325.263 102.475 324.835 102.922 324.255 103.256C323.675 103.585 322.933 103.75 322.028 103.75H319.21V102.5H321.982C322.607 102.5 323.109 102.392 323.488 102.176C323.867 101.96 324.141 101.669 324.312 101.301C324.486 100.93 324.573 100.511 324.573 100.045C324.573 99.5795 324.486 99.1629 324.312 98.7955C324.141 98.428 323.865 98.1402 323.482 97.9318C323.1 97.7197 322.592 97.6136 321.96 97.6136H319.482V108H318.073ZM328.048 108V99.2727H329.343V100.591H329.434C329.593 100.159 329.881 99.8087 330.298 99.5398C330.714 99.2708 331.184 99.1364 331.707 99.1364C331.805 99.1364 331.928 99.1383 332.076 99.142C332.224 99.1458 332.335 99.1515 332.411 99.1591V100.523C332.366 100.511 332.262 100.494 332.099 100.472C331.94 100.445 331.771 100.432 331.593 100.432C331.169 100.432 330.79 100.521 330.457 100.699C330.127 100.873 329.866 101.116 329.673 101.426C329.483 101.733 329.388 102.083 329.388 102.477V108H328.048ZM337.394 108.182C336.553 108.182 335.828 107.996 335.218 107.625C334.612 107.25 334.144 106.727 333.815 106.057C333.489 105.383 333.326 104.598 333.326 103.705C333.326 102.811 333.489 102.023 333.815 101.341C334.144 100.655 334.603 100.121 335.19 99.7386C335.781 99.3523 336.47 99.1591 337.258 99.1591C337.712 99.1591 338.161 99.2348 338.604 99.3864C339.048 99.5379 339.451 99.7841 339.815 100.125C340.178 100.462 340.468 100.909 340.684 101.466C340.9 102.023 341.008 102.708 341.008 103.523V104.091H334.281V102.932H339.644C339.644 102.439 339.546 102 339.349 101.614C339.156 101.227 338.879 100.922 338.519 100.699C338.163 100.475 337.743 100.364 337.258 100.364C336.724 100.364 336.262 100.496 335.871 100.761C335.485 101.023 335.188 101.364 334.979 101.784C334.771 102.205 334.667 102.655 334.667 103.136V103.909C334.667 104.568 334.781 105.127 335.008 105.585C335.239 106.04 335.559 106.386 335.968 106.625C336.377 106.86 336.853 106.977 337.394 106.977C337.746 106.977 338.065 106.928 338.349 106.83C338.637 106.727 338.885 106.576 339.093 106.375C339.301 106.17 339.462 105.917 339.576 105.614L340.871 105.977C340.735 106.417 340.506 106.803 340.184 107.136C339.862 107.466 339.464 107.723 338.991 107.909C338.517 108.091 337.985 108.182 337.394 108.182ZM343.048 111.273V99.2727H344.343V100.659H344.502C344.601 100.508 344.737 100.314 344.911 100.08C345.089 99.8409 345.343 99.6288 345.673 99.4432C346.006 99.2538 346.457 99.1591 347.025 99.1591C347.76 99.1591 348.407 99.3428 348.968 99.7102C349.529 100.078 349.966 100.598 350.281 101.273C350.595 101.947 350.752 102.742 350.752 103.659C350.752 104.583 350.595 105.384 350.281 106.062C349.966 106.737 349.531 107.259 348.974 107.631C348.417 107.998 347.775 108.182 347.048 108.182C346.487 108.182 346.038 108.089 345.701 107.903C345.364 107.714 345.104 107.5 344.923 107.261C344.741 107.019 344.601 106.818 344.502 106.659H344.388V111.273H343.048ZM344.366 103.636C344.366 104.295 344.462 104.877 344.656 105.381C344.849 105.881 345.131 106.273 345.502 106.557C345.873 106.837 346.328 106.977 346.866 106.977C347.426 106.977 347.894 106.83 348.269 106.534C348.648 106.235 348.932 105.833 349.121 105.33C349.315 104.822 349.411 104.258 349.411 103.636C349.411 103.023 349.317 102.47 349.127 101.977C348.942 101.481 348.659 101.089 348.281 100.801C347.906 100.509 347.434 100.364 346.866 100.364C346.32 100.364 345.862 100.502 345.491 100.778C345.12 101.051 344.839 101.434 344.65 101.926C344.46 102.415 344.366 102.985 344.366 103.636ZM355.366 108.205C354.813 108.205 354.311 108.1 353.86 107.892C353.409 107.68 353.051 107.375 352.786 106.977C352.521 106.576 352.388 106.091 352.388 105.523C352.388 105.023 352.487 104.617 352.684 104.307C352.881 103.992 353.144 103.746 353.474 103.568C353.803 103.39 354.167 103.258 354.565 103.17C354.966 103.08 355.37 103.008 355.775 102.955C356.305 102.886 356.735 102.835 357.065 102.801C357.398 102.763 357.64 102.701 357.792 102.614C357.947 102.527 358.025 102.375 358.025 102.159V102.114C358.025 101.553 357.871 101.117 357.565 100.807C357.262 100.496 356.801 100.341 356.184 100.341C355.544 100.341 355.042 100.481 354.678 100.761C354.315 101.042 354.059 101.341 353.911 101.659L352.638 101.205C352.866 100.674 353.169 100.261 353.548 99.9659C353.93 99.6667 354.347 99.4583 354.798 99.3409C355.252 99.2197 355.699 99.1591 356.138 99.1591C356.419 99.1591 356.741 99.1932 357.104 99.2614C357.472 99.3258 357.826 99.4602 358.167 99.6648C358.512 99.8693 358.798 100.178 359.025 100.591C359.252 101.004 359.366 101.557 359.366 102.25V108H358.025V106.818H357.957C357.866 107.008 357.714 107.21 357.502 107.426C357.29 107.642 357.008 107.826 356.656 107.977C356.303 108.129 355.873 108.205 355.366 108.205ZM355.57 107C356.101 107 356.548 106.896 356.911 106.688C357.279 106.479 357.555 106.21 357.741 105.881C357.93 105.551 358.025 105.205 358.025 104.841V103.614C357.968 103.682 357.843 103.744 357.65 103.801C357.46 103.854 357.241 103.902 356.991 103.943C356.745 103.981 356.504 104.015 356.269 104.045C356.038 104.072 355.851 104.095 355.707 104.114C355.358 104.159 355.032 104.233 354.729 104.335C354.43 104.434 354.188 104.583 354.002 104.784C353.82 104.981 353.729 105.25 353.729 105.591C353.729 106.057 353.902 106.409 354.246 106.648C354.595 106.883 355.036 107 355.57 107ZM361.813 108V99.2727H363.109V100.591H363.2C363.359 100.159 363.647 99.8087 364.063 99.5398C364.48 99.2708 364.95 99.1364 365.472 99.1364C365.571 99.1364 365.694 99.1383 365.842 99.142C365.989 99.1458 366.101 99.1515 366.177 99.1591V100.523C366.131 100.511 366.027 100.494 365.864 100.472C365.705 100.445 365.537 100.432 365.359 100.432C364.934 100.432 364.556 100.521 364.222 100.699C363.893 100.873 363.631 101.116 363.438 101.426C363.249 101.733 363.154 102.083 363.154 102.477V108H361.813ZM370.335 108.205C369.781 108.205 369.28 108.1 368.829 107.892C368.378 107.68 368.02 107.375 367.755 106.977C367.49 106.576 367.357 106.091 367.357 105.523C367.357 105.023 367.456 104.617 367.653 104.307C367.85 103.992 368.113 103.746 368.442 103.568C368.772 103.39 369.136 103.258 369.533 103.17C369.935 103.08 370.338 103.008 370.744 102.955C371.274 102.886 371.704 102.835 372.033 102.801C372.367 102.763 372.609 102.701 372.761 102.614C372.916 102.527 372.994 102.375 372.994 102.159V102.114C372.994 101.553 372.84 101.117 372.533 100.807C372.23 100.496 371.77 100.341 371.153 100.341C370.513 100.341 370.011 100.481 369.647 100.761C369.283 101.042 369.028 101.341 368.88 101.659L367.607 101.205C367.835 100.674 368.138 100.261 368.516 99.9659C368.899 99.6667 369.316 99.4583 369.766 99.3409C370.221 99.2197 370.668 99.1591 371.107 99.1591C371.388 99.1591 371.71 99.1932 372.073 99.2614C372.441 99.3258 372.795 99.4602 373.136 99.6648C373.48 99.8693 373.766 100.178 373.994 100.591C374.221 101.004 374.335 101.557 374.335 102.25V108H372.994V106.818H372.925C372.835 107.008 372.683 107.21 372.471 107.426C372.259 107.642 371.977 107.826 371.624 107.977C371.272 108.129 370.842 108.205 370.335 108.205ZM370.539 107C371.069 107 371.516 106.896 371.88 106.688C372.247 106.479 372.524 106.21 372.71 105.881C372.899 105.551 372.994 105.205 372.994 104.841V103.614C372.937 103.682 372.812 103.744 372.619 103.801C372.429 103.854 372.21 103.902 371.96 103.943C371.713 103.981 371.473 104.015 371.238 104.045C371.007 104.072 370.819 104.095 370.675 104.114C370.327 104.159 370.001 104.233 369.698 104.335C369.399 104.434 369.156 104.583 368.971 104.784C368.789 104.981 368.698 105.25 368.698 105.591C368.698 106.057 368.871 106.409 369.215 106.648C369.564 106.883 370.005 107 370.539 107ZM380.577 99.2727V100.409H376.055V99.2727H380.577ZM377.373 97.1818H378.714V105.5C378.714 105.879 378.769 106.163 378.879 106.352C378.992 106.538 379.136 106.663 379.31 106.727C379.488 106.788 379.676 106.818 379.873 106.818C380.021 106.818 380.142 106.811 380.237 106.795C380.331 106.777 380.407 106.761 380.464 106.75L380.737 107.955C380.646 107.989 380.519 108.023 380.356 108.057C380.193 108.095 379.987 108.114 379.737 108.114C379.358 108.114 378.987 108.032 378.623 107.869C378.263 107.706 377.964 107.458 377.725 107.125C377.49 106.792 377.373 106.371 377.373 105.864V97.1818ZM382.594 108V99.2727H383.935V108H382.594ZM383.276 97.8182C383.015 97.8182 382.79 97.7292 382.6 97.5511C382.415 97.3731 382.322 97.1591 382.322 96.9091C382.322 96.6591 382.415 96.4451 382.6 96.267C382.79 96.089 383.015 96 383.276 96C383.538 96 383.761 96.089 383.947 96.267C384.136 96.4451 384.231 96.6591 384.231 96.9091C384.231 97.1591 384.136 97.3731 383.947 97.5511C383.761 97.7292 383.538 97.8182 383.276 97.8182ZM389.937 108.182C389.149 108.182 388.458 107.994 387.863 107.619C387.272 107.244 386.81 106.72 386.477 106.045C386.147 105.371 385.982 104.583 385.982 103.682C385.982 102.773 386.147 101.979 386.477 101.301C386.81 100.623 387.272 100.097 387.863 99.7216C388.458 99.3466 389.149 99.1591 389.937 99.1591C390.725 99.1591 391.414 99.3466 392.005 99.7216C392.6 100.097 393.062 100.623 393.391 101.301C393.725 101.979 393.891 102.773 393.891 103.682C393.891 104.583 393.725 105.371 393.391 106.045C393.062 106.72 392.6 107.244 392.005 107.619C391.414 107.994 390.725 108.182 389.937 108.182ZM389.937 106.977C390.535 106.977 391.028 106.824 391.414 106.517C391.8 106.21 392.086 105.807 392.272 105.307C392.458 104.807 392.55 104.265 392.55 103.682C392.55 103.098 392.458 102.555 392.272 102.051C392.086 101.547 391.8 101.14 391.414 100.83C391.028 100.519 390.535 100.364 389.937 100.364C389.338 100.364 388.846 100.519 388.46 100.83C388.073 101.14 387.787 101.547 387.602 102.051C387.416 102.555 387.323 103.098 387.323 103.682C387.323 104.265 387.416 104.807 387.602 105.307C387.787 105.807 388.073 106.21 388.46 106.517C388.846 106.824 389.338 106.977 389.937 106.977ZM397.279 102.75V108H395.938V99.2727H397.234V100.636H397.347C397.552 100.193 397.862 99.8371 398.279 99.5682C398.696 99.2955 399.234 99.1591 399.893 99.1591C400.484 99.1591 401.001 99.2803 401.444 99.5227C401.887 99.7614 402.232 100.125 402.478 100.614C402.724 101.098 402.847 101.712 402.847 102.455V108H401.506V102.545C401.506 101.86 401.328 101.326 400.972 100.943C400.616 100.557 400.128 100.364 399.506 100.364C399.078 100.364 398.696 100.456 398.359 100.642C398.025 100.828 397.762 101.098 397.569 101.455C397.376 101.811 397.279 102.242 397.279 102.75Z" fill="#3F3A3B"/>
<path d="M747.487 107V95.3636H754.51V96.6136H748.896V100.545H754.146V101.795H748.896V105.75H754.601V107H747.487ZM764.004 98.2727L760.777 107H759.413L756.186 98.2727H757.641L760.05 105.227H760.141L762.55 98.2727H764.004ZM768.077 107.205C767.524 107.205 767.022 107.1 766.571 106.892C766.12 106.68 765.762 106.375 765.497 105.977C765.232 105.576 765.099 105.091 765.099 104.523C765.099 104.023 765.198 103.617 765.395 103.307C765.592 102.992 765.855 102.746 766.185 102.568C766.514 102.39 766.878 102.258 767.276 102.17C767.677 102.08 768.08 102.008 768.486 101.955C769.016 101.886 769.446 101.835 769.776 101.801C770.109 101.763 770.351 101.701 770.503 101.614C770.658 101.527 770.736 101.375 770.736 101.159V101.114C770.736 100.553 770.582 100.117 770.276 99.8068C769.973 99.4962 769.512 99.3409 768.895 99.3409C768.255 99.3409 767.753 99.4811 767.389 99.7614C767.026 100.042 766.77 100.341 766.622 100.659L765.349 100.205C765.577 99.6742 765.88 99.2614 766.259 98.9659C766.641 98.6667 767.058 98.4583 767.509 98.3409C767.963 98.2197 768.41 98.1591 768.849 98.1591C769.13 98.1591 769.452 98.1932 769.815 98.2614C770.183 98.3258 770.537 98.4602 770.878 98.6648C771.223 98.8693 771.509 99.178 771.736 99.5909C771.963 100.004 772.077 100.557 772.077 101.25V107H770.736V105.818H770.668C770.577 106.008 770.425 106.21 770.213 106.426C770.001 106.642 769.719 106.826 769.366 106.977C769.014 107.129 768.584 107.205 768.077 107.205ZM768.281 106C768.812 106 769.259 105.896 769.622 105.688C769.99 105.479 770.266 105.21 770.452 104.881C770.641 104.551 770.736 104.205 770.736 103.841V102.614C770.679 102.682 770.554 102.744 770.361 102.801C770.171 102.854 769.952 102.902 769.702 102.943C769.455 102.981 769.215 103.015 768.98 103.045C768.749 103.072 768.562 103.095 768.418 103.114C768.069 103.159 767.743 103.233 767.44 103.335C767.141 103.434 766.899 103.583 766.713 103.784C766.531 103.981 766.44 104.25 766.44 104.591C766.44 105.057 766.613 105.409 766.957 105.648C767.306 105.883 767.747 106 768.281 106ZM775.865 95.3636V107H774.524V95.3636H775.865ZM783.821 103.432V98.2727H785.162V107H783.821V105.523H783.73C783.526 105.966 783.207 106.343 782.776 106.653C782.344 106.96 781.798 107.114 781.139 107.114C780.594 107.114 780.109 106.994 779.685 106.756C779.26 106.513 778.927 106.15 778.685 105.665C778.442 105.176 778.321 104.561 778.321 103.818V98.2727H779.662V103.727C779.662 104.364 779.84 104.871 780.196 105.25C780.556 105.629 781.014 105.818 781.571 105.818C781.904 105.818 782.243 105.733 782.588 105.562C782.937 105.392 783.228 105.131 783.463 104.778C783.702 104.426 783.821 103.977 783.821 103.432ZM790.186 107.205C789.633 107.205 789.131 107.1 788.68 106.892C788.23 106.68 787.872 106.375 787.607 105.977C787.341 105.576 787.209 105.091 787.209 104.523C787.209 104.023 787.307 103.617 787.504 103.307C787.701 102.992 787.964 102.746 788.294 102.568C788.624 102.39 788.987 102.258 789.385 102.17C789.786 102.08 790.19 102.008 790.595 101.955C791.125 101.886 791.555 101.835 791.885 101.801C792.218 101.763 792.461 101.701 792.612 101.614C792.768 101.527 792.845 101.375 792.845 101.159V101.114C792.845 100.553 792.692 100.117 792.385 99.8068C792.082 99.4962 791.622 99.3409 791.004 99.3409C790.364 99.3409 789.862 99.4811 789.499 99.7614C789.135 100.042 788.879 100.341 788.732 100.659L787.459 100.205C787.686 99.6742 787.989 99.2614 788.368 98.9659C788.75 98.6667 789.167 98.4583 789.618 98.3409C790.072 98.2197 790.519 98.1591 790.959 98.1591C791.239 98.1591 791.561 98.1932 791.925 98.2614C792.292 98.3258 792.646 98.4602 792.987 98.6648C793.332 98.8693 793.618 99.178 793.845 99.5909C794.072 100.004 794.186 100.557 794.186 101.25V107H792.845V105.818H792.777C792.686 106.008 792.535 106.21 792.322 106.426C792.11 106.642 791.828 106.826 791.476 106.977C791.124 107.129 790.694 107.205 790.186 107.205ZM790.391 106C790.921 106 791.368 105.896 791.732 105.688C792.099 105.479 792.375 105.21 792.561 104.881C792.75 104.551 792.845 104.205 792.845 103.841V102.614C792.788 102.682 792.663 102.744 792.47 102.801C792.281 102.854 792.061 102.902 791.811 102.943C791.565 102.981 791.324 103.015 791.089 103.045C790.858 103.072 790.671 103.095 790.527 103.114C790.179 103.159 789.853 103.233 789.55 103.335C789.25 103.434 789.008 103.583 788.822 103.784C788.641 103.981 788.55 104.25 788.55 104.591C788.55 105.057 788.722 105.409 789.067 105.648C789.415 105.883 789.857 106 790.391 106ZM800.429 98.2727V99.4091H795.906V98.2727H800.429ZM797.224 96.1818H798.565V104.5C798.565 104.879 798.62 105.163 798.73 105.352C798.844 105.538 798.988 105.663 799.162 105.727C799.34 105.788 799.527 105.818 799.724 105.818C799.872 105.818 799.993 105.811 800.088 105.795C800.183 105.777 800.259 105.761 800.315 105.75L800.588 106.955C800.497 106.989 800.37 107.023 800.207 107.057C800.045 107.095 799.838 107.114 799.588 107.114C799.209 107.114 798.838 107.032 798.474 106.869C798.115 106.706 797.815 106.458 797.577 106.125C797.342 105.792 797.224 105.371 797.224 104.864V96.1818ZM802.446 107V98.2727H803.787V107H802.446ZM803.128 96.8182C802.866 96.8182 802.641 96.7292 802.452 96.5511C802.266 96.3731 802.173 96.1591 802.173 95.9091C802.173 95.6591 802.266 95.4451 802.452 95.267C802.641 95.089 802.866 95 803.128 95C803.389 95 803.613 95.089 803.798 95.267C803.988 95.4451 804.082 95.6591 804.082 95.9091C804.082 96.1591 803.988 96.3731 803.798 96.5511C803.613 96.7292 803.389 96.8182 803.128 96.8182ZM809.788 107.182C809 107.182 808.309 106.994 807.714 106.619C807.124 106.244 806.661 105.72 806.328 105.045C805.999 104.371 805.834 103.583 805.834 102.682C805.834 101.773 805.999 100.979 806.328 100.301C806.661 99.6231 807.124 99.0966 807.714 98.7216C808.309 98.3466 809 98.1591 809.788 98.1591C810.576 98.1591 811.266 98.3466 811.857 98.7216C812.451 99.0966 812.913 99.6231 813.243 100.301C813.576 100.979 813.743 101.773 813.743 102.682C813.743 103.583 813.576 104.371 813.243 105.045C812.913 105.72 812.451 106.244 811.857 106.619C811.266 106.994 810.576 107.182 809.788 107.182ZM809.788 105.977C810.387 105.977 810.879 105.824 811.266 105.517C811.652 105.21 811.938 104.807 812.124 104.307C812.309 103.807 812.402 103.265 812.402 102.682C812.402 102.098 812.309 101.555 812.124 101.051C811.938 100.547 811.652 100.14 811.266 99.8295C810.879 99.5189 810.387 99.3636 809.788 99.3636C809.19 99.3636 808.697 99.5189 808.311 99.8295C807.925 100.14 807.639 100.547 807.453 101.051C807.268 101.555 807.175 102.098 807.175 102.682C807.175 103.265 807.268 103.807 807.453 104.307C807.639 104.807 807.925 105.21 808.311 105.517C808.697 105.824 809.19 105.977 809.788 105.977ZM817.131 101.75V107H815.79V98.2727H817.085V99.6364H817.199C817.403 99.1932 817.714 98.8371 818.131 98.5682C818.547 98.2955 819.085 98.1591 819.744 98.1591C820.335 98.1591 820.852 98.2803 821.295 98.5227C821.739 98.7614 822.083 99.125 822.33 99.6136C822.576 100.098 822.699 100.712 822.699 101.455V107H821.358V101.545C821.358 100.86 821.18 100.326 820.824 99.9432C820.468 99.5568 819.979 99.3636 819.358 99.3636C818.93 99.3636 818.547 99.4564 818.21 99.642C817.877 99.8277 817.614 100.098 817.42 100.455C817.227 100.811 817.131 101.242 817.131 101.75Z" fill="#3F3A3B"/>
<path d="M536.542 259.364H538.224L542.178 269.023H542.315L546.269 259.364H547.951V271H546.633V262.159H546.519L542.883 271H541.61L537.974 262.159H537.86V271H536.542V259.364ZM554.14 271.182C553.352 271.182 552.661 270.994 552.066 270.619C551.475 270.244 551.013 269.72 550.68 269.045C550.35 268.371 550.185 267.583 550.185 266.682C550.185 265.773 550.35 264.979 550.68 264.301C551.013 263.623 551.475 263.097 552.066 262.722C552.661 262.347 553.352 262.159 554.14 262.159C554.928 262.159 555.617 262.347 556.208 262.722C556.803 263.097 557.265 263.623 557.594 264.301C557.928 264.979 558.094 265.773 558.094 266.682C558.094 267.583 557.928 268.371 557.594 269.045C557.265 269.72 556.803 270.244 556.208 270.619C555.617 270.994 554.928 271.182 554.14 271.182ZM554.14 269.977C554.738 269.977 555.231 269.824 555.617 269.517C556.004 269.21 556.29 268.807 556.475 268.307C556.661 267.807 556.754 267.265 556.754 266.682C556.754 266.098 556.661 265.555 556.475 265.051C556.29 264.547 556.004 264.14 555.617 263.83C555.231 263.519 554.738 263.364 554.14 263.364C553.541 263.364 553.049 263.519 552.663 263.83C552.276 264.14 551.99 264.547 551.805 265.051C551.619 265.555 551.526 266.098 551.526 266.682C551.526 267.265 551.619 267.807 551.805 268.307C551.99 268.807 552.276 269.21 552.663 269.517C553.049 269.824 553.541 269.977 554.14 269.977ZM563.437 271.182C562.71 271.182 562.067 270.998 561.511 270.631C560.954 270.259 560.518 269.737 560.204 269.062C559.889 268.384 559.732 267.583 559.732 266.659C559.732 265.742 559.889 264.947 560.204 264.273C560.518 263.598 560.956 263.078 561.516 262.71C562.077 262.343 562.725 262.159 563.46 262.159C564.028 262.159 564.477 262.254 564.806 262.443C565.139 262.629 565.393 262.841 565.567 263.08C565.746 263.314 565.884 263.508 565.982 263.659H566.096V259.364H567.437V271H566.141V269.659H565.982C565.884 269.818 565.744 270.019 565.562 270.261C565.38 270.5 565.121 270.714 564.783 270.903C564.446 271.089 563.997 271.182 563.437 271.182ZM563.619 269.977C564.156 269.977 564.611 269.837 564.982 269.557C565.353 269.273 565.636 268.881 565.829 268.381C566.022 267.877 566.119 267.295 566.119 266.636C566.119 265.985 566.024 265.415 565.835 264.926C565.645 264.434 565.365 264.051 564.994 263.778C564.622 263.502 564.164 263.364 563.619 263.364C563.05 263.364 562.577 263.509 562.198 263.801C561.823 264.089 561.541 264.481 561.352 264.977C561.166 265.47 561.073 266.023 561.073 266.636C561.073 267.258 561.168 267.822 561.357 268.33C561.55 268.833 561.835 269.235 562.21 269.534C562.588 269.83 563.058 269.977 563.619 269.977ZM573.738 271.182C572.897 271.182 572.172 270.996 571.562 270.625C570.956 270.25 570.488 269.727 570.158 269.057C569.833 268.383 569.67 267.598 569.67 266.705C569.67 265.811 569.833 265.023 570.158 264.341C570.488 263.655 570.946 263.121 571.533 262.739C572.124 262.352 572.814 262.159 573.602 262.159C574.056 262.159 574.505 262.235 574.948 262.386C575.391 262.538 575.795 262.784 576.158 263.125C576.522 263.462 576.812 263.909 577.028 264.466C577.244 265.023 577.352 265.708 577.352 266.523V267.091H570.624V265.932H575.988C575.988 265.439 575.889 265 575.692 264.614C575.499 264.227 575.223 263.922 574.863 263.699C574.507 263.475 574.086 263.364 573.602 263.364C573.067 263.364 572.605 263.496 572.215 263.761C571.829 264.023 571.531 264.364 571.323 264.784C571.115 265.205 571.011 265.655 571.011 266.136V266.909C571.011 267.568 571.124 268.127 571.352 268.585C571.583 269.04 571.903 269.386 572.312 269.625C572.721 269.86 573.196 269.977 573.738 269.977C574.09 269.977 574.408 269.928 574.692 269.83C574.98 269.727 575.228 269.576 575.437 269.375C575.645 269.17 575.806 268.917 575.92 268.614L577.215 268.977C577.079 269.417 576.85 269.803 576.528 270.136C576.206 270.466 575.808 270.723 575.335 270.909C574.861 271.091 574.329 271.182 573.738 271.182ZM580.732 259.364V271H579.391V259.364H580.732ZM583.188 271V262.273H584.529V271H583.188ZM583.87 260.818C583.609 260.818 583.383 260.729 583.194 260.551C583.008 260.373 582.915 260.159 582.915 259.909C582.915 259.659 583.008 259.445 583.194 259.267C583.383 259.089 583.609 259 583.87 259C584.131 259 584.355 259.089 584.54 259.267C584.73 259.445 584.825 259.659 584.825 259.909C584.825 260.159 584.73 260.373 584.54 260.551C584.355 260.729 584.131 260.818 583.87 260.818ZM588.326 265.75V271H586.985V262.273H588.281V263.636H588.394C588.599 263.193 588.909 262.837 589.326 262.568C589.743 262.295 590.281 262.159 590.94 262.159C591.531 262.159 592.048 262.28 592.491 262.523C592.934 262.761 593.279 263.125 593.525 263.614C593.771 264.098 593.894 264.712 593.894 265.455V271H592.553V265.545C592.553 264.86 592.375 264.326 592.019 263.943C591.663 263.557 591.174 263.364 590.553 263.364C590.125 263.364 589.743 263.456 589.406 263.642C589.072 263.828 588.809 264.098 588.616 264.455C588.423 264.811 588.326 265.242 588.326 265.75ZM599.867 274.455C599.219 274.455 598.663 274.371 598.197 274.205C597.731 274.042 597.343 273.826 597.032 273.557C596.725 273.292 596.481 273.008 596.299 272.705L597.367 271.955C597.488 272.114 597.642 272.295 597.827 272.5C598.013 272.708 598.267 272.888 598.589 273.04C598.915 273.195 599.341 273.273 599.867 273.273C600.572 273.273 601.153 273.102 601.612 272.761C602.07 272.42 602.299 271.886 602.299 271.159V269.386H602.185C602.087 269.545 601.947 269.742 601.765 269.977C601.587 270.208 601.329 270.415 600.992 270.597C600.659 270.775 600.208 270.864 599.64 270.864C598.935 270.864 598.303 270.697 597.742 270.364C597.185 270.03 596.744 269.545 596.418 268.909C596.096 268.273 595.935 267.5 595.935 266.591C595.935 265.697 596.093 264.919 596.407 264.256C596.721 263.589 597.159 263.074 597.719 262.71C598.28 262.343 598.928 262.159 599.663 262.159C600.231 262.159 600.682 262.254 601.015 262.443C601.352 262.629 601.61 262.841 601.788 263.08C601.969 263.314 602.11 263.508 602.208 263.659H602.344V262.273H603.64V271.25C603.64 272 603.469 272.61 603.129 273.08C602.791 273.553 602.337 273.9 601.765 274.119C601.197 274.343 600.564 274.455 599.867 274.455ZM599.822 269.659C600.36 269.659 600.814 269.536 601.185 269.29C601.557 269.044 601.839 268.689 602.032 268.227C602.225 267.765 602.322 267.212 602.322 266.568C602.322 265.939 602.227 265.384 602.038 264.903C601.848 264.422 601.568 264.045 601.197 263.773C600.826 263.5 600.367 263.364 599.822 263.364C599.254 263.364 598.78 263.508 598.401 263.795C598.026 264.083 597.744 264.47 597.555 264.955C597.369 265.439 597.276 265.977 597.276 266.568C597.276 267.174 597.371 267.71 597.56 268.176C597.754 268.638 598.038 269.002 598.413 269.267C598.791 269.528 599.261 269.659 599.822 269.659Z" fill="#FAFAFA"/>
<path d="M961.055 271H957.464V259.364H961.214C962.343 259.364 963.308 259.597 964.112 260.062C964.915 260.525 965.53 261.189 965.958 262.057C966.386 262.92 966.6 263.955 966.6 265.159C966.6 266.371 966.384 267.415 965.952 268.29C965.521 269.161 964.892 269.831 964.066 270.301C963.24 270.767 962.237 271 961.055 271ZM958.873 269.75H960.964C961.926 269.75 962.723 269.564 963.356 269.193C963.988 268.822 964.46 268.294 964.771 267.608C965.081 266.922 965.237 266.106 965.237 265.159C965.237 264.22 965.083 263.411 964.776 262.733C964.469 262.051 964.011 261.528 963.401 261.165C962.791 260.797 962.032 260.614 961.123 260.614H958.873V269.75ZM972.441 271.182C971.6 271.182 970.875 270.996 970.265 270.625C969.659 270.25 969.191 269.727 968.862 269.057C968.536 268.383 968.373 267.598 968.373 266.705C968.373 265.811 968.536 265.023 968.862 264.341C969.191 263.655 969.649 263.121 970.237 262.739C970.827 262.352 971.517 262.159 972.305 262.159C972.759 262.159 973.208 262.235 973.651 262.386C974.094 262.538 974.498 262.784 974.862 263.125C975.225 263.462 975.515 263.909 975.731 264.466C975.947 265.023 976.055 265.708 976.055 266.523V267.091H969.327V265.932H974.691C974.691 265.439 974.593 265 974.396 264.614C974.202 264.227 973.926 263.922 973.566 263.699C973.21 263.475 972.79 263.364 972.305 263.364C971.771 263.364 971.308 263.496 970.918 263.761C970.532 264.023 970.235 264.364 970.026 264.784C969.818 265.205 969.714 265.655 969.714 266.136V266.909C969.714 267.568 969.827 268.127 970.055 268.585C970.286 269.04 970.606 269.386 971.015 269.625C971.424 269.86 971.899 269.977 972.441 269.977C972.793 269.977 973.112 269.928 973.396 269.83C973.683 269.727 973.932 269.576 974.14 269.375C974.348 269.17 974.509 268.917 974.623 268.614L975.918 268.977C975.782 269.417 975.553 269.803 975.231 270.136C974.909 270.466 974.511 270.723 974.038 270.909C973.564 271.091 973.032 271.182 972.441 271.182ZM978.094 274.273V262.273H979.39V263.659H979.549C979.647 263.508 979.784 263.314 979.958 263.08C980.136 262.841 980.39 262.629 980.719 262.443C981.053 262.254 981.504 262.159 982.072 262.159C982.807 262.159 983.454 262.343 984.015 262.71C984.576 263.078 985.013 263.598 985.327 264.273C985.642 264.947 985.799 265.742 985.799 266.659C985.799 267.583 985.642 268.384 985.327 269.062C985.013 269.737 984.577 270.259 984.021 270.631C983.464 270.998 982.822 271.182 982.094 271.182C981.534 271.182 981.085 271.089 980.748 270.903C980.411 270.714 980.151 270.5 979.969 270.261C979.788 270.019 979.647 269.818 979.549 269.659H979.435V274.273H978.094ZM979.413 266.636C979.413 267.295 979.509 267.877 979.702 268.381C979.896 268.881 980.178 269.273 980.549 269.557C980.92 269.837 981.375 269.977 981.913 269.977C982.473 269.977 982.941 269.83 983.316 269.534C983.695 269.235 983.979 268.833 984.168 268.33C984.362 267.822 984.458 267.258 984.458 266.636C984.458 266.023 984.363 265.47 984.174 264.977C983.988 264.481 983.706 264.089 983.327 263.801C982.952 263.509 982.481 263.364 981.913 263.364C981.367 263.364 980.909 263.502 980.538 263.778C980.166 264.051 979.886 264.434 979.697 264.926C979.507 265.415 979.413 265.985 979.413 266.636ZM989.185 259.364V271H987.844V259.364H989.185ZM995.187 271.182C994.399 271.182 993.708 270.994 993.113 270.619C992.522 270.244 992.06 269.72 991.727 269.045C991.397 268.371 991.232 267.583 991.232 266.682C991.232 265.773 991.397 264.979 991.727 264.301C992.06 263.623 992.522 263.097 993.113 262.722C993.708 262.347 994.399 262.159 995.187 262.159C995.975 262.159 996.664 262.347 997.255 262.722C997.85 263.097 998.312 263.623 998.641 264.301C998.975 264.979 999.141 265.773 999.141 266.682C999.141 267.583 998.975 268.371 998.641 269.045C998.312 269.72 997.85 270.244 997.255 270.619C996.664 270.994 995.975 271.182 995.187 271.182ZM995.187 269.977C995.785 269.977 996.278 269.824 996.664 269.517C997.05 269.21 997.336 268.807 997.522 268.307C997.708 267.807 997.8 267.265 997.8 266.682C997.8 266.098 997.708 265.555 997.522 265.051C997.336 264.547 997.05 264.14 996.664 263.83C996.278 263.519 995.785 263.364 995.187 263.364C994.588 263.364 994.096 263.519 993.71 263.83C993.323 264.14 993.037 264.547 992.852 265.051C992.666 265.555 992.573 266.098 992.573 266.682C992.573 267.265 992.666 267.807 992.852 268.307C993.037 268.807 993.323 269.21 993.71 269.517C994.096 269.824 994.588 269.977 995.187 269.977ZM1001.74 274.273C1001.51 274.273 1001.31 274.254 1001.13 274.216C1000.95 274.182 1000.83 274.148 1000.76 274.114L1001.1 272.932C1001.43 273.015 1001.72 273.045 1001.97 273.023C1002.22 273 1002.44 272.888 1002.63 272.688C1002.83 272.491 1003.01 272.17 1003.17 271.727L1003.42 271.045L1000.19 262.273H1001.65L1004.06 269.227H1004.15L1006.56 262.273H1008.01L1004.31 272.273C1004.14 272.723 1003.93 273.097 1003.69 273.392C1003.44 273.691 1003.16 273.913 1002.83 274.057C1002.51 274.201 1002.14 274.273 1001.74 274.273ZM1009.78 271V262.273H1011.08V263.636H1011.19C1011.37 263.17 1011.67 262.809 1012.07 262.551C1012.48 262.29 1012.96 262.159 1013.53 262.159C1014.11 262.159 1014.59 262.29 1014.97 262.551C1015.36 262.809 1015.66 263.17 1015.87 263.636H1015.96C1016.19 263.186 1016.52 262.828 1016.97 262.562C1017.42 262.294 1017.95 262.159 1018.58 262.159C1019.36 262.159 1020 262.403 1020.49 262.892C1020.99 263.377 1021.24 264.133 1021.24 265.159V271H1019.9V265.159C1019.9 264.515 1019.72 264.055 1019.37 263.778C1019.01 263.502 1018.6 263.364 1018.12 263.364C1017.51 263.364 1017.03 263.549 1016.7 263.92C1016.36 264.288 1016.19 264.754 1016.19 265.318V271H1014.83V265.023C1014.83 264.527 1014.67 264.127 1014.34 263.824C1014.02 263.517 1013.61 263.364 1013.1 263.364C1012.75 263.364 1012.43 263.456 1012.12 263.642C1011.82 263.828 1011.58 264.085 1011.4 264.415C1011.21 264.741 1011.12 265.117 1011.12 265.545V271H1009.78ZM1027.35 271.182C1026.51 271.182 1025.78 270.996 1025.17 270.625C1024.57 270.25 1024.1 269.727 1023.77 269.057C1023.44 268.383 1023.28 267.598 1023.28 266.705C1023.28 265.811 1023.44 265.023 1023.77 264.341C1024.1 263.655 1024.56 263.121 1025.14 262.739C1025.73 262.352 1026.42 262.159 1027.21 262.159C1027.67 262.159 1028.11 262.235 1028.56 262.386C1029 262.538 1029.4 262.784 1029.77 263.125C1030.13 263.462 1030.42 263.909 1030.64 264.466C1030.85 265.023 1030.96 265.708 1030.96 266.523V267.091H1024.23V265.932H1029.6C1029.6 265.439 1029.5 265 1029.3 264.614C1029.11 264.227 1028.83 263.922 1028.47 263.699C1028.12 263.475 1027.7 263.364 1027.21 263.364C1026.68 263.364 1026.21 263.496 1025.82 263.761C1025.44 264.023 1025.14 264.364 1024.93 264.784C1024.72 265.205 1024.62 265.655 1024.62 266.136V266.909C1024.62 267.568 1024.73 268.127 1024.96 268.585C1025.19 269.04 1025.51 269.386 1025.92 269.625C1026.33 269.86 1026.81 269.977 1027.35 269.977C1027.7 269.977 1028.02 269.928 1028.3 269.83C1028.59 269.727 1028.84 269.576 1029.05 269.375C1029.25 269.17 1029.42 268.917 1029.53 268.614L1030.82 268.977C1030.69 269.417 1030.46 269.803 1030.14 270.136C1029.82 270.466 1029.42 270.723 1028.94 270.909C1028.47 271.091 1027.94 271.182 1027.35 271.182ZM1034.34 265.75V271H1033V262.273H1034.3V263.636H1034.41C1034.61 263.193 1034.92 262.837 1035.34 262.568C1035.76 262.295 1036.3 262.159 1036.96 262.159C1037.55 262.159 1038.06 262.28 1038.51 262.523C1038.95 262.761 1039.29 263.125 1039.54 263.614C1039.79 264.098 1039.91 264.712 1039.91 265.455V271H1038.57V265.545C1038.57 264.86 1038.39 264.326 1038.03 263.943C1037.68 263.557 1037.19 263.364 1036.57 263.364C1036.14 263.364 1035.76 263.456 1035.42 263.642C1035.09 263.828 1034.82 264.098 1034.63 264.455C1034.44 264.811 1034.34 265.242 1034.34 265.75ZM1046.16 262.273V263.409H1041.63V262.273H1046.16ZM1042.95 260.182H1044.29V268.5C1044.29 268.879 1044.35 269.163 1044.46 269.352C1044.57 269.538 1044.71 269.663 1044.89 269.727C1045.07 269.788 1045.25 269.818 1045.45 269.818C1045.6 269.818 1045.72 269.811 1045.81 269.795C1045.91 269.777 1045.99 269.761 1046.04 269.75L1046.31 270.955C1046.22 270.989 1046.1 271.023 1045.93 271.057C1045.77 271.095 1045.56 271.114 1045.31 271.114C1044.94 271.114 1044.56 271.032 1044.2 270.869C1043.84 270.706 1043.54 270.458 1043.3 270.125C1043.07 269.792 1042.95 269.371 1042.95 268.864V260.182Z" fill="#FAFAFA"/>
<defs>
<filter id="filter0_d_1830_23742" x="0.248535" y="6.28271" width="273.503" height="245.435" filterUnits="userSpaceOnUse" color-interpolation-filters="sRGB">
<feFlood flood-opacity="0" result="BackgroundImageFix"/>
<feColorMatrix in="SourceAlpha" type="matrix" values="0 0 0 0 0 0 0 0 0 0 0 0 0 0 0 0 0 0 127 0" result="hardAlpha"/>
<feOffset/>
<feGaussianBlur stdDeviation="5.5"/>
<feComposite in2="hardAlpha" operator="out"/>
<feColorMatrix type="matrix" values="0 0 0 0 0 0 0 0 0 0 0 0 0 0 0 0 0 0 0.12 0"/>
<feBlend mode="normal" in2="BackgroundImageFix" result="effect1_dropShadow_1830_23742"/>
<feBlend mode="normal" in="SourceGraphic" in2="effect1_dropShadow_1830_23742" result="shape"/>
</filter>
<filter id="filter1_d_1830_23742" x="432.249" y="6.28271" width="273.503" height="245.435" filterUnits="userSpaceOnUse" color-interpolation-filters="sRGB">
<feFlood flood-opacity="0" result="BackgroundImageFix"/>
<feColorMatrix in="SourceAlpha" type="matrix" values="0 0 0 0 0 0 0 0 0 0 0 0 0 0 0 0 0 0 127 0" result="hardAlpha"/>
<feOffset/>
<feGaussianBlur stdDeviation="5.5"/>
<feComposite in2="hardAlpha" operator="out"/>
<feColorMatrix type="matrix" values="0 0 0 0 0 0 0 0 0 0 0 0 0 0 0 0 0 0 0.12 0"/>
<feBlend mode="normal" in2="BackgroundImageFix" result="effect1_dropShadow_1830_23742"/>
<feBlend mode="normal" in="SourceGraphic" in2="effect1_dropShadow_1830_23742" result="shape"/>
</filter>
<filter id="filter2_d_1830_23742" x="864.249" y="6.28271" width="273.503" height="245.435" filterUnits="userSpaceOnUse" color-interpolation-filters="sRGB">
<feFlood flood-opacity="0" result="BackgroundImageFix"/>
<feColorMatrix in="SourceAlpha" type="matrix" values="0 0 0 0 0 0 0 0 0 0 0 0 0 0 0 0 0 0 127 0" result="hardAlpha"/>
<feOffset/>
<feGaussianBlur stdDeviation="5.5"/>
<feComposite in2="hardAlpha" operator="out"/>
<feColorMatrix type="matrix" values="0 0 0 0 0 0 0 0 0 0 0 0 0 0 0 0 0 0 0.12 0"/>
<feBlend mode="normal" in2="BackgroundImageFix" result="effect1_dropShadow_1830_23742"/>
<feBlend mode="normal" in="SourceGraphic" in2="effect1_dropShadow_1830_23742" result="shape"/>
</filter>
<filter id="filter3_d_1830_23742" x="216.249" y="121.283" width="273.503" height="245.435" filterUnits="userSpaceOnUse" color-interpolation-filters="sRGB">
<feFlood flood-opacity="0" result="BackgroundImageFix"/>
<feColorMatrix in="SourceAlpha" type="matrix" values="0 0 0 0 0 0 0 0 0 0 0 0 0 0 0 0 0 0 127 0" result="hardAlpha"/>
<feOffset/>
<feGaussianBlur stdDeviation="5.5"/>
<feComposite in2="hardAlpha" operator="out"/>
<feColorMatrix type="matrix" values="0 0 0 0 0 0 0 0 0 0 0 0 0 0 0 0 0 0 0.12 0"/>
<feBlend mode="normal" in2="BackgroundImageFix" result="effect1_dropShadow_1830_23742"/>
<feBlend mode="normal" in="SourceGraphic" in2="effect1_dropShadow_1830_23742" result="shape"/>
</filter>
<filter id="filter4_d_1830_23742" x="648.249" y="121.283" width="273.503" height="245.435" filterUnits="userSpaceOnUse" color-interpolation-filters="sRGB">
<feFlood flood-opacity="0" result="BackgroundImageFix"/>
<feColorMatrix in="SourceAlpha" type="matrix" values="0 0 0 0 0 0 0 0 0 0 0 0 0 0 0 0 0 0 127 0" result="hardAlpha"/>
<feOffset/>
<feGaussianBlur stdDeviation="5.5"/>
<feComposite in2="hardAlpha" operator="out"/>
<feColorMatrix type="matrix" values="0 0 0 0 0 0 0 0 0 0 0 0 0 0 0 0 0 0 0.12 0"/>
<feBlend mode="normal" in2="BackgroundImageFix" result="effect1_dropShadow_1830_23742"/>
<feBlend mode="normal" in="SourceGraphic" in2="effect1_dropShadow_1830_23742" result="shape"/>
</filter>
</defs>
</svg>
