<?xml version="1.0" encoding="UTF-8"?> <svg xmlns="http://www.w3.org/2000/svg" width="86" height="86" viewBox="0 0 86 86" fill="none"><rect y="-0.00012207" width="86" height="86" rx="12" fill="#FF4C4C"></rect><path d="M59.1064 32.887L59.1063 32.887V32.8916V62.6658C59.1023 62.954 58.986 63.2293 58.7821 63.4331C58.5783 63.6369 58.303 63.7532 58.0149 63.7573H28.2406C27.9514 63.7573 27.674 63.6424 27.4694 63.4378C27.2649 63.2333 27.15 62.9559 27.15 62.6666V22.9676C27.1541 22.6812 27.2706 22.4079 27.4745 22.2067C27.6786 22.0053 27.9539 21.8924 28.2406 21.8925H28.2406L46.4365 21.8925L46.4386 21.8924C46.6006 21.8901 46.7615 21.9184 46.913 21.9757L47.048 22.0658L47.0479 22.066L47.0557 22.0705L47.2424 22.1795L58.808 32.0928C58.8783 32.1607 58.9396 32.2372 58.9905 32.3204V32.3208V32.3213V32.3218V32.3223V32.3228V32.3233V32.3238V32.3243V32.3248V32.3253V32.3258V32.3262V32.3267V32.3272V32.3277V32.3281V32.3286V32.3291V32.3296V32.33V32.3305V32.3309V32.3314V32.3318V32.3323V32.3328V32.3332V32.3336V32.3341V32.3345V32.335V32.3354V32.3359V32.3363V32.3367V32.3371V32.3376V32.338V32.3384V32.3388V32.3393V32.3397V32.3401V32.3405V32.3409V32.3413V32.3417V32.3421V32.3425V32.3429V32.3433V32.3437V32.3441V32.3445V32.3449V32.3453V32.3457V32.3461V32.3465V32.3468V32.3472V32.3476V32.348V32.3483V32.3487V32.3491V32.3495V32.3498V32.3502V32.3505V32.3509V32.3513V32.3516V32.352V32.3523V32.3527V32.353V32.3534V32.3537V32.354V32.3544V32.3547V32.3551V32.3554V32.3557V32.3561V32.3564V32.3567V32.357V32.3574V32.3577V32.358V32.3583V32.3586V32.359V32.3593V32.3596V32.3599V32.3602V32.3605V32.3608V32.3611V32.3614V32.3617V32.362V32.3623V32.3626V32.3629V32.3632V32.3635V32.3637V32.364V32.3643V32.3646V32.3649V32.3651V32.3654V32.3657V32.366V32.3662V32.3665V32.3668V32.367V32.3673V32.3676V32.3678V32.3681V32.3683V32.3686V32.3689V32.3691V32.3694V32.3696V32.3699V32.3701V32.3703V32.3706V32.3708V32.3711V32.3713V32.3715V32.3718V32.372V32.3722V32.3725V32.3727V32.3729V32.3732V32.3734V32.3736V32.3738V32.3741V32.3743V32.3745V32.3747V32.3749V32.3751V32.3753V32.3755V32.3758V32.376V32.3762V32.3764V32.3766V32.3768V32.377V32.3772V32.3774V32.3776V32.3778V32.3779V32.3781V32.3783V32.3785V32.3787V32.3789V32.3791V32.3793V32.3794V32.3796V32.3798V32.38V32.3801V32.3803V32.3805V32.3807V32.3808V32.381V32.3812V32.3813V32.3815V32.3817V32.3818V32.382V32.3822V32.3823V32.3825V32.3826V32.3828V32.3829V32.3831V32.3832V32.3834V32.3835V32.3837V32.3838V32.384V32.3841V32.3843V32.3844V32.3845V32.3847V32.3848V32.385V32.3851V32.3852V32.3854V32.3855V32.3856V32.3857V32.3859V32.386V32.3861V32.3862V32.3864V32.3865V32.3866V32.3867V32.3869V32.387V32.3871V32.3872V32.3873V32.3874V32.3875V32.3877V32.3878V32.3879V32.388V32.3881V32.3882V32.3883V32.3884V32.3885V32.3886V32.3887V32.3888V32.3889V32.389V32.3891V32.3892V32.3893V32.3894V32.3895V32.3896V32.3897V32.3898V32.3898V32.3899V32.39V32.3901V32.3902V32.3903V32.3904V32.3904V32.3905V32.3906V32.3907V32.3908V32.3908V32.3909V32.391V32.3911V32.3911V32.3912V32.3913V32.3914V32.3914V32.3915V32.3916V32.3916V32.3917V32.3918V32.3918V32.3919V32.392V32.392V32.3921V32.3922V32.3922V32.3923V32.3923V32.3924V32.3925V32.3925V32.3926V32.3926V32.3927V32.3927V32.3928V32.3928V32.3929V32.3929V32.393V32.393V32.3931V32.3931V32.3932V32.3932V32.3933V32.3933V32.3934V32.3934V32.3935V32.3935V32.3935V32.3936V32.3936V32.3937V32.3937V32.3937V32.3938V32.3938V32.3939V32.3939V32.3939V32.394V32.394V32.394V32.3941V32.3941V32.3941V32.3942V32.3942V32.3942V32.3943V32.3943V32.3943V32.3943V32.3944V32.3944V32.3944V32.3944V32.3945V32.3945V32.3945V32.3945V32.3946V32.3946V32.3946V32.3946V32.3947V32.3947V32.3947V32.3947V32.3947V32.3948V32.3948V32.3948V32.3948V32.3948V32.3949V32.3949V32.3949V32.3949V32.3949V32.3949V32.395V32.395V32.395V32.395V32.3951V32.3951V32.3951V32.3951V32.3951V32.3952V32.3952V32.3952V32.3952V32.3952V32.3953L58.9906 32.3953L59.1405 32.3953L59.0081 32.4658C59.077 32.5952 59.1108 32.7404 59.1064 32.887ZM47.7749 25.5325L47.5271 25.3197V25.6463V31.684V31.834H47.6771H54.7074H55.1122L54.8051 31.5702L47.7749 25.5325ZM29.3313 61.3764V61.5262L29.4811 61.5264L56.7749 61.5595L56.9251 61.5596V61.4095V34.1322V33.9822H56.7751H46.4366C46.1477 33.9819 45.8707 33.867 45.6664 33.6627C45.4642 33.4562 45.3494 33.1796 45.3459 32.8906V24.2237V24.0737H45.1959H29.4813H29.3313V24.2237V61.3764Z" fill="white" stroke="#FF4C4C" stroke-width="0.3"></path><path d="M39.6381 32.4603H33.3026C33.0134 32.4603 32.736 32.3454 32.5314 32.1409C32.3269 31.9364 32.212 31.659 32.212 31.3697C32.212 31.0805 32.3269 30.8031 32.5314 30.5985C32.736 30.394 33.0134 30.2791 33.3026 30.2791H39.6381C39.9274 30.2791 40.2048 30.394 40.4093 30.5985C40.6138 30.8031 40.7287 31.0805 40.7287 31.3697C40.7287 31.659 40.6138 31.9364 40.4093 32.1409C40.2048 32.3454 39.9274 32.4603 39.6381 32.4603ZM33.3026 36.8627H52.9542C53.2434 36.8627 53.5208 36.9776 53.7254 37.1821C53.9299 37.3867 54.0448 37.6641 54.0448 37.9533C54.0448 38.2426 53.9299 38.52 53.7254 38.7245C53.5208 38.929 53.2434 39.0439 52.9542 39.0439H33.3026C33.0134 39.0439 32.736 38.929 32.5314 38.7245C32.3269 38.52 32.212 38.2426 32.212 37.9533C32.212 37.6641 32.3269 37.3867 32.5314 37.1821C32.736 36.9776 33.0134 36.8627 33.3026 36.8627ZM33.3026 43.3967H52.9542C53.2434 43.3967 53.5208 43.5116 53.7254 43.7161C53.9299 43.9206 54.0448 44.198 54.0448 44.4873C54.0448 44.7765 53.9299 45.0539 53.7254 45.2585C53.5208 45.463 53.2434 45.5779 52.9542 45.5779H33.3026C33.0134 45.5779 32.736 45.463 32.5314 45.2585C32.3269 45.0539 32.212 44.7765 32.212 44.4873C32.212 44.198 32.3269 43.9206 32.5314 43.7161C32.736 43.5116 33.0134 43.3967 33.3026 43.3967ZM33.3026 49.9637H52.9542C53.2434 49.9637 53.5208 50.0786 53.7254 50.2832C53.9299 50.4877 54.0448 50.7651 54.0448 51.0543C54.0448 51.3436 53.9299 51.621 53.7254 51.8255C53.5208 52.0301 53.2434 52.145 52.9542 52.145H33.3026C33.0134 52.145 32.736 52.0301 32.5314 51.8255C32.3269 51.621 32.212 51.3436 32.212 51.0543C32.212 50.7651 32.3269 50.4877 32.5314 50.2832C32.736 50.0786 33.0134 49.9637 33.3026 49.9637ZM33.3026 56.1999H52.9542C53.2434 56.1999 53.5208 56.3148 53.7254 56.5194C53.9299 56.7239 54.0448 57.0013 54.0448 57.2906C54.0448 57.5798 53.9299 57.8572 53.7254 58.0618C53.5208 58.2663 53.2434 58.3812 52.9542 58.3812H33.3026C33.0134 58.3812 32.736 58.2663 32.5314 58.0618C32.3269 57.8572 32.212 57.5798 32.212 57.2906C32.212 57.0013 32.3269 56.7239 32.5314 56.5194C32.736 56.3148 33.0134 56.1999 33.3026 56.1999Z" fill="white" stroke="#FF4C4C" stroke-width="0.3"></path></svg> 