<?xml version="1.0" encoding="UTF-8"?> <svg xmlns="http://www.w3.org/2000/svg" width="86" height="86" viewBox="0 0 86 86" fill="none"><rect width="86" height="86" rx="12" fill="#FF4C4C"></rect><path d="M54.2494 48.8779L54.2493 48.8779L53.3883 49.7523C51.2326 51.9414 50.022 54.9094 50.0216 58.0036C50.0216 60.6281 47.9268 62.7496 45.3516 62.7496H40.6468C39.4095 62.7496 38.2221 62.2506 37.346 61.3609C36.4698 60.4712 35.9768 59.2636 35.9768 58.0036C35.9764 54.9094 34.7658 51.9414 32.6101 49.7523L32.432 49.9277L32.6101 49.7523L31.749 48.8779C28.8689 45.9534 27.2501 41.984 27.25 37.8463C27.25 33.7086 28.8687 29.7411 31.7489 26.8164C34.6289 23.8919 38.5342 22.2496 42.6055 22.2496H43.3929C46.4294 22.2493 49.3981 23.1634 51.9236 24.8768C54.4491 26.5903 56.418 29.0262 57.5808 31.8769C58.7435 34.7276 59.0477 37.8647 58.4545 40.8912C57.8614 43.9177 56.3978 46.697 54.2494 48.8779ZM33.4485 47.1394L33.4486 47.1396L34.3114 48.0137C35.7639 49.4887 36.8768 51.2723 37.57 53.2365L37.6289 53.4033H37.8058H48.1926H48.3695L48.4284 53.2365C49.1216 51.2723 50.2345 49.4887 51.687 48.0137L52.548 47.1394L52.548 47.1393C54.3578 45.3007 55.5898 42.9589 56.0887 40.4102C56.5876 37.8615 56.3312 35.2198 55.3517 32.8189C54.3723 30.4179 52.7136 28.3651 50.5847 26.9204C48.4557 25.4757 45.9523 24.704 43.391 24.7035H43.3909H42.6056C42.6055 24.7035 42.6055 24.7035 42.6055 24.7035C40.0438 24.7031 37.5397 25.4741 35.4102 26.9187C33.2807 28.3633 31.6215 30.4163 30.6418 32.8177C29.6622 35.219 29.406 37.8612 29.9055 40.4102C30.4049 42.9592 31.6377 45.3011 33.4485 47.1394ZM38.5117 55.8572H38.2267L38.2638 56.1398C38.3449 56.7576 38.3857 57.3803 38.3858 58.0037C38.3858 58.3041 38.4441 58.6017 38.5574 58.8795C38.6707 59.1573 38.8369 59.41 39.0467 59.623C39.2565 59.8361 39.5057 60.0052 39.7803 60.1207C40.0549 60.2362 40.3494 60.2957 40.6468 60.2957H45.3516C46.6045 60.2957 47.6126 59.2664 47.6126 58.0036C47.6126 57.3782 47.6527 56.7551 47.7345 56.1402L47.7722 55.8572H47.4867H38.5117ZM45.9204 32.6938L45.9204 32.6938L45.917 32.6986L42.9498 36.9187L42.9498 36.9188L42.7132 37.2555L42.4366 37.6493H42.9177H43.3948C43.9715 37.6493 44.4973 37.6496 44.9133 37.695L44.9134 37.6951C45.3185 37.739 45.9258 37.8479 46.3827 38.3378L46.383 38.338C46.7065 38.6839 46.9116 39.1273 46.9669 39.6022L46.9669 39.6023C47.0451 40.2721 46.738 40.819 46.5117 41.1642C46.219 41.5837 45.9063 41.9883 45.5746 42.3766L45.5745 42.3766L45.5714 42.3804L42.9553 45.5682C42.7479 45.8078 42.4576 45.955 42.1462 45.9799C41.834 46.0049 41.5239 45.905 41.2823 45.7005C41.0405 45.4959 40.8862 45.2026 40.8538 44.8829C40.8215 44.564 40.9129 44.2455 41.1078 43.9949L43.6792 40.8623L43.6799 40.8614L43.965 40.5109L44.2966 40.1031H43.771H43.2571C42.727 40.1031 42.2363 40.1028 41.8458 40.0594L41.8447 40.0593C41.4548 40.0176 40.8845 39.9093 40.439 39.4589C40.117 39.132 39.9041 38.7107 39.8289 38.2551C39.7265 37.6223 39.9726 37.0845 40.1654 36.7367L40.1657 36.7362C40.3573 36.3885 40.6432 35.9812 40.9518 35.5448L40.9521 35.5443L43.96 31.269L43.96 31.2691L43.9632 31.2643C44.0538 31.1291 44.1699 31.0138 44.3046 30.9252C44.4393 30.8366 44.5898 30.7764 44.7474 30.7478C44.9049 30.7193 45.0665 30.7231 45.2226 30.7588C45.3787 30.7946 45.5265 30.8618 45.6571 30.9566C45.7877 31.0514 45.8986 31.1719 45.983 31.3113L46.1968 31.1817L45.983 31.3113C46.0675 31.4506 46.1238 31.6059 46.1484 31.768C46.1731 31.9301 46.1656 32.0956 46.1264 32.2547C46.0871 32.4137 46.0171 32.563 45.9204 32.6938ZM43.5677 40.6031L43.486 40.7037L40.2609 39.6344C40.769 40.1483 41.4129 40.2645 41.8182 40.3078C42.2254 40.3531 42.7316 40.3531 43.2571 40.3531H43.4488L43.5771 40.1954L43.771 40.3531V40.6031H43.5677Z" fill="white" stroke="#FF4C4C" stroke-width="0.5"></path></svg> 