<?xml version="1.0" encoding="UTF-8"?> <svg xmlns="http://www.w3.org/2000/svg" width="92" height="92" viewBox="0 0 92 92" fill="none"><path d="M1 17V1H15.5455H17" stroke="#717171"></path><path d="M1 75V91H15.5455H17" stroke="#717171"></path><path d="M91 17V1H76.4545H75" stroke="#717171"></path><path d="M91 75V91H76.4545H75" stroke="#717171"></path><path d="M68.2769 37.5041C68.0671 37.7125 67.8182 37.8774 67.5445 37.9894C67.2709 38.1013 66.9778 38.158 66.6823 38.1563L68.2769 37.5041ZM68.2769 37.5041C68.5049 37.2935 68.6869 37.0378 68.8113 36.7533L68.2769 37.5041ZM67.9244 34.5524L67.9309 34.5589L67.9376 34.5651C68.1149 34.7288 68.2564 34.9276 68.3532 35.1489C68.45 35.3703 68.5 35.6093 68.5 35.8509C68.5 36.0926 68.45 36.3316 68.3532 36.5529C68.2564 36.7743 68.1149 36.9731 67.9376 37.1368L67.931 37.1429L67.9246 37.1493C67.7614 37.3114 67.5679 37.4396 67.3552 37.5266C67.1426 37.6136 66.9148 37.6577 66.6852 37.6563L66.6794 37.6563C66.4497 37.6577 66.222 37.6136 66.0093 37.5266C65.7971 37.4398 65.6041 37.3121 65.4412 37.1505C65.4408 37.1501 65.4404 37.1497 65.4399 37.1493L62.2757 33.9582L61.9219 33.6014L61.5669 33.957L58.3775 37.1508L58.017 37.5118L58.3853 37.8649L61.5712 40.9205C61.7336 41.0825 61.8625 41.275 61.9507 41.4869C62.0394 41.7001 62.0851 41.9288 62.0851 42.1598C62.0851 42.3908 62.0394 42.6195 61.9507 42.8327C61.862 43.0459 61.732 43.2394 61.5683 43.4019L61.9207 43.7567L61.5683 43.4019C61.4052 43.564 61.2117 43.6922 60.999 43.7792C60.7863 43.8662 60.5586 43.9103 60.3289 43.9089L60.3231 43.909C60.0934 43.9103 59.8657 43.8662 59.653 43.7792C59.4409 43.6924 59.2478 43.5646 59.0849 43.4031C59.0845 43.4027 59.0841 43.4023 59.0837 43.4019L55.9195 40.2109L55.5654 39.8537L55.2103 40.21L44.2497 51.2083L43.9625 51.4965L44.1864 51.8363C45.6504 54.0585 46.2387 56.7458 45.837 59.3777C45.4354 62.0095 44.0725 64.3982 42.0127 66.0809C39.9528 67.7637 37.3427 68.6208 34.688 68.4863C32.0333 68.3518 29.5228 67.2353 27.643 65.3529C25.7632 63.4705 24.6481 60.9562 24.5137 58.2972C24.3794 55.6383 25.2355 53.0241 26.916 50.9613C28.5965 48.8985 30.9817 47.534 33.6093 47.1318C36.2369 46.7297 38.9201 47.3187 41.1389 48.7846L41.4797 49.0098L41.7683 48.7207L65.4414 25.0148C65.7706 24.6851 66.217 24.5 66.6823 24.5C67.1475 24.5 67.5939 24.6851 67.9231 25.0148C68.2524 25.3445 68.4375 25.7918 68.4375 26.2583C68.4375 26.7249 68.2524 27.1721 67.9233 27.5018C67.9232 27.5018 67.9232 27.5019 67.9231 27.5019L64.735 30.672L64.3785 31.0265L64.735 31.3811L67.9244 34.5524ZM31.2165 63.7722C32.4068 64.5687 33.8063 64.9938 35.238 64.9938C37.1579 64.9938 38.999 64.2301 40.3563 62.8708C41.7136 61.5116 42.476 59.6683 42.476 57.7464C42.476 56.3131 42.0516 54.912 41.2564 53.7202C40.4611 52.5284 39.3308 51.5993 38.0081 51.0507C36.6854 50.5021 35.23 50.3585 33.8258 50.6382C32.4216 50.9179 31.1319 51.6083 30.1197 52.6219C29.1075 53.6355 28.4182 54.9269 28.139 56.3326C27.8598 57.7383 28.0031 59.1954 28.5508 60.5196C29.0985 61.8438 30.0262 62.9758 31.2165 63.7722Z" fill="#FF4C4C" stroke="#1B1E1E"></path></svg> 