<?xml version="1.0" encoding="UTF-8"?> <svg xmlns="http://www.w3.org/2000/svg" width="86" height="86" viewBox="0 0 86 86" fill="none"><rect y="-0.00012207" width="86" height="86" rx="12" fill="#FF4C4C"></rect><path d="M52.8249 45.0888C53.4469 45.7473 53.9254 46.2084 54.1271 46.399L52.8249 45.0888ZM52.8249 45.0888V44.8755H52.6249L52.4785 45.0118C52.5281 45.065 52.5769 45.1172 52.6249 45.1682V54.7048L63.9249 56.3605V56.3898H64.1249L64.1539 56.1919L64.1249 56.1877V37.2124C64.1803 37.1317 64.2354 37.0509 64.2904 36.97L64.1249 36.8576H63.9249V37.1503C61.6436 40.4687 59.0414 43.5659 56.154 46.399L52.8249 45.0888ZM44.0081 32.8454L44.1971 32.7716L44.1205 32.5836C43.7303 31.6265 43.514 30.6104 43.4812 29.5809C43.4821 26.5642 44.7092 23.6702 46.8945 21.5356C49.0807 19.4001 52.0468 18.1995 55.1406 18.1995C58.2343 18.1995 61.2004 19.4001 63.3866 21.5356C65.5727 23.671 66.7999 26.5662 66.7999 29.584L66.7999 58.0186L66.7999 58.021C66.8019 58.1948 66.7653 58.3671 66.6922 58.526C66.6192 58.6849 66.5115 58.8268 66.3763 58.9417C66.241 59.0566 66.0815 59.1416 65.9087 59.1906C65.7359 59.2396 65.5541 59.2514 65.3761 59.225L65.376 59.225L51.3891 57.1608L51.3366 57.1531L51.2872 57.1724L37.2759 62.6471C37.2752 62.6473 37.2745 62.6475 37.2739 62.6478C37.0284 62.7368 36.7614 62.7538 36.506 62.6964C36.5054 62.6963 36.5049 62.6962 36.5043 62.6961L22.1332 59.1865C21.8652 59.1203 21.6282 58.9689 21.4595 58.7571C21.2909 58.5455 21.1999 58.2856 21.2 58.0187V58.0186L21.2 33.4455L21.2 33.4454C21.1999 33.2629 21.2425 33.0826 21.3247 32.9181C21.4068 32.7537 21.5266 32.6093 21.6751 32.4963C21.8237 32.3832 21.997 32.3046 22.182 32.2666C22.367 32.2286 22.5585 32.2324 22.7418 32.2776L22.7426 32.2778L36.7007 35.6619L36.7619 35.6767L36.8206 35.6538L44.0081 32.8454ZM64.3236 29.6069L64.3249 29.5953L64.3249 29.5837C64.321 27.2028 63.351 24.9215 61.629 23.2394C59.9072 21.5574 57.5739 20.6117 55.1409 20.6079L55.1402 20.6079C52.7072 20.6117 50.3739 21.5574 48.6521 23.2394C46.9301 24.9215 45.9601 27.2028 45.9562 29.5837L45.9562 29.5952L45.9575 29.6067C46.2477 32.1512 47.7852 34.806 49.5962 37.2207C51.0274 39.129 52.6458 40.9078 53.9858 42.3806C54.3438 42.7741 54.682 43.1458 54.9914 43.4922L55.1405 43.6592L55.2897 43.4923C55.6007 43.1443 55.94 42.7715 56.299 42.3772C57.6419 40.9021 59.2586 39.1261 60.6876 37.2207C62.4961 34.8093 64.0297 32.1581 64.3236 29.6069ZM23.9224 35.0485L23.675 34.9881V35.2428V56.9234V57.0804L23.8275 57.1177L35.3275 59.926L35.575 59.9865V59.7317V38.0512V37.8942L35.4224 37.8569L23.9224 35.0485ZM38.1772 37.7175L38.05 37.7672V37.9038V59.472V59.7648L38.3228 59.6582L49.8227 55.1649L49.9499 55.1152V54.9786V41.6389V41.5646L49.9015 41.5083C48.1821 39.5124 46.6497 37.3699 45.3225 35.1066L45.2361 34.9593L45.0772 35.0215L38.1772 37.7175ZM52.4249 54.7048V54.8776L52.5959 54.9027L64.0959 56.5877L64.3249 56.6212V56.3898V36.8576V36.2072L63.9595 36.7453C61.6381 40.1633 58.9768 43.349 56.0142 46.256C55.7827 46.4806 55.4688 46.6074 55.1406 46.6074C54.8121 46.6074 54.498 46.4804 54.2665 46.2556L54.2645 46.2537C54.0441 46.0453 53.4866 45.5078 52.7713 44.7393L52.4249 44.367V44.8755V54.7048Z" fill="white" stroke="#FF4C4C" stroke-width="0.4"></path><path d="M58.2418 29.767C58.2418 31.429 56.8945 32.7763 55.2325 32.7763C53.5705 32.7763 52.2232 31.429 52.2232 29.767C52.2232 28.105 53.5705 26.7577 55.2325 26.7577C56.8945 26.7577 58.2418 28.105 58.2418 29.767Z" fill="white" stroke="#FF4C4C" stroke-width="0.4"></path></svg> 