<?xml version="1.0" encoding="UTF-8"?> <svg xmlns="http://www.w3.org/2000/svg" width="92" height="92" viewBox="0 0 92 92" fill="none"><path d="M1 17V1H15.5455H17" stroke="#717171"></path><path d="M1 75V91H15.5455H17" stroke="#717171"></path><path d="M91 17V1H76.4545H75" stroke="#717171"></path><path d="M91 75V91H76.4545H75" stroke="#717171"></path><path d="M47.9942 49.25L47.9942 49.2501L48.0058 49.25C48.5887 49.2432 49.1596 49.4151 49.6418 49.7426C50.124 50.07 50.4943 50.5374 50.7029 51.0817C50.9114 51.626 50.9482 52.2211 50.8083 52.787C50.6684 53.3528 50.3585 53.8622 49.9203 54.2466L49.75 54.396V54.6225V57.75C49.75 58.2141 49.5656 58.6593 49.2374 58.9874C48.9092 59.3156 48.4641 59.5 48 59.5C47.5359 59.5 47.0908 59.3156 46.7626 58.9874C46.4344 58.6593 46.25 58.2141 46.25 57.75V54.6225V54.396L46.0797 54.2466C45.6415 53.8622 45.3316 53.3528 45.1917 52.787C45.0518 52.2211 45.0886 51.626 45.2971 51.0817C45.5057 50.5374 45.876 50.07 46.3582 49.7426C46.8404 49.4151 47.4113 49.2432 47.9942 49.25ZM58.75 39.75V40.25H59.25C60.9076 40.25 62.4973 40.9085 63.6694 42.0806C64.8415 43.2527 65.5 44.8424 65.5 46.5V62.25C65.5 63.9076 64.8415 65.4973 63.6694 66.6694C62.4973 67.8415 60.9076 68.5 59.25 68.5H36.75C35.0924 68.5 33.5027 67.8415 32.3306 66.6694C31.1585 65.4973 30.5 63.9076 30.5 62.25V46.5C30.5 44.8424 31.1585 43.2527 32.3306 42.0806C33.5027 40.9085 35.0924 40.25 36.75 40.25H37.25V39.75V35.25C37.25 32.3989 38.3826 29.6646 40.3986 27.6486C42.4146 25.6326 45.1489 24.5 48 24.5C50.8511 24.5 53.5854 25.6326 55.6014 27.6486C57.6174 29.6646 58.75 32.3989 58.75 35.25V39.75ZM54.75 40.25H55.25V39.75V35.25C55.25 33.3272 54.4862 31.4831 53.1265 30.1235C51.7669 28.7638 49.9228 28 48 28C46.0772 28 44.2331 28.7638 42.8735 30.1235C41.5138 31.4831 40.75 33.3272 40.75 35.25V39.75V40.25H41.25H54.75ZM61.1945 64.1945C61.7103 63.6788 62 62.9793 62 62.25V46.5C62 45.7707 61.7103 45.0712 61.1945 44.5555C60.6788 44.0397 59.9793 43.75 59.25 43.75H36.75C36.0207 43.75 35.3212 44.0397 34.8055 44.5555C34.2897 45.0712 34 45.7707 34 46.5V62.25C34 62.9793 34.2897 63.6788 34.8055 64.1945C35.3212 64.7103 36.0207 65 36.75 65H59.25C59.9793 65 60.6788 64.7103 61.1945 64.1945Z" fill="#FF4C4C" stroke="#1B1E1E"></path></svg> 