<svg width="1600" height="536" viewBox="0 0 1600 536" fill="none" xmlns="http://www.w3.org/2000/svg">
<mask id="mask0_2497_1374" style="mask-type:alpha" maskUnits="userSpaceOnUse" x="0" y="0" width="1600" height="536">
<rect width="1600" height="536" fill="#231F20"/>
</mask>
<g mask="url(#mask0_2497_1374)">
<path d="M-3 -39L104.062 6.69741V81.7717L-3 36.0743V-39Z" fill="#3D5AA9" fill-opacity="0.14"/>
<path d="M-3 103.772L104.062 149.469V224.543L-3 178.846V103.772Z" fill="#3D5AA9" fill-opacity="0.14"/>
<path d="M-3 246.543L104.062 292.241V367.315L-3 321.618V246.543Z" fill="#3D5AA9" fill-opacity="0.14"/>
<path d="M104.062 152.929L211.125 107.232V32.1575L104.062 77.8549V152.929Z" fill="#3D5AA9" fill-opacity="0.14"/>
<path d="M104.062 295.701L211.125 250.004V174.929L104.062 220.627V295.701Z" fill="#3D5AA9" fill-opacity="0.14"/>
<path d="M104.062 438.473L211.125 392.775V317.701L104.062 363.398V438.473Z" fill="#3D5AA9" fill-opacity="0.14"/>
<path d="M211.125 -39L318.187 6.69741V81.7717L211.125 36.0743V-39Z" fill="#3D5AA9" fill-opacity="0.14"/>
<path d="M211.125 103.772L318.187 149.469V224.543L211.125 178.846V103.772Z" fill="#3D5AA9" fill-opacity="0.14"/>
<path d="M211.125 246.543L318.187 292.241V367.315L211.125 321.618V246.543Z" fill="#3D5AA9" fill-opacity="0.14"/>
<path d="M318.188 152.929L425.25 107.232V32.1575L318.188 77.8549V152.929Z" fill="#3D5AA9" fill-opacity="0.14"/>
<path d="M318.188 295.701L425.25 250.004V174.929L318.188 220.627V295.701Z" fill="#3D5AA9" fill-opacity="0.14"/>
<path d="M318.188 438.473L425.25 392.775V317.701L318.188 363.398V438.473Z" fill="#3D5AA9" fill-opacity="0.14"/>
<path d="M425.25 -39L532.312 6.69741V81.7717L425.25 36.0743V-39Z" fill="#3D5AA9" fill-opacity="0.14"/>
<path d="M425.25 103.772L532.312 149.469V224.543L425.25 178.846V103.772Z" fill="#3D5AA9" fill-opacity="0.14"/>
<path d="M425.25 246.543L532.312 292.241V367.315L425.25 321.618V246.543Z" fill="#3D5AA9" fill-opacity="0.14"/>
<path d="M532.312 152.929L639.375 107.232V32.1575L532.312 77.8549V152.929Z" fill="#3D5AA9" fill-opacity="0.14"/>
<path d="M532.312 295.701L639.375 250.004V174.929L532.312 220.627V295.701Z" fill="#3D5AA9" fill-opacity="0.14"/>
<path d="M532.312 438.473L639.375 392.775V317.701L532.312 363.398V438.473Z" fill="#3D5AA9" fill-opacity="0.14"/>
<path d="M639.375 -39L746.437 6.69741V81.7717L639.375 36.0743V-39Z" fill="#3D5AA9" fill-opacity="0.14"/>
<path d="M639.375 103.772L746.437 149.469V224.543L639.375 178.846V103.772Z" fill="#3D5AA9" fill-opacity="0.14"/>
<path d="M639.375 246.543L746.437 292.241V367.315L639.375 321.618V246.543Z" fill="#3D5AA9" fill-opacity="0.14"/>
<path d="M746.438 152.929L853.5 107.232V32.1575L746.438 77.8549V152.929Z" fill="#3D5AA9" fill-opacity="0.14"/>
<path d="M746.438 295.701L853.5 250.004V174.929L746.438 220.627V295.701Z" fill="#3D5AA9" fill-opacity="0.14"/>
<path d="M746.438 438.473L853.5 392.775V317.701L746.438 363.398V438.473Z" fill="#3D5AA9" fill-opacity="0.14"/>
<path d="M853.5 -39L960.562 6.69741V81.7717L853.5 36.0743V-39Z" fill="#3D5AA9" fill-opacity="0.14"/>
<path d="M853.5 103.772L960.562 149.469V224.543L853.5 178.846V103.772Z" fill="#3D5AA9" fill-opacity="0.14"/>
<path d="M853.5 246.543L960.562 292.241V367.315L853.5 321.618V246.543Z" fill="#3D5AA9" fill-opacity="0.14"/>
<path d="M960.562 152.929L1067.62 107.232V32.1575L960.562 77.8549V152.929Z" fill="#3D5AA9" fill-opacity="0.14"/>
<path d="M960.562 295.701L1067.62 250.004V174.929L960.562 220.627V295.701Z" fill="#3D5AA9" fill-opacity="0.14"/>
<path d="M960.562 438.473L1067.62 392.775V317.701L960.562 363.398V438.473Z" fill="#3D5AA9" fill-opacity="0.14"/>
<path d="M1067.62 -39L1174.69 6.69741V81.7717L1067.62 36.0743V-39Z" fill="#3D5AA9" fill-opacity="0.14"/>
<path d="M1067.62 103.772L1174.69 149.469V224.543L1067.62 178.846V103.772Z" fill="#3D5AA9" fill-opacity="0.14"/>
<path d="M1067.62 246.543L1174.69 292.241V367.315L1067.62 321.618V246.543Z" fill="#3D5AA9" fill-opacity="0.14"/>
<path d="M1174.69 152.929L1281.75 107.232V32.1575L1174.69 77.8549V152.929Z" fill="#3D5AA9" fill-opacity="0.14"/>
<path d="M1174.69 295.701L1281.75 250.004V174.929L1174.69 220.627V295.701Z" fill="#3D5AA9" fill-opacity="0.14"/>
<path d="M1174.69 438.473L1281.75 392.775V317.701L1174.69 363.398V438.473Z" fill="#3D5AA9" fill-opacity="0.14"/>
<path d="M1281.75 -39L1388.81 6.69741V81.7717L1281.75 36.0743V-39Z" fill="#3D5AA9" fill-opacity="0.14"/>
<path d="M1281.75 103.772L1388.81 149.469V224.543L1281.75 178.846V103.772Z" fill="#3D5AA9" fill-opacity="0.14"/>
<path d="M1281.75 246.543L1388.81 292.241V367.315L1281.75 321.618V246.543Z" fill="#3D5AA9" fill-opacity="0.14"/>
<path d="M1388.81 152.929L1495.87 107.232V32.1575L1388.81 77.8549V152.929Z" fill="#3D5AA9" fill-opacity="0.14"/>
<path d="M1388.81 295.701L1495.87 250.004V174.929L1388.81 220.627V295.701Z" fill="#3D5AA9" fill-opacity="0.14"/>
<path d="M1388.81 438.473L1495.87 392.775V317.701L1388.81 363.398V438.473Z" fill="#3D5AA9" fill-opacity="0.14"/>
<path d="M1495.88 -39L1602.94 6.69741V81.7717L1495.88 36.0743V-39Z" fill="#3D5AA9" fill-opacity="0.14"/>
<path d="M1495.88 103.772L1602.94 149.469V224.543L1495.88 178.846V103.772Z" fill="#3D5AA9" fill-opacity="0.14"/>
<path d="M1495.88 246.543L1602.94 292.241V367.315L1495.88 321.618V246.543Z" fill="#3D5AA9" fill-opacity="0.14"/>
</g>
</svg>
