<svg width="35" height="34" viewBox="0 0 35 34" fill="none" xmlns="http://www.w3.org/2000/svg">
<path fill-rule="evenodd" clip-rule="evenodd" d="M11.2916 0C11.8784 0 12.3541 0.475697 12.3541 1.0625V4.25H14.4791V1.0625C14.4791 0.475697 14.9548 0 15.5416 0C16.1284 0 16.6041 0.475697 16.6041 1.0625V4.25H18.7291V1.0625C18.7291 0.475697 19.2048 0 19.7916 0C20.3784 0 20.8541 0.475697 20.8541 1.0625V4.25H22.9791V1.0625C22.9791 0.475697 23.4548 0 24.0416 0C24.6284 0 25.1041 0.475697 25.1041 1.0625V4.25C28.0381 4.25 30.4166 6.62849 30.4166 9.5625H33.6041C34.1909 9.5625 34.6666 10.0382 34.6666 10.625C34.6666 11.2118 34.1909 11.6875 33.6041 11.6875H30.4166V13.8125H33.6041C34.1909 13.8125 34.6666 14.2882 34.6666 14.875C34.6666 15.4618 34.1909 15.9375 33.6041 15.9375H30.4166V18.0625H33.6041C34.1909 18.0625 34.6666 18.5382 34.6666 19.125C34.6666 19.7118 34.1909 20.1875 33.6041 20.1875H30.4166V22.3125H33.6041C34.1909 22.3125 34.6666 22.7882 34.6666 23.375C34.6666 23.9618 34.1909 24.4375 33.6041 24.4375H30.4166C30.4166 27.3715 28.0381 29.75 25.1041 29.75V32.9375C25.1041 33.5243 24.6284 34 24.0416 34C23.4548 34 22.9791 33.5243 22.9791 32.9375V29.75H20.8541V32.9375C20.8541 33.5243 20.3784 34 19.7916 34C19.2048 34 18.7291 33.5243 18.7291 32.9375V29.75H16.6041V32.9375C16.6041 33.5243 16.1284 34 15.5416 34C14.9548 34 14.4791 33.5243 14.4791 32.9375V29.75H12.3541V32.9375C12.3541 33.5243 11.8784 34 11.2916 34C10.7048 34 10.2291 33.5243 10.2291 32.9375V29.75C7.29511 29.75 4.91663 27.3715 4.91663 24.4375H1.72913C1.14232 24.4375 0.666626 23.9618 0.666626 23.375C0.666626 22.7882 1.14232 22.3125 1.72913 22.3125H4.91663V20.1875H1.72913C1.14232 20.1875 0.666626 19.7118 0.666626 19.125C0.666626 18.5382 1.14232 18.0625 1.72913 18.0625H4.91663V15.9375H1.72913C1.14232 15.9375 0.666626 15.4618 0.666626 14.875C0.666626 14.2882 1.14232 13.8125 1.72913 13.8125H4.91663V11.6875H1.72913C1.14232 11.6875 0.666626 11.2118 0.666626 10.625C0.666626 10.0382 1.14232 9.5625 1.72913 9.5625H4.91663C4.91663 6.62849 7.29511 4.25 10.2291 4.25V1.0625C10.2291 0.475697 10.7048 0 11.2916 0ZM10.2291 6.375C8.46872 6.375 7.04163 7.80209 7.04163 9.5625V24.4375C7.04163 26.1979 8.46872 27.625 10.2291 27.625H25.1041C26.8645 27.625 28.2916 26.1979 28.2916 24.4375V9.5625C28.2916 7.80209 26.8645 6.375 25.1041 6.375H10.2291ZM11.2916 13.8125C11.2916 12.0521 12.7187 10.625 14.4791 10.625H20.8541C22.6145 10.625 24.0416 12.0521 24.0416 13.8125V20.1875C24.0416 21.9479 22.6145 23.375 20.8541 23.375H14.4791C12.7187 23.375 11.2916 21.9479 11.2916 20.1875V13.8125ZM14.4791 12.75C13.8923 12.75 13.4166 13.2257 13.4166 13.8125V20.1875C13.4166 20.7743 13.8923 21.25 14.4791 21.25H20.8541C21.4409 21.25 21.9166 20.7743 21.9166 20.1875V13.8125C21.9166 13.2257 21.4409 12.75 20.8541 12.75H14.4791Z" fill="#0186F3"/>
</svg>
