<svg width="1759" height="1016" viewBox="0 0 1759 1016" fill="none" xmlns="http://www.w3.org/2000/svg">
<circle cx="330.761" cy="335.601" r="23.2645" fill="#F178B6" fill-opacity="0.1"/>
<circle cx="328.739" cy="992.065" r="23.2645" fill="#F178B6" fill-opacity="0.1"/>
<circle cx="1678.59" cy="202.589" r="80.4143" fill="#231F20" fill-opacity="0.1"/>
<circle cx="1445.94" cy="927.835" r="80.4143" fill="#F178B6" fill-opacity="0.1"/>
<path d="M165.96 125.793L237.581 125.793L201.77 187.818L165.96 125.793Z" fill="#023047" fill-opacity="0.27"/>
<path d="M349.243 461.064L420.864 461.064L385.054 523.089L349.243 461.064Z" fill="#E1E1E1" fill-opacity="0.86"/>
<path d="M1274.8 169.294L1211.41 232.691L1188.2 146.089L1274.8 169.294Z" fill="#231F20" fill-opacity="0.1"/>
<path d="M1242.76 791.041L1253.75 880.022L1171.2 845.049L1242.76 791.041Z" fill="#F178B6" fill-opacity="0.1"/>
<rect x="421.324" y="77.2305" width="108.404" height="108.404" transform="rotate(-45 421.324 77.2305)" fill="#00337B" fill-opacity="0.1"/>
<rect x="164.775" y="793.575" width="108.404" height="108.404" transform="rotate(-19.9737 164.775 793.575)" fill="#00337B" fill-opacity="0.1"/>
<rect x="12.8633" y="624.692" width="108.404" height="108.404" transform="rotate(-88.1037 12.8633 624.692)" fill="#00337B" fill-opacity="0.1"/>
<rect y="241.677" width="147.954" height="137.343" transform="rotate(-27.3075 0 241.677)" fill="#00337B" fill-opacity="0.1"/>
<rect x="1480.55" y="71.8721" width="67.6362" height="67.6362" transform="rotate(-45 1480.55 71.8721)" fill="#F5F7FF"/>
<rect x="1455.25" y="645.582" width="119.326" height="119.326" transform="rotate(-12.1635 1455.25 645.582)" fill="#98AAFF" fill-opacity="0.1"/>
<rect x="1616.01" y="420.554" width="67.6362" height="67.6362" transform="rotate(-45 1616.01 420.554)" fill="#98AAFF" fill-opacity="0.1"/>
<rect x="1368.12" y="487.393" width="42.045" height="42.045" transform="rotate(-45 1368.12 487.393)" fill="#98AAFF" fill-opacity="0.1"/>
<rect x="1160.35" y="707.063" width="159.812" height="41.3501" transform="rotate(135 1160.35 707.063)" fill="#231F20" fill-opacity="0.1"/>
<rect x="708.553" y="221.525" width="159.812" height="41.3501" transform="rotate(-105 708.553 221.525)" fill="#FEF1F8"/>
<rect x="536.373" y="855.73" width="159.812" height="41.3501" transform="rotate(-76.7194 536.373 855.73)" fill="#F178B6" fill-opacity="0.1"/>
</svg>
