<svg width="85" height="85" viewBox="0 0 85 85" fill="none" xmlns="http://www.w3.org/2000/svg">
<rect width="85" height="85" rx="10" fill="#4FC553" fill-opacity="0.1"/>
<path d="M31 13.75V22.375" stroke="#16AB5E" stroke-width="4" stroke-miterlimit="10" stroke-linecap="round" stroke-linejoin="round"/>
<path d="M54 13.75V22.375" stroke="#16AB5E" stroke-width="4" stroke-miterlimit="10" stroke-linecap="round" stroke-linejoin="round"/>
<path d="M54 18.0625C63.5737 18.58 68.375 22.2312 68.375 35.7437V53.5112C68.375 65.3562 65.5 71.2788 51.125 71.2788H33.875C19.5 71.2788 16.625 65.3562 16.625 53.5112V35.7437C16.625 22.2312 21.4263 18.6087 31 18.0625H54Z" stroke="#16AB5E" stroke-width="4" stroke-miterlimit="10" stroke-linecap="round" stroke-linejoin="round"/>
<path d="M67.6562 58.6001H17.3438" stroke="#16AB5E" stroke-width="4" stroke-miterlimit="10" stroke-linecap="round" stroke-linejoin="round"/>
<path d="M46.8034 48.4289C47.1841 47.9582 47.4604 47.4135 47.6194 46.8153C47.4966 47.4781 47.212 48.0076 46.8034 48.4289ZM38.2418 48.4839C37.8059 48.0532 37.5031 47.5033 37.3775 46.8035C37.5422 47.4298 37.8351 47.9977 38.2418 48.4839Z" fill="#292D32" stroke="#16AB5E" stroke-width="4"/>
</svg>
