<svg width="35" height="34" viewBox="0 0 35 34" fill="none" xmlns="http://www.w3.org/2000/svg">
<path fill-rule="evenodd" clip-rule="evenodd" d="M11.125 0C11.7118 0 12.1875 0.475697 12.1875 1.0625V4.25H14.3125V1.0625C14.3125 0.475697 14.7882 0 15.375 0C15.9618 0 16.4375 0.475697 16.4375 1.0625V4.25H18.5625V1.0625C18.5625 0.475697 19.0382 0 19.625 0C20.2118 0 20.6875 0.475697 20.6875 1.0625V4.25H22.8125V1.0625C22.8125 0.475697 23.2882 0 23.875 0C24.4618 0 24.9375 0.475697 24.9375 1.0625V4.25C27.8715 4.25 30.25 6.62849 30.25 9.5625H33.4375C34.0243 9.5625 34.5 10.0382 34.5 10.625C34.5 11.2118 34.0243 11.6875 33.4375 11.6875H30.25V13.8125H33.4375C34.0243 13.8125 34.5 14.2882 34.5 14.875C34.5 15.4618 34.0243 15.9375 33.4375 15.9375H30.25V18.0625H33.4375C34.0243 18.0625 34.5 18.5382 34.5 19.125C34.5 19.7118 34.0243 20.1875 33.4375 20.1875H30.25V22.3125H33.4375C34.0243 22.3125 34.5 22.7882 34.5 23.375C34.5 23.9618 34.0243 24.4375 33.4375 24.4375H30.25C30.25 27.3715 27.8715 29.75 24.9375 29.75V32.9375C24.9375 33.5243 24.4618 34 23.875 34C23.2882 34 22.8125 33.5243 22.8125 32.9375V29.75H20.6875V32.9375C20.6875 33.5243 20.2118 34 19.625 34C19.0382 34 18.5625 33.5243 18.5625 32.9375V29.75H16.4375V32.9375C16.4375 33.5243 15.9618 34 15.375 34C14.7882 34 14.3125 33.5243 14.3125 32.9375V29.75H12.1875V32.9375C12.1875 33.5243 11.7118 34 11.125 34C10.5382 34 10.0625 33.5243 10.0625 32.9375V29.75C7.12847 29.75 4.74998 27.3715 4.74998 24.4375H1.56248C0.975682 24.4375 0.499985 23.9618 0.499985 23.375C0.499985 22.7882 0.975682 22.3125 1.56248 22.3125H4.74998V20.1875H1.56248C0.975682 20.1875 0.499985 19.7118 0.499985 19.125C0.499985 18.5382 0.975682 18.0625 1.56248 18.0625H4.74998V15.9375H1.56248C0.975682 15.9375 0.499985 15.4618 0.499985 14.875C0.499985 14.2882 0.975682 13.8125 1.56248 13.8125H4.74998V11.6875H1.56248C0.975682 11.6875 0.499985 11.2118 0.499985 10.625C0.499985 10.0382 0.975682 9.5625 1.56248 9.5625H4.74998C4.74998 6.62849 7.12847 4.25 10.0625 4.25V1.0625C10.0625 0.475697 10.5382 0 11.125 0ZM10.0625 6.375C8.30208 6.375 6.87498 7.80209 6.87498 9.5625V24.4375C6.87498 26.1979 8.30208 27.625 10.0625 27.625H24.9375C26.6979 27.625 28.125 26.1979 28.125 24.4375V9.5625C28.125 7.80209 26.6979 6.375 24.9375 6.375H10.0625ZM11.125 13.8125C11.125 12.0521 12.5521 10.625 14.3125 10.625H20.6875C22.4479 10.625 23.875 12.0521 23.875 13.8125V20.1875C23.875 21.9479 22.4479 23.375 20.6875 23.375H14.3125C12.5521 23.375 11.125 21.9479 11.125 20.1875V13.8125ZM14.3125 12.75C13.7257 12.75 13.25 13.2257 13.25 13.8125V20.1875C13.25 20.7743 13.7257 21.25 14.3125 21.25H20.6875C21.2743 21.25 21.75 20.7743 21.75 20.1875V13.8125C21.75 13.2257 21.2743 12.75 20.6875 12.75H14.3125Z" fill="#9747FF"/>
</svg>
