<svg width="85" height="85" viewBox="0 0 85 85" fill="none" xmlns="http://www.w3.org/2000/svg">
<rect width="85" height="85" rx="10" fill="#3D5AA9" fill-opacity="0.1"/>
<path d="M59.75 28.585C59.5775 28.5563 59.3762 28.5563 59.2037 28.585C55.2362 28.4413 52.0737 25.1925 52.0737 21.1675C52.0737 17.0563 55.38 13.75 59.4912 13.75C63.6025 13.75 66.9087 17.085 66.9087 21.1675C66.88 25.1925 63.7175 28.4413 59.75 28.585Z" stroke="#3D5AA9" stroke-width="4" stroke-linecap="round" stroke-linejoin="round"/>
<path d="M56.7889 49.515C60.7276 50.1762 65.0689 49.4862 68.1164 47.445C72.1701 44.7425 72.1701 40.315 68.1164 37.6125C65.0401 35.5712 60.6414 34.8812 56.7026 35.5712" stroke="#3D5AA9" stroke-width="4" stroke-linecap="round" stroke-linejoin="round"/>
<path d="M25.1636 28.585C25.3361 28.5563 25.5374 28.5563 25.7099 28.585C29.6774 28.4413 32.8399 25.1925 32.8399 21.1675C32.8399 17.0563 29.5336 13.75 25.4224 13.75C21.3111 13.75 18.0049 17.085 18.0049 21.1675C18.0336 25.1925 21.1961 28.4413 25.1636 28.585Z" stroke="#3D5AA9" stroke-width="4" stroke-linecap="round" stroke-linejoin="round"/>
<path d="M28.1251 49.515C24.1864 50.1762 19.8451 49.4862 16.7976 47.445C12.7439 44.7425 12.7439 40.315 16.7976 37.6125C19.8739 35.5712 24.2726 34.8812 28.2114 35.5712" stroke="#3D5AA9" stroke-width="4" stroke-linecap="round" stroke-linejoin="round"/>
<path d="M42.5 50.0613C42.3275 50.0326 42.1262 50.0326 41.9537 50.0613C37.9862 49.9176 34.8237 46.6688 34.8237 42.6438C34.8237 38.5326 38.13 35.2263 42.2412 35.2263C46.3525 35.2263 49.6587 38.5613 49.6587 42.6438C49.63 46.6688 46.4675 49.9463 42.5 50.0613Z" stroke="#3D5AA9" stroke-width="4" stroke-linecap="round" stroke-linejoin="round"/>
<path d="M34.1336 59.1177C30.0798 61.8202 30.0798 66.2477 34.1336 68.9502C38.7336 72.0264 46.2661 72.0264 50.8661 68.9502C54.9198 66.2477 54.9198 61.8202 50.8661 59.1177C46.2948 56.0702 38.7336 56.0702 34.1336 59.1177Z" stroke="#3D5AA9" stroke-width="4" stroke-linecap="round" stroke-linejoin="round"/>
</svg>
