<svg width="117" height="118" viewBox="0 0 117 118" fill="none" xmlns="http://www.w3.org/2000/svg">
<rect width="116" height="118" transform="translate(0.5)" fill="#0DC858" fill-opacity="0.1"/>
<path d="M58.5 77C56.3667 77 54.35 76.65 52.45 75.95C50.55 75.25 48.8333 74.2833 47.3 73.05L44.75 75.6C44.35 76 43.8833 76.1913 43.35 76.174C42.8167 76.158 42.35 75.95 41.95 75.55C41.55 75.15 41.35 74.6747 41.35 74.124C41.35 73.5747 41.55 73.1 41.95 72.7L44.45 70.2C43.2167 68.6667 42.25 66.9413 41.55 65.024C40.85 63.108 40.5 61.1 40.5 59C40.5 54 42.2587 49.75 45.776 46.25C49.292 42.75 53.5333 41 58.5 41H72.5C73.6 41 74.542 41.3913 75.326 42.174C76.1087 42.958 76.5 43.9 76.5 45V59C76.5 63.9667 74.75 68.2087 71.25 71.726C67.75 75.242 63.5 77 58.5 77ZM55.85 68.75L66.2 59.5C66.5333 59.2 66.6333 58.8413 66.5 58.424C66.3667 58.008 66.0667 57.7667 65.6 57.7L57.5 56.9L62.35 50.25C62.4833 50.0833 62.5413 49.908 62.524 49.724C62.508 49.5413 62.4333 49.3667 62.3 49.2C62.1333 49.0333 61.942 48.95 61.726 48.95C61.5087 48.95 61.3167 49.0333 61.15 49.2L50.85 58.45C50.5167 58.75 50.4167 59.108 50.55 59.524C50.6833 59.9413 50.9833 60.1833 51.45 60.25L59.55 61.05L54.65 67.7C54.55 67.8667 54.5 68.042 54.5 68.226C54.5 68.4087 54.5833 68.5833 54.75 68.75C54.9167 68.9167 55.1 69 55.3 69C55.5 69 55.6833 68.9167 55.85 68.75Z" fill="#0DC858"/>
</svg>
