<svg width="123" height="121" viewBox="0 0 123 121" fill="none" xmlns="http://www.w3.org/2000/svg">
<rect width="122" height="121" transform="translate(0.5)" fill="#16BBDF" fill-opacity="0.1"/>
<path d="M40.5 71.75C40.5 73.1424 41.0531 74.4777 42.0377 75.4623C43.0223 76.4469 44.3576 77 45.75 77H77.25C78.6424 77 79.9777 76.4469 80.9623 75.4623C81.9469 74.4777 82.5 73.1424 82.5 71.75V57.3125H40.5V71.75ZM46.6875 64.625C46.6875 63.8791 46.9838 63.1637 47.5113 62.6363C48.0387 62.1088 48.7541 61.8125 49.5 61.8125H54C54.7459 61.8125 55.4613 62.1088 55.9887 62.6363C56.5162 63.1637 56.8125 63.8791 56.8125 64.625V66.5C56.8125 67.2459 56.5162 67.9613 55.9887 68.4887C55.4613 69.0162 54.7459 69.3125 54 69.3125H49.5C48.7541 69.3125 48.0387 69.0162 47.5113 68.4887C46.9838 67.9613 46.6875 67.2459 46.6875 66.5V64.625Z" fill="#16BBDF"/>
<path d="M77.25 44H45.75C44.3576 44 43.0223 44.5531 42.0377 45.5377C41.0531 46.5223 40.5 47.8576 40.5 49.25V51.6875H82.5V49.25C82.5 47.8576 81.9469 46.5223 80.9623 45.5377C79.9777 44.5531 78.6424 44 77.25 44V44Z" fill="#16BBDF"/>
</svg>
