<svg width="85" height="85" viewBox="0 0 85 85" fill="none" xmlns="http://www.w3.org/2000/svg">
<rect width="85" height="85" rx="10" fill="#FF5F08" fill-opacity="0.1"/>
<path d="M60.1526 70.1574C57.6227 70.9049 54.6327 71.2499 51.1252 71.2499H33.8752C30.3677 71.2499 27.3777 70.9049 24.8477 70.1574C25.4802 62.6824 33.1564 56.7886 42.5002 56.7886C51.8439 56.7886 59.5201 62.6824 60.1526 70.1574Z" stroke="#FF5F08" stroke-width="4" stroke-linecap="round" stroke-linejoin="round"/>
<path d="M51.125 13.75H33.875C19.5 13.75 13.75 19.5 13.75 33.875V51.125C13.75 61.9925 17.0275 67.9437 24.8475 70.1575C25.48 62.6825 33.1562 56.7887 42.5 56.7887C51.8438 56.7887 59.52 62.6825 60.1525 70.1575C67.9725 67.9437 71.25 61.9925 71.25 51.125V33.875C71.25 19.5 65.5 13.75 51.125 13.75ZM42.5 48.7387C36.8075 48.7387 32.2075 44.11 32.2075 38.4175C32.2075 32.725 36.8075 28.125 42.5 28.125C48.1925 28.125 52.7925 32.725 52.7925 38.4175C52.7925 44.11 48.1925 48.7387 42.5 48.7387Z" stroke="#FF5F08" stroke-width="4" stroke-linecap="round" stroke-linejoin="round"/>
<path d="M52.7925 38.4175C52.7925 44.11 48.1925 48.7387 42.5 48.7387C36.8075 48.7387 32.2075 44.11 32.2075 38.4175C32.2075 32.725 36.8075 28.125 42.5 28.125C48.1925 28.125 52.7925 32.725 52.7925 38.4175Z" stroke="#FF5F08" stroke-width="4" stroke-linecap="round" stroke-linejoin="round"/>
</svg>
