<svg width="85" height="85" viewBox="0 0 85 85" fill="none" xmlns="http://www.w3.org/2000/svg">
<rect width="85" height="85" rx="10" fill="#FFB900" fill-opacity="0.1"/>
<path d="M32.9316 49.1983C32.9316 52.9071 35.7779 55.897 39.3141 55.897H46.5304C49.6066 55.897 52.1079 53.2808 52.1079 50.0608C52.1079 46.5533 50.5841 45.317 48.3129 44.512L36.7266 40.4871C34.4554 39.6821 32.9316 38.4458 32.9316 34.9383C32.9316 31.7183 35.4329 29.1021 38.5091 29.1021H45.7254C49.2616 29.1021 52.1079 32.0921 52.1079 35.8008" stroke="#FFB900" stroke-width="4" stroke-linecap="round" stroke-linejoin="round"/>
<path d="M42.5 25.25V59.75" stroke="#FFB900" stroke-width="4" stroke-linecap="round" stroke-linejoin="round"/>
<path d="M51.125 71.25H33.875C19.5 71.25 13.75 65.5 13.75 51.125V33.875C13.75 19.5 19.5 13.75 33.875 13.75H51.125C65.5 13.75 71.25 19.5 71.25 33.875V51.125C71.25 65.5 65.5 71.25 51.125 71.25Z" stroke="#FFB900" stroke-width="4" stroke-linecap="round" stroke-linejoin="round"/>
</svg>
