<svg width="128" height="120" viewBox="0 0 128 120" fill="none" xmlns="http://www.w3.org/2000/svg">
<rect width="128" height="120" fill="#0BDBB5" fill-opacity="0.1"/>
<path d="M61 61.9982H59C57.34 61.9982 56 60.6582 56 58.9982C56 57.3382 57.34 55.9982 59 55.9982H61V53.9982C61 52.3382 62.34 50.9982 64 50.9982C65.66 50.9982 67 52.3382 67 53.9982V55.9982H69C70.66 55.9982 72 57.3382 72 58.9982C72 60.6582 70.66 61.9982 69 61.9982H67V63.9982C67 65.6582 65.66 66.9982 64 66.9982C62.34 66.9982 61 65.6582 61 63.9982V61.9982ZM62.6 40.5182L50.6 45.0182C49.04 45.6182 48 47.0982 48 48.7782V58.1782C48 68.2782 54.82 77.6982 64 79.9982C73.18 77.6982 80 68.2782 80 58.1782V48.7782C80 47.1182 78.96 45.6182 77.4 45.0382L65.4 40.5382C64.5 40.1782 63.5 40.1782 62.6 40.5182Z" fill="#0BDBB5"/>
</svg>
