<svg width="104" height="104" viewBox="0 0 104 104" fill="none" xmlns="http://www.w3.org/2000/svg">
<rect width="104" height="104" fill="#0A66C2" fill-opacity="0.2"/>
<g clip-path="url(#clip0_13978_123800)">
<path d="M61.8571 61.8577H57.7084V55.3605C57.7084 53.8112 57.6807 51.8168 55.5506 51.8168C53.3898 51.8168 53.0592 53.5049 53.0592 55.2477V61.8573H48.9106V48.4965H52.8932V50.3224H52.949C53.3476 49.6409 53.9236 49.0802 54.6156 48.7001C55.3076 48.3201 56.0897 48.1348 56.8786 48.1641C61.0836 48.1641 61.8588 50.9299 61.8588 54.5282L61.8571 61.8577V61.8577ZM44.2293 46.6702C42.8996 46.6704 41.8215 45.5927 41.8213 44.263C41.8211 42.9333 42.8988 41.8552 44.2284 41.855C45.5581 41.8547 46.6362 42.9324 46.6364 44.2621C46.6366 44.9007 46.383 45.5131 45.9316 45.9647C45.4802 46.4163 44.8679 46.6701 44.2293 46.6702M46.3037 61.8578H42.1506V48.4965H46.3036V61.8577L46.3037 61.8578ZM63.9254 38.002H40.066C38.9383 37.9894 38.0135 38.8927 37.9998 40.0203V63.9793C38.0131 65.1075 38.9378 66.0117 40.0658 65.9999H63.9254C65.0559 66.0139 65.9841 65.1097 65.9998 63.9793V40.0185C65.9837 38.8886 65.0553 37.9854 63.9254 38.0002" fill="#0A66C2"/>
</g>
<defs>
<clipPath id="clip0_13978_123800">
<rect width="28" height="28" fill="white" transform="translate(38 38)"/>
</clipPath>
</defs>
</svg>
