<svg width="104" height="104" viewBox="0 0 104 104" fill="none" xmlns="http://www.w3.org/2000/svg">
<rect width="104" height="104" fill="#E86136" fill-opacity="0.2"/>
<path d="M65.8667 38.1338H38.1334C36.2267 38.1338 34.6667 39.6938 34.6667 41.6005V62.4005C34.6667 64.3071 36.2267 65.8671 38.1334 65.8671H65.8667C67.7734 65.8671 69.3334 64.3071 69.3334 62.4005V41.6005C69.3334 39.6938 67.7734 38.1338 65.8667 38.1338ZM65.1734 45.5005L53.8374 52.5898C52.7107 53.3005 51.2894 53.3005 50.1627 52.5898L38.8267 45.5005C38.6529 45.4029 38.5007 45.2711 38.3794 45.113C38.258 44.9549 38.1699 44.7738 38.1205 44.5807C38.0712 44.3876 38.0615 44.1865 38.0921 43.9895C38.1227 43.7926 38.1929 43.6039 38.2986 43.4348C38.4042 43.2658 38.543 43.12 38.7067 43.0062C38.8703 42.8924 39.0553 42.8129 39.2505 42.7727C39.4458 42.7325 39.6471 42.7323 39.8424 42.7721C40.0377 42.8119 40.2229 42.891 40.3867 43.0045L52.0001 50.2671L63.6134 43.0045C63.7773 42.891 63.9625 42.8119 64.1578 42.7721C64.3531 42.7323 64.5544 42.7325 64.7496 42.7727C64.9448 42.8129 65.1299 42.8924 65.2935 43.0062C65.4571 43.12 65.596 43.2658 65.7016 43.4348C65.8072 43.6039 65.8775 43.7926 65.9081 43.9895C65.9387 44.1865 65.929 44.3876 65.8796 44.5807C65.8302 44.7738 65.7422 44.9549 65.6208 45.113C65.4994 45.2711 65.3472 45.4029 65.1734 45.5005V45.5005Z" fill="#E86136"/>
</svg>
