<svg width="104" height="104" viewBox="0 0 104 104" fill="none" xmlns="http://www.w3.org/2000/svg">
<rect width="104" height="104" fill="#2E2E2E" fill-opacity="0.2"/>
<path d="M64.5875 66.25C61.1833 66.25 57.8652 65.4911 54.6331 63.9732C51.3999 62.4563 48.5367 60.4508 46.0435 57.9565C43.5492 55.4633 41.5437 52.6001 40.0268 49.3669C38.5089 46.1348 37.75 42.8167 37.75 39.4125C37.75 38.9375 37.9083 38.5417 38.225 38.225C38.5417 37.9083 38.9375 37.75 39.4125 37.75H45.825C46.1944 37.75 46.5243 37.8687 46.8146 38.1062C47.1049 38.3437 47.2764 38.6472 47.3292 39.0167L48.3583 44.5583C48.4111 44.9278 48.4048 45.264 48.3393 45.5669C48.2728 45.8709 48.1208 46.1417 47.8833 46.3792L44.0833 50.2583C45.1917 52.1583 46.5771 53.9396 48.2396 55.6021C49.9021 57.2646 51.7361 58.7028 53.7417 59.9167L57.4625 56.1958C57.7 55.9583 58.0103 55.7799 58.3935 55.6607C58.7756 55.5424 59.1514 55.5097 59.5208 55.5625L64.9833 56.6708C65.3528 56.75 65.6563 56.9279 65.8938 57.2044C66.1313 57.482 66.25 57.8056 66.25 58.175V64.5875C66.25 65.0625 66.0917 65.4583 65.775 65.775C65.4583 66.0917 65.0625 66.25 64.5875 66.25Z" fill="black"/>
</svg>
