<svg width="68" height="68" viewBox="0 0 68 68" fill="none" xmlns="http://www.w3.org/2000/svg">
<path fill-rule="evenodd" clip-rule="evenodd" d="M63.75 59.5C63.75 59.5 68 59.5 68 55.25C68 51 63.75 38.25 46.75 38.25C29.75 38.25 25.5 51 25.5 55.25C25.5 59.5 29.75 59.5 29.75 59.5H63.75ZM29.845 55.25H63.655C63.6698 55.2483 63.6904 55.2456 63.7154 55.2414C63.7271 55.2395 63.7387 55.2374 63.75 55.2352C63.7438 54.113 63.0408 50.8594 60.5232 47.9221C58.1683 45.1748 54.0486 42.5 46.75 42.5C39.4514 42.5 35.3317 45.1748 32.9768 47.9221C30.4592 50.8594 29.7562 54.113 29.75 55.2352C29.7613 55.2374 29.7729 55.2395 29.7846 55.2414C29.8096 55.2456 29.8302 55.2483 29.845 55.25Z" fill="#231F20"/>
<path fill-rule="evenodd" clip-rule="evenodd" d="M46.75 29.75C51.4444 29.75 55.25 25.9444 55.25 21.25C55.25 16.5556 51.4444 12.75 46.75 12.75C42.0556 12.75 38.25 16.5556 38.25 21.25C38.25 25.9444 42.0556 29.75 46.75 29.75ZM59.5 21.25C59.5 28.2916 53.7916 34 46.75 34C39.7084 34 34 28.2916 34 21.25C34 14.2084 39.7084 8.5 46.75 8.5C53.7916 8.5 59.5 14.2084 59.5 21.25Z" fill="#231F20"/>
<path fill-rule="evenodd" clip-rule="evenodd" d="M29.4777 39.4399C27.9146 38.9399 26.178 38.5764 24.2517 38.3905C23.2983 38.2985 22.2984 38.25 21.25 38.25C4.25 38.25 0 51 0 55.25C0 58.0833 1.41667 59.5 4.25 59.5H22.1695C21.5711 58.2926 21.25 56.8613 21.25 55.25C21.25 50.9563 22.8533 46.5716 25.8817 42.9088C26.9164 41.6574 28.1174 40.4903 29.4777 39.4399ZM20.9102 42.5019C13.8231 42.5836 9.79491 45.2177 7.47684 47.9221C4.94804 50.8724 4.25 54.1419 4.25 55.25H17C17 50.8074 18.3709 46.3829 20.9102 42.5019Z" fill="#231F20"/>
<path fill-rule="evenodd" clip-rule="evenodd" d="M6.375 23.375C6.375 16.3334 12.0834 10.625 19.125 10.625C26.1666 10.625 31.875 16.3334 31.875 23.375C31.875 30.4166 26.1666 36.125 19.125 36.125C12.0834 36.125 6.375 30.4166 6.375 23.375ZM19.125 14.875C14.4306 14.875 10.625 18.6806 10.625 23.375C10.625 28.0694 14.4306 31.875 19.125 31.875C23.8194 31.875 27.625 28.0694 27.625 23.375C27.625 18.6806 23.8194 14.875 19.125 14.875Z" fill="#231F20"/>
</svg>
