<svg width="86" height="85" viewBox="0 0 86 85" fill="none" xmlns="http://www.w3.org/2000/svg">
<rect x="0.333496" width="85" height="85" rx="10" fill="#3D5AA9" fill-opacity="0.1"/>
<path d="M17.4473 29.3899L42.8335 44.0811L68.0473 29.4761" stroke="#3D5AA9" stroke-width="4" stroke-linecap="round" stroke-linejoin="round"/>
<path d="M42.8335 70.1287V44.0525" stroke="#3D5AA9" stroke-width="4" stroke-linecap="round" stroke-linejoin="round"/>
<path d="M36.8821 15.13L21.5296 23.64C18.0508 25.5662 15.2046 30.3962 15.2046 34.3637V50.6075C15.2046 54.575 18.0508 59.4049 21.5296 61.3312L36.8821 69.87C40.1596 71.6812 45.5358 71.6812 48.8133 69.87L64.1658 61.3312C67.6446 59.4049 70.4908 54.575 70.4908 50.6075V34.3637C70.4908 30.3962 67.6446 25.5662 64.1658 23.64L48.8133 15.1012C45.5071 13.29 40.1596 13.29 36.8821 15.13Z" stroke="#3D5AA9" stroke-width="4" stroke-linecap="round" stroke-linejoin="round"/>
</svg>
