<svg width="172" height="132" viewBox="0 0 172 132" fill="none" xmlns="http://www.w3.org/2000/svg">
<path d="M0 132V91.4393C0 80.1725 2.18469 68.787 6.55407 57.283C11.0415 45.6604 16.828 34.8679 23.9135 24.9056C31.1171 14.8248 38.5568 6.52291 46.2328 0L83.0772 20.2803C76.7003 30.717 71.6224 41.628 67.8435 53.0135C64.0645 64.2803 62.2341 77.0296 62.3522 91.2614V132H0ZM88.9228 132V91.4393C88.9228 80.1725 91.1075 68.787 95.4768 57.283C99.9643 45.6604 105.751 34.8679 112.836 24.9056C120.04 14.8248 127.48 6.52291 135.156 0L172 20.2803C165.623 30.717 160.545 41.628 156.766 53.0135C152.987 64.2803 151.157 77.0296 151.275 91.2614V132H88.9228Z" fill="#3D5AA9"/>
</svg>
