<svg width="129" height="120" viewBox="0 0 129 120" fill="none" xmlns="http://www.w3.org/2000/svg">
<rect width="128" height="120" transform="translate(0.5)" fill="#E3951F" fill-opacity="0.1"/>
<path d="M62.5 54H66.5V48H72.5V44H66.5V38H62.5V44H56.5V48H62.5V54ZM54.5 72C52.3 72 50.52 73.8 50.52 76C50.52 78.2 52.3 80 54.5 80C56.7 80 58.5 78.2 58.5 76C58.5 73.8 56.7 72 54.5 72ZM74.5 72C72.3 72 70.52 73.8 70.52 76C70.52 78.2 72.3 80 74.5 80C76.7 80 78.5 78.2 78.5 76C78.5 73.8 76.7 72 74.5 72ZM54.84 65.5L54.9 65.26L56.7 62H71.6C73.1 62 74.42 61.18 75.1 59.94L82.82 45.92L79.34 44H79.32L77.12 48L71.6 58H57.56L57.3 57.46L52.82 48L50.92 44L49.04 40H42.5V44H46.5L53.7 59.18L51 64.08C50.68 64.64 50.5 65.3 50.5 66C50.5 68.2 52.3 70 54.5 70H78.5V66H55.34C55.08 66 54.84 65.78 54.84 65.5Z" fill="#E3951F"/>
</svg>
