<svg width="1606" height="336" viewBox="0 0 1606 336" fill="none" xmlns="http://www.w3.org/2000/svg">
<path d="M0 0.926758L107.062 46.6242V121.698L0 76.0011V0.926758Z" fill="#676767" fill-opacity="0.1"/>
<path d="M107.062 335.171L214.125 289.473V214.399L107.062 260.097V335.171Z" fill="#676767" fill-opacity="0.1"/>
<path d="M0 143.241L107.062 188.939V264.013L0 218.316V143.241Z" fill="#676767" fill-opacity="0.1"/>
<path d="M107.062 192.856L214.125 147.159V72.0842L107.062 117.782V192.856Z" fill="#676767" fill-opacity="0.1"/>
<path d="M214.125 0.926758L321.188 46.6242V121.698L214.125 76.0011V0.926758Z" fill="#676767" fill-opacity="0.1"/>
<path d="M321.188 335.171L428.25 289.473V214.399L321.188 260.097V335.171Z" fill="#676767" fill-opacity="0.1"/>
<path d="M214.125 143.241L321.188 188.939V264.013L214.125 218.316V143.241Z" fill="#676767" fill-opacity="0.1"/>
<path d="M321.188 192.856L428.25 147.159V72.0842L321.188 117.782V192.856Z" fill="#676767" fill-opacity="0.1"/>
<path d="M428.25 0.926758L535.312 46.6242V121.698L428.25 76.0011V0.926758Z" fill="#676767" fill-opacity="0.1"/>
<path d="M535.312 335.171L642.375 289.473V214.399L535.312 260.097V335.171Z" fill="#676767" fill-opacity="0.1"/>
<path d="M428.25 143.241L535.312 188.939V264.013L428.25 218.316V143.241Z" fill="#676767" fill-opacity="0.1"/>
<path d="M535.312 192.856L642.375 147.159V72.0842L535.312 117.782V192.856Z" fill="#676767" fill-opacity="0.1"/>
<path d="M642.375 0.926758L749.438 46.6242V121.698L642.375 76.0011V0.926758Z" fill="#676767" fill-opacity="0.1"/>
<path d="M749.438 335.171L856.5 289.473V214.399L749.438 260.097V335.171Z" fill="#676767" fill-opacity="0.1"/>
<path d="M642.375 143.241L749.438 188.939V264.013L642.375 218.316V143.241Z" fill="#676767" fill-opacity="0.1"/>
<path d="M749.438 192.856L856.5 147.159V72.0842L749.438 117.782V192.856Z" fill="#676767" fill-opacity="0.1"/>
<path d="M856.5 0.926758L963.562 46.6242V121.698L856.5 76.0011V0.926758Z" fill="#676767" fill-opacity="0.1"/>
<path d="M963.562 335.171L1070.62 289.473V214.399L963.562 260.097V335.171Z" fill="#676767" fill-opacity="0.1"/>
<path d="M856.5 143.241L963.562 188.939V264.013L856.5 218.316V143.241Z" fill="#676767" fill-opacity="0.1"/>
<path d="M963.562 192.856L1070.62 147.159V72.0842L963.562 117.782V192.856Z" fill="#676767" fill-opacity="0.1"/>
<path d="M1070.62 0.926758L1177.69 46.6242V121.698L1070.62 76.0011V0.926758Z" fill="#676767" fill-opacity="0.1"/>
<path d="M1177.69 335.171L1284.75 289.473V214.399L1177.69 260.097V335.171Z" fill="#676767" fill-opacity="0.1"/>
<path d="M1070.62 143.241L1177.69 188.939V264.013L1070.62 218.316V143.241Z" fill="#676767" fill-opacity="0.1"/>
<path d="M1177.69 192.856L1284.75 147.159V72.0842L1177.69 117.782V192.856Z" fill="#676767" fill-opacity="0.1"/>
<path d="M1284.75 0.926758L1391.81 46.6242V121.698L1284.75 76.0011V0.926758Z" fill="#676767" fill-opacity="0.1"/>
<path d="M1391.81 335.171L1498.88 289.473V214.399L1391.81 260.097V335.171Z" fill="#676767" fill-opacity="0.1"/>
<path d="M1284.75 143.241L1391.81 188.939V264.013L1284.75 218.316V143.241Z" fill="#676767" fill-opacity="0.1"/>
<path d="M1391.81 192.856L1498.88 147.159V72.0842L1391.81 117.782V192.856Z" fill="#676767" fill-opacity="0.1"/>
<path d="M1498.88 0.926758L1605.94 46.6242V121.698L1498.88 76.0011V0.926758Z" fill="#676767" fill-opacity="0.1"/>
<path d="M1498.88 143.241L1605.94 188.939V264.013L1498.88 218.316V143.241Z" fill="#676767" fill-opacity="0.1"/>
</svg>
