<svg width="35" height="34" viewBox="0 0 35 34" fill="none" xmlns="http://www.w3.org/2000/svg">
<path fill-rule="evenodd" clip-rule="evenodd" d="M30.0833 4.25H4.58331C3.40971 4.25 2.45831 5.2014 2.45831 6.375V27.625C2.45831 28.7986 3.40971 29.75 4.58331 29.75H30.0833C31.2569 29.75 32.2083 28.7986 32.2083 27.625V6.375C32.2083 5.2014 31.2569 4.25 30.0833 4.25ZM4.58331 2.125C2.2361 2.125 0.333313 4.02779 0.333313 6.375V27.625C0.333313 29.9722 2.2361 31.875 4.58331 31.875H30.0833C32.4305 31.875 34.3333 29.9722 34.3333 27.625V6.375C34.3333 4.02779 32.4305 2.125 30.0833 2.125H4.58331Z" fill="#347295"/>
<path fill-rule="evenodd" clip-rule="evenodd" d="M32.2083 12.75H2.45831V10.625H32.2083V12.75Z" fill="#347295"/>
<path d="M6.70831 7.4375C6.70831 8.0243 6.23262 8.5 5.64581 8.5C5.05901 8.5 4.58331 8.0243 4.58331 7.4375C4.58331 6.8507 5.05901 6.375 5.64581 6.375C6.23262 6.375 6.70831 6.8507 6.70831 7.4375Z" fill="#347295"/>
<path d="M9.89581 7.4375C9.89581 8.0243 9.42012 8.5 8.83331 8.5C8.24651 8.5 7.77081 8.0243 7.77081 7.4375C7.77081 6.8507 8.24651 6.375 8.83331 6.375C9.42012 6.375 9.89581 6.8507 9.89581 7.4375Z" fill="#347295"/>
<path d="M13.0833 7.4375C13.0833 8.0243 12.6076 8.5 12.0208 8.5C11.434 8.5 10.9583 8.0243 10.9583 7.4375C10.9583 6.8507 11.434 6.375 12.0208 6.375C12.6076 6.375 13.0833 6.8507 13.0833 7.4375Z" fill="#347295"/>
<path fill-rule="evenodd" clip-rule="evenodd" d="M10.9583 29.75V12.75H13.0833V29.75H10.9583Z" fill="#347295"/>
</svg>
