<svg width="86" height="85" viewBox="0 0 86 85" fill="none" xmlns="http://www.w3.org/2000/svg">
<rect x="0.666504" width="85" height="85" rx="10" fill="#3D5AA9" fill-opacity="0.1"/>
<path d="M41.6139 47.4736C46.0757 47.4736 49.6927 43.8567 49.6927 39.3949C49.6927 34.9331 46.0757 31.3162 41.6139 31.3162C37.1521 31.3162 33.5352 34.9331 33.5352 39.3949C33.5352 43.8567 37.1521 47.4736 41.6139 47.4736Z" stroke="#3D5AA9" stroke-width="4" stroke-linecap="round" stroke-linejoin="round"/>
<path d="M56.5354 66.0749C56.5354 59.3762 49.8654 53.9136 41.6141 53.9136C33.3629 53.9136 26.6929 59.3474 26.6929 66.0749" stroke="#3D5AA9" stroke-width="4" stroke-linecap="round" stroke-linejoin="round"/>
<path d="M69.0415 43.9375C69.0415 59.0312 56.8228 71.25 41.729 71.25C26.6353 71.25 14.4165 59.0312 14.4165 43.9375C14.4165 28.8438 26.6353 16.625 41.729 16.625C45.4953 16.625 49.089 17.3725 52.3665 18.7525C51.9928 19.9025 51.7915 21.11 51.7915 22.375C51.7915 24.5312 52.3953 26.5725 53.459 28.2975C54.034 29.275 54.7815 30.1662 55.644 30.9137C57.6565 32.7537 60.3303 33.875 63.2915 33.875C64.5565 33.875 65.764 33.6737 66.8853 33.2712C68.2653 36.5487 69.0415 40.1713 69.0415 43.9375Z" stroke="#3D5AA9" stroke-width="4" stroke-linecap="round" stroke-linejoin="round"/>
<path d="M74.7915 22.375C74.7915 23.295 74.6765 24.1862 74.4465 25.0487C74.1877 26.1987 73.7277 27.32 73.124 28.2975C71.744 30.6262 69.5303 32.4374 66.8853 33.2712C65.764 33.6737 64.5565 33.875 63.2915 33.875C60.3303 33.875 57.6565 32.7537 55.644 30.9137C54.7815 30.1662 54.034 29.275 53.459 28.2975C52.3953 26.5725 51.7915 24.5312 51.7915 22.375C51.7915 21.11 51.9928 19.9025 52.3665 18.7525C52.9128 17.085 53.8328 15.5901 55.0403 14.3538C57.139 12.1976 60.0715 10.875 63.2915 10.875C66.684 10.875 69.7603 12.3413 71.8303 14.6988C73.6703 16.74 74.7915 19.4425 74.7915 22.375Z" stroke="#3D5AA9" stroke-width="4" stroke-miterlimit="10" stroke-linecap="round" stroke-linejoin="round"/>
<path d="M67.5753 22.3174H59.0078" stroke="#3D5AA9" stroke-width="4" stroke-miterlimit="10" stroke-linecap="round" stroke-linejoin="round"/>
<path d="M63.2915 18.1201V26.7163" stroke="#3D5AA9" stroke-width="4" stroke-miterlimit="10" stroke-linecap="round" stroke-linejoin="round"/>
</svg>
