<svg width="120" height="120" viewBox="0 0 120 120" fill="none" xmlns="http://www.w3.org/2000/svg">
<rect width="120" height="120" fill="#3D5AA9" fill-opacity="0.1"/>
<path d="M60 40C48.972 40 40 48.972 40 60C40 71.028 48.972 80 60 80C71.028 80 80 71.028 80 60C80 48.972 71.028 40 60 40ZM44 60C44 58.202 44.312 56.476 44.862 54.862L48 58L52 62V66L56 70L58 72V75.862C50.122 74.872 44 68.144 44 60ZM72.66 69.746C71.354 68.694 69.374 68 68 68V66C68 64.9391 67.5786 63.9217 66.8284 63.1716C66.0783 62.4214 65.0609 62 64 62H56V56C57.0609 56 58.0783 55.5786 58.8284 54.8284C59.5786 54.0783 60 53.0609 60 52V50H62C63.0609 50 64.0783 49.5786 64.8284 48.8284C65.5786 48.0783 66 47.0609 66 46V45.178C71.856 47.556 76 53.3 76 60C75.9996 63.5294 74.8245 66.9583 72.66 69.746V69.746Z" fill="#3D5AA9"/>
</svg>
