<svg width="120" height="118" viewBox="0 0 120 118" fill="none" xmlns="http://www.w3.org/2000/svg">
<rect width="120" height="118" fill="#B01DE3" fill-opacity="0.1"/>
<path d="M60 43H46C44.4087 43 42.8826 43.6321 41.7574 44.7574C40.6321 45.8826 40 47.4087 40 49V65C40 66.5913 40.6321 68.1174 41.7574 69.2426C42.8826 70.3679 44.4087 71 46 71L44 73V75H46L50 70.94L54 71V61H44V47H62V51H66V49C66 47.4087 65.3679 45.8826 64.2426 44.7574C63.1174 43.6321 61.5913 43 60 43M46 63C46.5304 63 47.0391 63.2107 47.4142 63.5858C47.7893 63.9609 48 64.4696 48 65C48 65.5304 47.7893 66.0391 47.4142 66.4142C47.0391 66.7893 46.5304 67 46 67C45.4696 67 44.9609 66.7893 44.5858 66.4142C44.2107 66.0391 44 65.5304 44 65C44 64.4696 44.2107 63.9609 44.5858 63.5858C44.9609 63.2107 45.4696 63 46 63ZM77.14 54.32C76.86 53.52 76.1 53 75.2 53H60.82C59.9 53 59.16 53.52 58.86 54.32L56 62.54V73.56C56 74.32 56.64 75 57.4 75H58.64C59.4 75 60 74.24 60 73.48V71H76V73.48C76 74.24 76.62 75 77.38 75H78.6C79.36 75 80 74.32 80 73.56V62.54L77.14 54.32ZM60.82 55H75.2L77.26 61H58.76L60.82 55M60 67C59.4696 67 58.9609 66.7893 58.5858 66.4142C58.2107 66.0391 58 65.5304 58 65C58 64.4696 58.2107 63.9609 58.5858 63.5858C58.9609 63.2107 59.4696 63 60 63C60.5304 63 61.0391 63.2107 61.4142 63.5858C61.7893 63.9609 62 64.4696 62 65C62 65.5304 61.7893 66.0391 61.4142 66.4142C61.0391 66.7893 60.5304 67 60 67ZM76 67C75.4696 67 74.9609 66.7893 74.5858 66.4142C74.2107 66.0391 74 65.5304 74 65C74 64.4696 74.2107 63.9609 74.5858 63.5858C74.9609 63.2107 75.4696 63 76 63C76.5304 63 77.0391 63.2107 77.4142 63.5858C77.7893 63.9609 78 64.4696 78 65C78 65.5304 77.7893 66.0391 77.4142 66.4142C77.0391 66.7893 76.5304 67 76 67Z" fill="#B01DE3"/>
</svg>
