<svg width="203" height="52" viewBox="0 0 203 52" fill="none" xmlns="http://www.w3.org/2000/svg">
<g clip-path="url(#clip0_1178_34255)">
<path d="M21.6048 14.0007L13.9443 26.42L0 3.82251H15.8134C21.1045 3.82251 24.3544 9.5381 21.6048 14.0007Z" fill="#231F20"/>
<path d="M60.9 0L29.2732 51.2704L16.7298 30.9377L22.7614 21.1627C30.8662 8.02001 45.3187 0 60.9 0Z" fill="#FAFAFA"/>
<path fill-rule="evenodd" clip-rule="evenodd" d="M145.096 13.7005C145.672 14.2373 146.367 14.5077 147.176 14.5077C147.989 14.5077 148.68 14.2373 149.256 13.7005C149.832 13.1637 150.119 12.5219 150.119 11.7712C150.119 11.0124 149.832 10.3626 149.256 9.82578C148.68 9.28898 147.985 9.01855 147.176 9.01855C146.363 9.01855 145.672 9.28898 145.096 9.82578C144.52 10.3626 144.233 11.0124 144.233 11.7712C144.233 12.5179 144.52 13.1637 145.096 13.7005ZM144.826 18.1523V41.7758H149.481V18.1523H144.826ZM138.565 10.2779V41.7759H133.91V10.2779H138.565ZM112.38 40.7507C114.076 41.7517 116.104 42.2521 118.462 42.2521C120.207 42.2521 121.76 41.9858 123.121 41.457C124.486 40.9323 125.622 40.1897 126.529 39.2291C127.436 38.2685 128.07 37.1505 128.421 35.867L124.016 35.084C123.738 35.8226 123.329 36.4442 122.802 36.9446C122.275 37.4451 121.645 37.8245 120.918 38.0748C120.19 38.325 119.385 38.4501 118.503 38.4501C117.142 38.4501 115.952 38.1595 114.935 37.5823C113.917 37.0011 113.124 36.1576 112.56 35.0517C112.031 34.022 111.75 32.7859 111.714 31.3465H128.72V29.7159C128.72 27.5727 128.429 25.7484 127.849 24.247C127.269 22.7455 126.472 21.5226 125.467 20.5781C124.461 19.6377 123.325 18.9435 122.058 18.5036C120.791 18.0636 119.483 17.8416 118.135 17.8416C115.916 17.8416 113.974 18.3583 112.319 19.3955C110.664 20.4328 109.377 21.8737 108.457 23.7182C107.537 25.5628 107.08 27.6938 107.08 30.1155C107.08 32.5654 107.537 34.7005 108.457 36.5208C109.377 38.3411 110.684 39.7497 112.38 40.7507ZM111.722 27.8997C111.778 26.8846 112.033 25.9343 112.495 25.0461C113.022 24.0331 113.766 23.2137 114.739 22.5841C115.707 21.9545 116.847 21.6396 118.155 21.6396C119.361 21.6396 120.411 21.9101 121.31 22.4549C122.209 22.9998 122.908 23.7425 123.407 24.6788C123.905 25.6152 124.155 26.6888 124.155 27.8997H111.722ZM95.9431 41.7758L104.615 18.1523H99.6171L93.5727 36.331H93.3234L87.2667 18.1523H82.2684L90.9571 41.7758H95.9431ZM165.82 42.252C163.577 42.252 161.619 41.7435 159.947 40.7304C158.276 39.7173 156.976 38.2966 156.053 36.4682C155.129 34.6439 154.667 32.5088 154.667 30.071C154.667 27.6211 155.129 25.4779 156.053 23.6414C156.976 21.805 158.276 20.3802 159.947 19.3672C161.619 18.3541 163.577 17.8455 165.82 17.8455C168.064 17.8455 170.022 18.3541 171.689 19.3672C173.356 20.3802 174.66 21.809 175.584 23.6414C176.507 25.4779 176.969 27.6211 176.969 30.071C176.969 32.5128 176.507 34.6439 175.584 36.4682C174.66 38.2926 173.361 39.7133 171.689 40.7304C170.018 41.7435 168.06 42.252 165.82 42.252ZM165.833 38.3894C167.287 38.3894 168.489 38.01 169.445 37.2513C170.402 36.4925 171.109 35.4834 171.571 34.2201C172.032 32.9609 172.265 31.5684 172.265 30.0508C172.265 28.5453 172.032 27.1569 171.571 25.8896C171.109 24.6222 170.402 23.6051 169.445 22.8382C168.489 22.0673 167.287 21.6839 165.833 21.6839C164.369 21.6839 163.156 22.0673 162.195 22.8382C161.235 23.6091 160.524 24.6262 160.062 25.8896C159.6 27.1569 159.367 28.5413 159.367 30.0508C159.367 31.5684 159.596 32.9568 160.062 34.2201C160.524 35.4794 161.235 36.4925 162.195 37.2513C163.16 38.0141 164.369 38.3894 165.833 38.3894ZM186.811 41.7758V27.7502C186.811 26.499 187.052 25.4294 187.53 24.5415C188.012 23.6535 188.674 22.9795 189.508 22.5194C190.342 22.0593 191.302 21.8292 192.381 21.8292C193.958 21.8292 195.201 22.3135 196.104 23.2822C197.007 24.2509 197.461 25.5909 197.461 27.3022V41.7798H202.124V26.7533C202.124 24.8038 201.785 23.1692 201.11 21.8454C200.436 20.5215 199.488 19.5246 198.262 18.8546C197.036 18.1805 195.61 17.8455 193.979 17.8455C192.181 17.8455 190.693 18.2249 189.516 18.9837C188.339 19.7425 187.477 20.7475 186.925 21.9987H186.627V18.1523H182.156V41.7758H186.811Z" fill="#FAFAFA"/>
</g>
<defs>
<clipPath id="clip0_1178_34255">
<rect width="203" height="51.2842" fill="white"/>
</clipPath>
</defs>
</svg>
