<svg width="173" height="44" viewBox="0 0 173 44" fill="none" xmlns="http://www.w3.org/2000/svg">
<path d="M18.412 12.079L11.8835 22.663L0 3.40503H13.4764C17.9856 3.40503 20.7552 8.27595 18.412 12.079Z" fill="#FAFAFA"/>
<path d="M51.9 0.147461L24.9472 43.8409L14.2574 26.5131L19.3977 18.1827C26.3047 6.98225 38.6214 0.147461 51.9 0.147461Z" fill="#3D5AA9"/>
<path fill-rule="evenodd" clip-rule="evenodd" d="M123.653 11.8233C124.144 12.2807 124.736 12.5112 125.426 12.5112C126.119 12.5112 126.708 12.2807 127.199 11.8233C127.69 11.3658 127.934 10.8189 127.934 10.1791C127.934 9.53244 127.69 8.97866 127.199 8.52118C126.708 8.06371 126.115 7.83325 125.426 7.83325C124.733 7.83325 124.144 8.06371 123.653 8.52118C123.162 8.97866 122.918 9.53244 122.918 10.1791C122.918 10.8154 123.162 11.3658 123.653 11.8233ZM123.423 15.6172V35.7495H127.39V15.6172H123.423ZM118.088 8.9065V35.7496H114.121V8.9065H118.088ZM95.7725 34.8759C97.2179 35.729 98.9454 36.1555 100.955 36.1555C102.442 36.1555 103.766 35.9285 104.925 35.4779C106.089 35.0307 107.057 34.3978 107.83 33.5792C108.603 32.7605 109.143 31.8077 109.443 30.7139L105.688 30.0466C105.451 30.6761 105.103 31.2058 104.654 31.6323C104.205 32.0588 103.668 32.3822 103.048 32.5954C102.428 32.8087 101.742 32.9153 100.99 32.9153C99.83 32.9153 98.8165 32.6677 97.9493 32.1758C97.082 31.6805 96.4063 30.9616 95.9257 30.0191C95.4749 29.1416 95.2355 28.0881 95.2047 26.8615H109.697V25.4719C109.697 23.6454 109.45 22.0907 108.955 20.8112C108.461 19.5316 107.781 18.4894 106.925 17.6845C106.068 16.8831 105.1 16.2915 104.02 15.9165C102.94 15.5416 101.826 15.3524 100.676 15.3524C98.7852 15.3524 97.1308 15.7927 95.7202 16.6767C94.3096 17.5607 93.2125 18.7886 92.4289 20.3606C91.6452 21.9325 91.2552 23.7486 91.2552 25.8124C91.2552 27.9003 91.6452 29.7199 92.4289 31.2712C93.2125 32.8224 94.3271 34.0229 95.7725 34.8759ZM95.2113 23.9241C95.2588 23.059 95.4761 22.2492 95.87 21.4922C96.3193 20.6289 96.9532 19.9306 97.7821 19.394C98.6075 18.8574 99.5793 18.5891 100.694 18.5891C101.721 18.5891 102.616 18.8196 103.383 19.284C104.149 19.7483 104.744 20.3812 105.169 21.1792C105.594 21.9772 105.807 22.8922 105.807 23.9241H95.2113ZM81.7643 35.7495L89.155 15.6172H84.8954L79.7442 31.1094H79.5317L74.3701 15.6172H70.1105L77.5152 35.7495H81.7643ZM141.315 36.1554C139.403 36.1554 137.734 35.722 136.31 34.8586C134.885 33.9953 133.778 32.7845 132.991 31.2263C132.204 29.6716 131.81 27.852 131.81 25.7745C131.81 23.6866 132.204 21.8602 132.991 20.2951C133.778 18.7301 134.885 17.5159 136.31 16.6525C137.734 15.7892 139.403 15.3558 141.315 15.3558C143.227 15.3558 144.895 15.7892 146.316 16.6525C147.737 17.5159 148.848 18.7335 149.635 20.2951C150.423 21.8602 150.816 23.6866 150.816 25.7745C150.816 27.8555 150.423 29.6716 149.635 31.2263C148.848 32.7811 147.741 33.9918 146.316 34.8586C144.892 35.722 143.223 36.1554 141.315 36.1554ZM141.325 32.8636C142.565 32.8636 143.589 32.5403 144.404 31.8936C145.219 31.247 145.822 30.3871 146.215 29.3104C146.609 28.2373 146.807 27.0506 146.807 25.7573C146.807 24.4743 146.609 23.2911 146.215 22.211C145.822 21.1309 145.219 20.2642 144.404 19.6106C143.589 18.9536 142.565 18.6269 141.325 18.6269C140.078 18.6269 139.044 18.9536 138.226 19.6106C137.407 20.2676 136.801 21.1344 136.407 22.211C136.014 23.2911 135.815 24.4709 135.815 25.7573C135.815 27.0506 136.01 28.2338 136.407 29.3104C136.801 30.3836 137.407 31.247 138.226 31.8936C139.047 32.5437 140.078 32.8636 141.325 32.8636ZM159.203 35.7495V23.7967C159.203 22.7304 159.409 21.8189 159.816 21.0622C160.227 20.3054 160.791 19.731 161.502 19.3389C162.212 18.9468 163.031 18.7507 163.95 18.7507C165.295 18.7507 166.353 19.1635 167.123 19.989C167.893 20.8145 168.279 21.9565 168.279 23.4149V35.7529H172.253V22.9471C172.253 21.2857 171.964 19.8927 171.39 18.7645C170.815 17.6363 170.007 16.7867 168.962 16.2157C167.917 15.6413 166.702 15.3558 165.312 15.3558C163.78 15.3558 162.512 15.6791 161.509 16.3257C160.506 16.9724 159.771 17.8289 159.301 18.8952H159.046V15.6172H155.236V35.7495H159.203Z" fill="#FAFAFA"/>
</svg>
